<svg width="40" height="10" viewBox="0 0 40 10" fill="none" xmlns="http://www.w3.org/2000/svg">
<path d="M4.51302 0L0 9.98716H5.40271L6.07249 8.39479H7.60346L8.27324 9.98716H14.2201V8.77181L14.75 9.98716H17.8262L18.3561 8.74612V9.98716H30.724L32.2278 8.43614L33.636 9.98716L39.9884 10L35.4611 5.02146L39.9884 0H33.7345L32.2706 1.52235L30.9068 0H17.4521L16.2968 2.57777L15.1143 0H9.72291V1.17399L9.12315 0C9.12315 0 4.51302 0 4.51302 0ZM5.55841 1.41819H8.19194L11.1854 8.19053V1.41819H14.0704L16.3825 6.27393L18.5134 1.41819H21.3839V8.58463H19.6372L19.623 2.96905L17.0765 8.58463H15.5141L12.9534 2.96905V8.58463H9.36014L8.67893 6.97801H4.99859L4.31879 8.58322H2.39357C2.39357 8.58322 5.55841 1.41819 5.55841 1.41819ZM22.9819 1.41819H30.0841L32.2564 3.76461L34.4986 1.41819H36.6708L33.3704 5.02005L36.6708 8.5804H34.4001L32.2278 6.20673L29.9742 8.5804H22.9819V1.41819ZM6.83954 2.63071L5.62702 5.49278H8.05066L6.83954 2.63071ZM24.7358 2.90201V4.21024H28.6103V5.66837H24.7358V7.09658H29.0816L31.101 4.99295L29.1673 2.90075H24.7358V2.90201Z" fill="white"/>
</svg>
