<svg width="31" height="15" viewBox="0 0 31 15" fill="none" xmlns="http://www.w3.org/2000/svg">
<path d="M9.02215 4.28602C8.90746 4.3929 8.79082 4.49881 8.67709 4.60765C8.27492 4.99302 7.97292 5.44165 7.86645 6.00009C7.71884 6.77427 7.87613 7.48422 8.33928 8.12062C8.5711 8.43883 8.84744 8.7031 9.21526 8.85509C9.25833 8.87274 9.30188 8.88843 9.35464 8.90902C9.30672 9.04091 9.26414 9.17084 9.21284 9.29733C8.91326 10.0328 8.52319 10.7133 7.9918 11.3036C7.89307 11.4135 7.78128 11.513 7.66658 11.6071C7.27795 11.9253 6.84287 12.0484 6.35262 11.9033C6.10773 11.8312 5.86575 11.7498 5.62232 11.6733C5.37114 11.5949 5.11706 11.5316 4.85234 11.5252C4.52469 11.5174 4.22125 11.6169 3.91877 11.7297C3.68889 11.8155 3.45756 11.9047 3.21993 11.9616C2.84583 12.0518 2.50754 11.9346 2.19732 11.7223C1.8842 11.5076 1.63689 11.2262 1.42201 10.9158C0.884815 10.1382 0.475383 9.29733 0.224206 8.38048C0.00109969 7.56512 -0.0618154 6.7375 0.0640148 5.89958C0.174842 5.16071 0.446829 4.4939 0.960313 3.94281C1.49219 3.37211 2.14699 3.13725 2.91455 3.21472C3.29688 3.25296 3.66179 3.36524 4.02815 3.47311C4.18108 3.51821 4.33692 3.55204 4.49082 3.59176C4.7115 3.64863 4.92929 3.62265 5.14271 3.5594C5.44325 3.47016 5.74089 3.36867 6.04143 3.27797C6.48813 3.14363 6.9416 3.10489 7.40233 3.1956C7.99857 3.31278 8.46995 3.63785 8.86438 4.09186C8.91375 4.14873 8.96214 4.20659 9.01102 4.26444C9.01538 4.26984 9.0178 4.2767 9.02215 4.28602Z" fill="white"/>
<path d="M6.78042 0.565186C6.78671 0.698056 6.8051 0.823081 6.79639 0.946146C6.74993 1.61834 6.48956 2.1964 6.03125 2.68277C5.82459 2.90243 5.59616 3.0956 5.31401 3.20837C5.07397 3.30447 4.81844 3.32506 4.56387 3.34418C4.56 3.34467 4.55564 3.34026 4.55177 3.33781C4.58759 1.8375 5.33531 0.866718 6.78042 0.565186Z" fill="white"/>
<path d="M12.2066 2.34939C12.798 2.24937 13.5724 2.16406 14.5577 2.16406C15.7686 2.16406 16.6552 2.44941 17.2185 2.96276C17.7393 3.41922 18.049 4.11789 18.049 4.97346C18.049 5.84325 17.7954 6.52819 17.3168 7.02731C16.6692 7.72598 15.6132 8.08243 14.4169 8.08243C14.051 8.08243 13.7132 8.06821 13.4315 7.99663V11.8474H12.2066V2.34939V2.34939ZM13.431 6.98416C13.6987 7.05575 14.0365 7.08419 14.4445 7.08419C15.9225 7.08419 16.8236 6.35708 16.8236 5.03033C16.8236 3.76096 15.9365 3.1476 14.5853 3.1476C14.0505 3.1476 13.6421 3.19025 13.431 3.24762V6.98416Z" fill="white"/>
<path d="M22.4681 11.8479L22.3693 10.9781H22.3272C21.9473 11.5199 21.2151 12.0048 20.2438 12.0048C18.864 12.0048 18.1603 11.0208 18.1603 10.0225C18.1603 8.35407 19.6243 7.44114 22.2571 7.45536V7.31268C22.2571 6.74198 22.1022 5.7153 20.7084 5.7153C20.0749 5.7153 19.4133 5.91485 18.9347 6.22864L18.653 5.40151C19.2163 5.03084 20.0328 4.78815 20.8913 4.78815C22.9748 4.78815 23.4815 6.22864 23.4815 7.61225V10.1937C23.4815 10.7928 23.5096 11.3772 23.5943 11.8479H22.4681V11.8479ZM22.2851 8.32514C20.9334 8.2967 19.3993 8.53891 19.3993 9.87987C19.3993 10.6928 19.934 11.0782 20.5676 11.0782C21.4547 11.0782 22.0175 10.5074 22.2145 9.92302C22.2566 9.79456 22.2851 9.65188 22.2851 9.52392V8.32514V8.32514Z" fill="white"/>
<path d="M25.127 4.94489L26.619 9.02366C26.7739 9.48012 26.9428 10.0219 27.0555 10.4357H27.0836C27.2104 10.0219 27.3513 9.49434 27.5202 8.99522L28.8719 4.94489H30.181L28.3226 9.8655C27.4355 12.2331 26.8305 13.4451 25.9855 14.187C25.3801 14.7287 24.7751 14.943 24.4654 14.9999L24.1556 13.9443C24.4654 13.8442 24.8738 13.6447 25.2397 13.3309C25.5775 13.0598 26 12.5749 26.2817 11.9331C26.3378 11.8046 26.3799 11.7051 26.3799 11.6335C26.3799 11.5619 26.3519 11.4624 26.2957 11.3055L23.7757 4.94489H25.127Z" fill="white"/>
</svg>
