<svg width="22" height="18" viewBox="0 0 22 18" fill="none" xmlns="http://www.w3.org/2000/svg">
<path fill-rule="evenodd" clip-rule="evenodd" d="M22 8.69827C22 13.4024 17.652 17.2692 12.8883 17.2467H8.78866C3.96793 17.2692 0 13.4034 0 8.69827C0 3.5551 3.96793 -0.00170974 8.78866 6.16759e-07H12.8883C17.652 -0.00170974 22 3.55404 22 8.69827ZM0.832428 8.60793C0.833465 4.2473 4.40301 0.714138 8.80806 0.712769C13.2142 0.714138 16.7844 4.2473 16.785 8.60793C16.7844 12.9678 13.2142 16.5006 8.80806 16.502C4.40298 16.5006 0.833465 12.9678 0.832428 8.60793ZM6.99804 3.93796C5.10157 4.66003 3.75668 6.47708 3.75253 8.60793C3.75664 10.7391 5.10157 12.5552 6.99804 13.2768V3.93796ZM10.6174 3.93765V13.2789C12.5146 12.5572 13.8615 10.7405 13.865 8.60793C13.8615 6.47606 12.5146 4.65797 10.6174 3.93765Z" fill="white"/>
</svg>
