<svg width="33" height="14" viewBox="0 0 33 14" fill="none" xmlns="http://www.w3.org/2000/svg">
<path d="M15.4921 1.93539V5.26557H17.5176C18.0001 5.26557 18.3989 5.10153 18.7141 4.77252C19.0385 4.44444 19.2003 4.05299 19.2003 3.60001C19.2003 3.15636 19.0385 2.76956 18.7141 2.44055C18.398 2.10315 17.9991 1.93445 17.5176 1.93445L15.4921 1.93539ZM15.4921 6.43808V10.3014H14.2827V0.762878H17.4909C18.3061 0.762878 18.9972 1.03876 19.5679 1.58867C20.1478 2.13857 20.4364 2.80964 20.4364 3.60001C20.4364 4.40809 20.1478 5.08382 19.5679 5.62441C19.0073 6.16686 18.3144 6.43715 17.4909 6.43715L15.4921 6.43808Z" fill="white"/>
<path d="M21.6586 8.30221C21.6586 8.62283 21.7919 8.88846 22.0602 9.1019C22.3277 9.3144 22.641 9.42159 23.0004 9.42159C23.5095 9.42159 23.9617 9.23052 24.3605 8.84932C24.7594 8.46718 24.9588 8.01887 24.9588 7.50438C24.582 7.20147 24.0554 7.05141 23.3808 7.05141C22.8901 7.05141 22.4802 7.17164 22.1521 7.41118C21.8241 7.65071 21.6586 7.9471 21.6586 8.30221ZM23.2237 3.56091C24.1179 3.56091 24.8237 3.80231 25.3411 4.28697C25.8585 4.77163 26.1158 5.43432 26.1158 6.27781V10.3014H24.9588V9.39549H24.9064C24.4065 10.1411 23.7411 10.5139 22.9085 10.5139C22.1981 10.5139 21.6035 10.3014 21.1265 9.87549C20.6486 9.44862 20.4097 8.91642 20.4097 8.27611C20.4097 7.60131 20.6606 7.06446 21.1651 6.66554C21.6697 6.2657 22.3424 6.06624 23.1833 6.06624C23.9019 6.06624 24.4938 6.19952 24.9579 6.46609V6.18647C24.9579 5.76053 24.7915 5.3989 24.4588 5.10158C24.1252 4.80332 23.7365 4.65513 23.2889 4.65513C22.6135 4.65513 22.0795 4.94313 21.6853 5.521L20.6192 4.84154C21.2083 3.98686 22.0749 3.56091 23.2237 3.56091Z" fill="white"/>
<path d="M32.7571 3.77338L28.719 13.1777H27.471L28.9699 9.88757L26.3139 3.77338H27.629L29.5488 8.46248H29.5746L31.4411 3.77338H32.7571Z" fill="white"/>
<path d="M5.40922 2.16886C6.206 2.16886 6.92098 2.44661 7.48433 2.99092L9.02827 1.42789C8.09088 0.54338 6.8686 0 5.40922 0C3.2955 0 1.46576 1.22936 0.575241 3.01982L2.3719 4.43186C2.80108 3.13259 3.99854 2.16886 5.40922 2.16886Z" fill="white"/>
<path d="M0.509506 3.15894C0.18348 3.86389 0 4.65001 0 5.4804C0 6.36584 0.207696 7.20188 0.576217 7.94099L2.37288 6.52894C2.26351 6.19807 2.20286 5.84483 2.20286 5.4804C2.20286 5.17208 2.24562 4.87176 2.32557 4.58623L0.509506 3.15894Z" fill="white"/>
<path d="M0.645767 8.0771C1.55894 9.79308 3.3501 10.9617 5.40925 10.9617C6.86955 10.9617 8.09826 10.4761 8.99521 9.63819L7.25094 8.26716C6.7657 8.59803 6.14078 8.79189 5.40925 8.79189C4.05305 8.79189 2.89391 7.90116 2.42506 6.67871L0.645767 8.0771Z" fill="white"/>
<path d="M10.5116 4.4906C10.5722 4.84664 10.6044 5.21946 10.6044 5.60532C10.6044 7.21271 10.0578 8.58192 9.10463 9.53342L7.37765 8.17598C7.88252 7.78671 8.21606 7.23807 8.3317 6.60167H5.40926V4.4906H10.5116Z" fill="white"/>
</svg>
