<svg width="23" height="17" viewBox="0 0 23 17" fill="none" xmlns="http://www.w3.org/2000/svg">
<path d="M16.8688 9.82544H18.4848C18.531 9.82544 18.6387 9.81067 18.6849 9.81067C18.9927 9.75157 19.2544 9.48565 19.2544 9.1163C19.2544 8.76173 18.9927 8.49581 18.6849 8.42194C18.6387 8.40717 18.5464 8.40717 18.4848 8.40717H16.8688V9.82544Z" fill="white"/>
<path d="M18.3001 0.0305176C16.761 0.0305176 15.4989 1.22718 15.4989 2.71933V5.51155H19.4545C19.5468 5.51155 19.6546 5.51155 19.7315 5.52632C20.6242 5.57064 21.286 6.01385 21.286 6.78208C21.286 7.3878 20.8397 7.90488 20.0086 8.0083V8.03785C20.9166 8.09694 21.6092 8.58447 21.6092 9.33793C21.6092 10.1505 20.8397 10.6823 19.8239 10.6823H15.4836V16.1486H19.593C21.1321 16.1486 22.3942 14.9519 22.3942 13.4598V0.0305176H18.3001V0.0305176Z" fill="white"/>
<path d="M19.0543 6.95937C19.0543 6.6048 18.7927 6.36842 18.4848 6.3241C18.454 6.3241 18.3771 6.30933 18.3309 6.30933H16.8688V7.60941H18.3309C18.3771 7.60941 18.4694 7.60941 18.4848 7.59463C18.7927 7.55031 19.0543 7.31393 19.0543 6.95937V6.95937Z" fill="white"/>
<path d="M2.81659 0.0305176C1.27747 0.0305176 0.0153913 1.22718 0.0153913 2.71933V9.3527C0.800342 9.72204 1.61608 9.95842 2.43181 9.95842C3.40145 9.95842 3.92476 9.39702 3.92476 8.62879V5.49677H6.32578V8.61402C6.32578 9.82546 5.54083 10.8153 2.87815 10.8153C1.26208 10.8153 0 10.4755 0 10.4755V16.1338H4.10945C5.64857 16.1338 6.91065 14.9371 6.91065 13.445V0.0305176H2.81659V0.0305176Z" fill="white"/>
<path d="M10.5584 0.0305176C9.01924 0.0305176 7.75716 1.22718 7.75716 2.71933V6.23546C8.46516 5.65929 9.69645 5.28994 11.6819 5.37859C12.7439 5.42291 13.8829 5.70361 13.8829 5.70361V6.84118C13.3134 6.56048 12.6362 6.30933 11.7589 6.25023C10.2505 6.14682 9.34246 6.85595 9.34246 8.09694C9.34246 9.3527 10.2505 10.0618 11.7589 9.94365C12.6362 9.88456 13.3134 9.61863 13.8829 9.3527V10.4903C13.8829 10.4903 12.7593 10.771 11.6819 10.8153C9.69645 10.9039 8.46516 10.5346 7.75716 9.95842V16.1634H11.8666C13.4057 16.1634 14.6678 14.9667 14.6678 13.4746V0.0305176H10.5584V0.0305176Z" fill="white"/>
</svg>
