<svg width="23" height="14" viewBox="0 0 23 14" fill="none" xmlns="http://www.w3.org/2000/svg">
<path fill-rule="evenodd" clip-rule="evenodd" d="M11.2142 1.48456C9.61491 2.75693 8.57444 4.72346 8.57444 6.94054C8.57444 9.15763 9.615 11.1434 11.2142 12.3966C10.0389 13.322 8.55522 13.8811 6.93667 13.8811C3.10219 13.8811 0 10.7772 0 6.94054C0 3.10392 3.10219 0 6.93667 0C8.55522 0 10.0389 0.559079 11.2142 1.48456ZM15.5111 13.8811C19.3455 13.8811 22.4478 10.7772 22.4478 6.94054C22.4478 3.12324 19.3455 0 15.5111 0C13.8925 0 12.4089 0.55908 11.2335 1.48464C12.8328 2.75702 13.8733 4.72355 13.8733 6.94063C13.8733 9.15772 12.8521 11.1242 11.2335 12.3966C12.4089 13.322 13.8926 13.8811 15.5111 13.8811Z" fill="white"/>
<path d="M13.3733 6.94063C13.3733 5.02654 12.5379 3.31283 11.2238 2.13111C9.90984 3.31283 9.07444 5.0265 9.07444 6.94054C9.07444 8.85747 9.91207 10.5867 11.2237 11.7534C12.5507 10.5736 13.3733 8.85959 13.3733 6.94063Z" fill="white"/>
</svg>
