<svg width="32" height="11" viewBox="0 0 32 11" fill="none" xmlns="http://www.w3.org/2000/svg">
<g clip-path="url(#clip0)">
<path d="M32 10.0751C31.1986 10.0751 30.3972 10.0751 29.5833 10.0751C29.495 9.65583 29.4003 9.24534 29.325 8.83135C29.2942 8.65943 29.2386 8.59277 29.0443 8.5957C28.0752 8.60798 27.1062 8.60505 26.1371 8.59745C25.9902 8.59628 25.9322 8.64423 25.8878 8.7758C25.7545 9.16991 25.6082 9.56052 25.4589 9.94937C25.4388 10.002 25.3712 10.0745 25.3256 10.0751C24.452 10.0827 23.5789 10.0804 22.6797 10.0804C22.8432 9.69092 22.9984 9.31902 23.1559 8.9483C24.282 6.29591 25.4086 3.64352 26.5352 0.990545C26.7792 0.416329 27.1447 0.175415 27.7743 0.175415C28.4756 0.175415 29.177 0.175415 29.896 0.175415C29.9659 0.498777 30.037 0.817462 30.1045 1.13673C30.659 3.75813 31.2116 6.37952 31.7672 9.00092C31.8383 9.33656 31.9224 9.66987 32.0006 10.0043C32 10.0283 32 10.0517 32 10.0751ZM28.8376 6.55787C28.5799 5.33869 28.3258 4.13646 28.0717 2.93364C28.061 2.93189 28.0509 2.92955 28.0403 2.92779C27.5978 4.13353 27.1547 5.33869 26.7069 6.55787C27.4302 6.55787 28.1226 6.55787 28.8376 6.55787Z" fill="white"/>
<path d="M21.4726 0C21.7912 0.0584742 22.1129 0.106423 22.4286 0.178346C22.7164 0.243837 22.999 0.335642 23.3052 0.421599C23.1506 1.1344 23.0002 1.82966 22.8527 2.5103C22.4487 2.39335 22.0625 2.25886 21.6657 2.17232C21.1225 2.0542 20.5663 2.00917 20.0231 2.15828C19.8022 2.2191 19.5789 2.33546 19.4047 2.48281C19.1068 2.73484 19.1026 3.09796 19.3876 3.36285C19.5842 3.54529 19.8164 3.69557 20.0492 3.83357C20.5781 4.14757 21.1332 4.42065 21.6467 4.75571C22.2521 5.15041 22.6933 5.69363 22.7857 6.42748C22.9498 7.72561 22.4635 8.74832 21.3588 9.47165C20.664 9.92658 19.878 10.1295 19.0588 10.2049C17.915 10.3102 16.7943 10.1833 15.7015 9.82893C15.628 9.80495 15.557 9.77571 15.4853 9.74648C15.464 9.73771 15.4456 9.7225 15.413 9.70262C15.5676 8.98924 15.7222 8.2741 15.881 7.53966C16.067 7.61977 16.2423 7.70047 16.4206 7.77122C17.2741 8.11095 18.1561 8.26591 19.0695 8.09692C19.307 8.05307 19.5499 7.94957 19.7512 7.81624C20.1884 7.5268 20.2304 6.98299 19.8324 6.64325C19.5706 6.41988 19.2561 6.25498 18.9581 6.07547C18.4925 5.79538 17.9974 5.5568 17.5567 5.24338C16.9916 4.84166 16.5829 4.30604 16.5053 3.59382C16.3892 2.52784 16.7896 1.66184 17.6189 0.989383C18.3409 0.404057 19.1974 0.144431 20.1096 0.0350845C20.1605 0.0292371 20.2097 0.0116948 20.2595 0C20.664 0 21.0686 0 21.4726 0Z" fill="white"/>
<path d="M0.190138 0.176019C1.56375 0.176019 2.93736 0.175434 4.31157 0.176019C4.96313 0.176019 5.43344 0.549669 5.55664 1.18645C5.90552 2.98863 6.24671 4.79256 6.59144 6.5959C6.60625 6.67484 6.62343 6.7532 6.64653 6.8643C6.68207 6.79822 6.70695 6.7608 6.72294 6.72045C7.57589 4.59024 8.42944 2.46002 9.27825 0.327467C9.32445 0.211103 9.3819 0.171341 9.50926 0.17251C10.3059 0.178942 11.1032 0.175434 11.8999 0.176019C11.9514 0.176019 12.003 0.180697 12.0758 0.18362C11.9402 0.505813 11.8116 0.813387 11.6813 1.12038C10.4374 4.04935 9.19236 6.97715 7.9538 9.90846C7.89457 10.0482 7.8223 10.0851 7.67896 10.0839C6.89412 10.0775 6.10869 10.0751 5.32386 10.0856C5.15741 10.088 5.10351 10.0301 5.06501 9.88274C4.39982 7.32332 3.72279 4.76566 3.0653 2.2039C2.94447 1.73377 2.7028 1.41275 2.24967 1.21569C1.52347 0.899929 0.769436 0.678312 0 0.498212" fill="white"/>
<path d="M11.0351 10.0809C11.753 6.77013 12.4656 3.48213 13.1799 0.186523C14.0489 0.186523 14.9078 0.186523 15.7826 0.186523C15.6742 0.688232 15.5682 1.18058 15.4616 1.67294C14.8716 4.39491 14.2799 7.11688 13.697 9.84061C13.6568 10.0301 13.5886 10.0897 13.3896 10.0862C12.6765 10.0728 11.9627 10.0809 11.2489 10.0809C11.185 10.0809 11.121 10.0809 11.0351 10.0809Z" fill="white"/>
</g>
<defs>
<clipPath id="clip0">
<rect width="32" height="10.24" fill="white"/>
</clipPath>
</defs>
</svg>
