<svg width="33" height="15" viewBox="0 0 33 15" fill="none" xmlns="http://www.w3.org/2000/svg">
<g clip-path="url(#clip0)">
<path d="M26.841 3.62761L26.7798 0.141357H27.9278V4.5397H26.2759L25.1333 0.9293H25.1045L25.1692 4.5397H24.0302V0.141357H25.7487L26.8158 3.62761H26.841Z" fill="white"/>
<path d="M5.98686 0.551708L5.35345 4.57935H4.10281L4.95936 0.141357H7.02336L7.87991 4.57935H6.63287L6.01385 0.551708H5.98686Z" fill="white"/>
<path d="M11.3906 3.53796L11.9647 0.141357H13.8523L13.9567 4.57935H12.796L12.7636 0.58964H12.7403L11.9665 4.57935H10.7932L10.0159 0.58964H9.98886L9.96007 4.57935H8.80121L8.90738 0.141357H10.7968L11.3673 3.53796H11.3906Z" fill="white"/>
<path d="M21.1078 3.91383C21.4335 3.91383 21.5307 3.70175 21.5541 3.59486C21.5631 3.54658 21.5631 3.48278 21.5631 3.42416V0.141357H22.7399V3.32416C22.7399 3.40692 22.7309 3.57244 22.7273 3.61727C22.6482 4.44659 21.9608 4.71211 21.1078 4.71211C20.2567 4.71211 19.5729 4.44659 19.4937 3.61727C19.4883 3.57244 19.4793 3.40692 19.4829 3.32416V0.141357H20.6561V3.42589C20.6525 3.48278 20.6579 3.5483 20.6651 3.59658C20.6867 3.70348 20.7875 3.91383 21.1078 3.91383Z" fill="white"/>
<path d="M2.15037 3.32763C2.19356 3.43626 2.18096 3.57419 2.15937 3.65695C2.12158 3.80523 2.01721 3.95695 1.7059 3.95695C1.41798 3.95695 1.24344 3.79661 1.24344 3.5535L1.23984 3.12246H0V3.46557C0 4.45696 0.811562 4.75524 1.68071 4.75524C2.52286 4.75524 3.21206 4.48282 3.32003 3.74316C3.37761 3.35867 3.33622 3.10694 3.31643 3.01384C3.12208 2.08106 1.3604 1.80865 1.22904 1.28795C1.20565 1.19657 1.21105 1.10519 1.22364 1.05519C1.25963 0.906909 1.3604 0.753459 1.64832 0.753459C1.92184 0.753459 2.08199 0.917254 2.08199 1.15346V1.43105H3.23905V1.11898C3.23905 0.150002 2.33032 0 1.67351 0C0.851151 0 0.176348 0.262073 0.0539842 0.987945C0.0215937 1.1845 0.0179947 1.36036 0.0629815 1.58451C0.264522 2.49314 1.91284 2.75349 2.15037 3.32763Z" fill="white"/>
<path d="M17.2191 3.32243C17.2659 3.42761 17.2461 3.56381 17.2281 3.64657C17.1921 3.7914 17.086 3.93968 16.7819 3.93968C16.494 3.93968 16.3212 3.78106 16.3212 3.5414V3.11381H15.0886V3.45519C15.0886 4.43797 15.8947 4.72935 16.7585 4.72935C17.5844 4.72935 18.2682 4.46038 18.378 3.72589C18.4338 3.34657 18.3924 3.09829 18.3726 3.00174C18.1801 2.08276 16.4382 1.81034 16.3104 1.29309C16.287 1.20688 16.2942 1.11378 16.3032 1.0655C16.3338 0.924122 16.4346 0.770671 16.7225 0.770671C16.9942 0.770671 17.1508 0.929294 17.1508 1.16378V1.43792H18.2934V1.13102C18.2934 0.174111 17.3955 0.0241089 16.7495 0.0241089C15.9325 0.0241089 15.2631 0.279285 15.1461 0.999985C15.1084 1.19309 15.1048 1.36723 15.1551 1.59137C15.3531 2.49311 16.9834 2.75173 17.2191 3.32243Z" fill="white"/>
<path d="M30.7764 3.86908C31.1093 3.86908 31.228 3.66908 31.2496 3.54839C31.2568 3.49839 31.2604 3.43459 31.2604 3.37942V2.73631H30.7872V2.0863H32.4283V3.27942C32.4283 3.36218 32.4247 3.42425 32.4121 3.57253C32.3347 4.37599 31.6023 4.66909 30.78 4.66909C29.9612 4.66909 29.2306 4.37599 29.1569 3.57253C29.1389 3.42425 29.1389 3.36218 29.1389 3.27942V1.41043C29.1389 1.33112 29.1479 1.18973 29.1605 1.11904C29.2612 0.284549 29.9612 0.020752 30.7818 0.020752C31.6041 0.020752 32.3275 0.2811 32.4103 1.11904C32.4283 1.25525 32.4193 1.41043 32.4193 1.41043L32.4211 1.55526H31.2532V1.30698C31.2532 1.30698 31.2532 1.20008 31.237 1.13629C31.2172 1.04146 31.1273 0.815591 30.7728 0.815591C30.4399 0.815591 30.3391 1.02939 30.3139 1.13629C30.2995 1.19491 30.2959 1.27594 30.2959 1.34836V3.37942C30.2959 3.43632 30.2995 3.49839 30.3049 3.54839C30.3229 3.66908 30.4381 3.86908 30.7764 3.86908Z" fill="white"/>
</g>
<path d="M7.15335 15V7.8413H8.3572V8.36717C8.52275 8.11027 8.84665 7.92751 9.10038 7.84648C9.3559 7.76544 9.61863 7.72406 9.88855 7.72406C10.5544 7.72406 11.2651 7.93958 11.8428 8.51373C12.3754 9.04477 12.6579 9.69133 12.6579 10.4569C12.6579 10.8086 12.5878 11.1534 12.4474 11.4862C12.3124 11.8189 12.1181 12.1121 11.8698 12.3569C11.607 12.6207 11.3083 12.819 10.979 12.9534C10.6515 13.0862 10.3438 13.1552 9.94253 13.1552C9.64922 13.1552 9.3667 13.1121 9.10038 13.0224C8.83766 12.9414 8.47056 12.7397 8.3374 12.5172V14.9983H7.15335V15ZM9.84896 8.74132C9.40989 8.74132 9.0266 8.87235 8.71349 9.18098C8.39319 9.50167 8.26722 9.9603 8.26722 10.4172C8.26722 10.9034 8.38779 11.3776 8.7009 11.6983C9.0158 12.0207 9.40449 12.1327 9.85796 12.1327C10.3168 12.1327 10.6893 11.9534 10.9718 11.6793C11.2975 11.362 11.4505 10.9327 11.4505 10.4689C11.4505 9.96202 11.2939 9.51202 10.979 9.19305C10.7109 8.91718 10.3186 8.74132 9.84896 8.74132Z" fill="white"/>
<path d="M20.9103 15L21.927 12.7431L19.5967 7.84131H20.8653L22.5208 11.5207L24.0486 7.84131H25.3244L22.1573 15H20.9103Z" fill="white"/>
<path d="M17.6857 13.062V12.5206C17.5525 12.7413 17.1854 12.9447 16.9227 13.0258C16.6546 13.1154 16.3703 13.1585 16.0805 13.1585C15.6775 13.1585 15.3716 13.0913 15.0423 12.9568C14.7147 12.8223 14.416 12.6223 14.1533 12.3585C13.9032 12.1154 13.7088 11.8206 13.5757 11.4895C13.4353 11.1551 13.3633 10.8119 13.3633 10.4602C13.3633 9.69469 13.6459 9.04812 14.1803 8.51708C14.7597 7.94121 15.4705 7.72742 16.1363 7.72742C16.4045 7.72742 16.6672 7.7688 16.9227 7.84983C17.1782 7.93087 17.5021 8.11363 17.6677 8.37053V7.84466H18.8697V13.0654H17.6857V13.062ZM15.0423 9.19295C14.7273 9.51365 14.5726 9.96366 14.5726 10.4688C14.5726 10.9309 14.7273 11.362 15.0512 11.6792C15.3338 11.9533 15.7063 12.1327 16.1651 12.1327C16.6186 12.1327 17.0055 12.0206 17.3204 11.6982C17.6353 11.3775 17.7541 10.9033 17.7541 10.4171C17.7541 9.96021 17.6299 9.5033 17.3114 9.18089C16.9947 8.87054 16.6132 8.74122 16.1759 8.74122C15.7027 8.74122 15.314 8.91709 15.0423 9.19295Z" fill="white"/>
<defs>
<clipPath id="clip0">
<rect width="32.4265" height="14.0985" fill="white"/>
</clipPath>
</defs>
</svg>
