<svg width="31" height="15" viewBox="0 0 31 15" fill="none" xmlns="http://www.w3.org/2000/svg">
<path d="M9.02215 3.72083C8.90746 3.82772 8.79082 3.93362 8.67709 4.04247C8.27492 4.42784 7.97292 4.87646 7.86645 5.43491C7.71884 6.20909 7.87613 6.91903 8.33928 7.55544C8.5711 7.87364 8.84744 8.13791 9.21526 8.2899C9.25833 8.30755 9.30188 8.32324 9.35464 8.34383C9.30672 8.47572 9.26414 8.60565 9.21284 8.73215C8.91326 9.46759 8.52319 10.1481 7.9918 10.7384C7.89307 10.8483 7.78128 10.9478 7.66658 11.0419C7.27795 11.3601 6.84287 11.4832 6.35262 11.3381C6.10773 11.266 5.86575 11.1846 5.62232 11.1081C5.37114 11.0297 5.11706 10.9664 4.85234 10.9601C4.52469 10.9522 4.22125 11.0517 3.91877 11.1645C3.68889 11.2503 3.45756 11.3395 3.21993 11.3964C2.84583 11.4866 2.50754 11.3695 2.19732 11.1572C1.8842 10.9424 1.63689 10.661 1.42201 10.3506C0.884815 9.57301 0.475383 8.73215 0.224206 7.81529C0.00109969 6.99993 -0.0618154 6.17231 0.0640148 5.3344C0.174842 4.59552 0.446829 3.92872 0.960313 3.37762C1.49219 2.80692 2.14699 2.57207 2.91455 2.64954C3.29688 2.68778 3.66179 2.80006 4.02815 2.90792C4.18108 2.95303 4.33692 2.98686 4.49082 3.02657C4.7115 3.08345 4.92929 3.05746 5.14271 2.99421C5.44325 2.90498 5.74089 2.80349 6.04143 2.71278C6.48813 2.57844 6.9416 2.53971 7.40233 2.63041C7.99857 2.74759 8.46995 3.07266 8.86438 3.52667C8.91375 3.58355 8.96214 3.6414 9.01102 3.69926C9.01538 3.70465 9.0178 3.71152 9.02215 3.72083Z" fill="black"/>
<path d="M6.78042 0C6.78671 0.13287 6.8051 0.257896 6.79639 0.38096C6.74993 1.05316 6.48956 1.63121 6.03125 2.11759C5.82459 2.33724 5.59616 2.53042 5.31401 2.64319C5.07397 2.73928 4.81844 2.75988 4.56387 2.779C4.56 2.77949 4.55564 2.77508 4.55177 2.77262C4.58759 1.27232 5.33531 0.301532 6.78042 0Z" fill="black"/>
<path d="M12.2066 1.78421C12.798 1.68419 13.5724 1.59888 14.5577 1.59888C15.7686 1.59888 16.6552 1.88423 17.2185 2.39757C17.7393 2.85404 18.049 3.55271 18.049 4.40827C18.049 5.27806 17.7954 5.963 17.3168 6.46212C16.6692 7.1608 15.6132 7.51724 14.4169 7.51724C14.051 7.51724 13.7132 7.50302 13.4315 7.43144V11.2822H12.2066V1.78421V1.78421ZM13.431 6.41898C13.6987 6.49056 14.0365 6.519 14.4445 6.519C15.9225 6.519 16.8236 5.79189 16.8236 4.46515C16.8236 3.19577 15.9365 2.58241 14.5853 2.58241C14.0505 2.58241 13.6421 2.62507 13.431 2.68243V6.41898Z" fill="black"/>
<path d="M22.4681 11.2827L22.3693 10.4129H22.3272C21.9473 10.9547 21.2151 11.4396 20.2438 11.4396C18.864 11.4396 18.1603 10.4556 18.1603 9.45736C18.1603 7.78888 19.6243 6.87595 22.2571 6.89017V6.7475C22.2571 6.17679 22.1022 5.15011 20.7084 5.15011C20.0749 5.15011 19.4133 5.34966 18.9347 5.66345L18.653 4.83632C19.2163 4.46566 20.0328 4.22296 20.8913 4.22296C22.9748 4.22296 23.4815 5.66345 23.4815 7.04707V9.62847C23.4815 10.2276 23.5096 10.812 23.5943 11.2827H22.4681V11.2827ZM22.2851 7.75996C20.9334 7.73152 19.3993 7.97373 19.3993 9.31468C19.3993 10.1276 19.934 10.513 20.5676 10.513C21.4547 10.513 22.0175 9.94226 22.2145 9.35783C22.2566 9.22937 22.2851 9.0867 22.2851 8.95873V7.75996V7.75996Z" fill="black"/>
<path d="M25.127 4.3797L26.619 8.45847C26.7739 8.91494 26.9428 9.45671 27.0555 9.87052H27.0836C27.2104 9.45671 27.3513 8.92916 27.5202 8.43003L28.8719 4.3797H30.181L28.3226 9.30031C27.4355 11.6679 26.8305 12.88 25.9855 13.6218C25.3801 14.1636 24.7751 14.3778 24.4654 14.4347L24.1556 13.3791C24.4654 13.2791 24.8738 13.0795 25.2397 12.7657C25.5775 12.4946 26 12.0097 26.2817 11.3679C26.3378 11.2394 26.3799 11.1399 26.3799 11.0683C26.3799 10.9967 26.3519 10.8972 26.2957 10.7403L23.7757 4.3797H25.127Z" fill="black"/>
</svg>
