<svg width="23" height="17" viewBox="0 0 23 17" fill="none" xmlns="http://www.w3.org/2000/svg">
<path d="M16.8688 10.6241H18.4848C18.531 10.6241 18.6387 10.6093 18.6849 10.6093C18.9927 10.5502 19.2544 10.2843 19.2544 9.91495C19.2544 9.56038 18.9927 9.29445 18.6849 9.22058C18.6387 9.20581 18.5464 9.20581 18.4848 9.20581H16.8688V10.6241Z" fill="black"/>
<path d="M18.3001 0.829163C16.761 0.829163 15.4989 2.02583 15.4989 3.51797V6.31019H19.4545C19.5468 6.31019 19.6546 6.31019 19.7315 6.32497C20.6242 6.36929 21.286 6.8125 21.286 7.58073C21.286 8.18645 20.8397 8.70353 20.0086 8.80694V8.83649C20.9166 8.89559 21.6092 9.38312 21.6092 10.1366C21.6092 10.9491 20.8397 11.481 19.8239 11.481H15.4836V16.9472H19.593C21.1321 16.9472 22.3942 15.7506 22.3942 14.2584V0.829163H18.3001V0.829163Z" fill="black"/>
<path d="M19.0543 7.75801C19.0543 7.40344 18.7927 7.16707 18.4848 7.12274C18.454 7.12274 18.3771 7.10797 18.3309 7.10797H16.8688V8.40805H18.3309C18.3771 8.40805 18.4694 8.40805 18.4848 8.39328C18.7927 8.34896 19.0543 8.11258 19.0543 7.75801V7.75801Z" fill="black"/>
<path d="M2.81659 0.829163C1.27747 0.829163 0.0153913 2.02583 0.0153913 3.51797V10.1513C0.800342 10.5207 1.61608 10.7571 2.43181 10.7571C3.40145 10.7571 3.92476 10.1957 3.92476 9.42744V6.29542H6.32578V9.41266C6.32578 10.6241 5.54083 11.6139 2.87815 11.6139C1.26208 11.6139 0 11.2741 0 11.2741V16.9325H4.10945C5.64857 16.9325 6.91065 15.7358 6.91065 14.2437V0.829163H2.81659V0.829163Z" fill="black"/>
<path d="M10.5584 0.829163C9.01924 0.829163 7.75716 2.02583 7.75716 3.51797V7.0341C8.46516 6.45793 9.69645 6.08859 11.6819 6.17723C12.7439 6.22155 13.8829 6.50225 13.8829 6.50225V7.63982C13.3134 7.35912 12.6362 7.10797 11.7589 7.04888C10.2505 6.94546 9.34246 7.6546 9.34246 8.89559C9.34246 10.1513 10.2505 10.8605 11.7589 10.7423C12.6362 10.6832 13.3134 10.4173 13.8829 10.1513V11.2889C13.8829 11.2889 12.7593 11.5696 11.6819 11.6139C9.69645 11.7026 8.46516 11.3332 7.75716 10.7571V16.962H11.8666C13.4057 16.962 14.6678 15.7653 14.6678 14.2732V0.829163H10.5584V0.829163Z" fill="black"/>
</svg>
