<svg width="34" height="10" viewBox="0 0 34 10" fill="none" xmlns="http://www.w3.org/2000/svg">
<g clip-path="url(#clip0)">
<path fill-rule="evenodd" clip-rule="evenodd" d="M30.2705 0H23.7988C24.1468 2.21429 26.2344 4.28571 28.5308 4.28571H33.6803C33.7499 4.07143 33.7499 3.78571 33.7499 3.57143C33.7499 1.57143 32.2189 0 30.2705 0Z" fill="#020202"/>
<path fill-rule="evenodd" clip-rule="evenodd" d="M24.3555 4.64288V10H27.4869V7.14288H30.2704C31.8013 7.14288 33.1235 6.07145 33.541 4.64288H24.3555Z" fill="#020202"/>
<path fill-rule="evenodd" clip-rule="evenodd" d="M13.222 0V10H16.0055C16.0055 10 16.7014 10 17.0494 9.28571C18.9282 5.42857 19.4849 4.28571 19.4849 4.28571H19.8329V10H22.9643V0H20.1808C20.1808 0 19.4849 0.0714286 19.137 0.714286C17.5365 4 16.7014 5.71429 16.7014 5.71429H16.3535V0H13.222Z" fill="#020202"/>
<path fill-rule="evenodd" clip-rule="evenodd" d="M0 10V0H3.13144C3.13144 0 4.03608 0 4.5232 1.42857C5.77577 5.21429 5.91495 5.71429 5.91495 5.71429C5.91495 5.71429 6.1933 4.78571 7.3067 1.42857C7.79381 0 8.69845 0 8.69845 0H11.8299V10H8.69845V4.64286H8.35051L6.61082 10H5.21907L3.47938 4.64286H3.13144V10H0Z" fill="#020202"/>
</g>
<defs>
<clipPath id="clip0">
<rect width="33.75" height="10" fill="white"/>
</clipPath>
</defs>
</svg>
