<svg width="42" height="7" viewBox="0 0 42 7" fill="none" xmlns="http://www.w3.org/2000/svg">
<path fill-rule="evenodd" clip-rule="evenodd" d="M5.99485 0.748637C5.13989 1.39027 4.58368 2.38196 4.58368 3.5C4.58368 4.61804 5.13993 5.61942 5.99485 6.25141C5.36657 6.71807 4.5734 7 3.70817 7C1.65835 7 0 5.43475 0 3.5C0 1.56525 1.65835 0 3.70817 0C4.5734 0 5.36657 0.281934 5.99485 0.748637ZM8.29183 7C10.3416 7 12 5.43475 12 3.5C12 1.575 10.3416 0 8.29183 0C7.4266 0 6.63348 0.281935 6.00516 0.748681C6.86011 1.39032 7.41632 2.382 7.41632 3.50004C7.41632 4.61808 6.87039 5.60977 6.00516 6.25141C6.63348 6.71807 7.42665 7 8.29183 7Z" fill="black"/>
<path d="M7.14904 3.50004C7.14904 2.5348 6.70243 1.67061 5.99997 1.07468C5.29755 1.6706 4.85097 2.53478 4.85097 3.5C4.85097 4.46667 5.29874 5.33871 5.99989 5.92702C6.70928 5.33208 7.14904 4.46775 7.14904 3.50004Z" fill="black"/>
<path d="M11.4386 5.05951V5.0888H11.3715V5.25422H11.3389V5.0888H11.2718V5.05951H11.4386ZM11.6942 5.05951V5.25422H11.6616V5.09397L11.6017 5.23527H11.5655L11.5057 5.09569V5.25422H11.473V5.05951H11.5238L11.5836 5.19908L11.6434 5.05951H11.6942V5.05951Z" fill="#F79E1B"/>
<path d="M41.7462 4.06295V4.09224H41.6791V4.25766H41.6465V4.09224H41.5794V4.06295H41.7462ZM42 4.06295V4.25766H41.9674V4.09741L41.9075 4.2387H41.8731L41.8133 4.09913V4.25766H41.7806V4.06295H41.8314L41.8912 4.20252L41.951 4.06295H42ZM16.9022 1.87632C17.4587 1.87632 17.8521 2.2399 17.8521 2.76028V4.156H17.3391V2.92052C17.3391 2.54661 17.1361 2.33811 16.7953 2.33811C16.4653 2.33811 16.1898 2.54489 16.1898 2.92569V4.15772H15.6768V2.92225C15.6768 2.54833 15.4737 2.33984 15.1329 2.33984C14.803 2.33984 14.5275 2.54661 14.5275 2.92742V4.15944H14.0145V1.93663H14.522V2.20716C14.7106 1.94524 15.0006 1.87804 15.2399 1.87804C15.597 1.87804 15.8871 2.02795 16.0484 2.27436C16.2514 1.95386 16.6122 1.87632 16.9022 1.87632ZM20.8287 1.93318V4.156H20.3193V3.88891C20.1579 4.08535 19.9168 4.21286 19.5851 4.21286C18.9307 4.21286 18.4159 3.72349 18.4159 3.04459C18.4159 2.36568 18.9307 1.87632 19.5851 1.87632C19.9168 1.87632 20.1579 2.00555 20.3193 2.20371V1.93318H20.8287ZM19.6449 2.33294C19.2062 2.33294 18.9398 2.65517 18.9398 3.04459C18.9398 3.43401 19.2062 3.75623 19.6449 3.75623C20.0673 3.75623 20.3501 3.44952 20.3501 3.04459C20.3501 2.63966 20.0673 2.33294 19.6449 2.33294ZM23.3955 2.11239L23.1762 2.48975C23.0348 2.40704 22.7448 2.30021 22.4547 2.30021C22.1774 2.30021 22.0124 2.40704 22.0124 2.56384C22.0124 2.71892 22.1828 2.76372 22.3985 2.79301L22.6396 2.82748C23.149 2.8964 23.4517 3.10317 23.4517 3.48398C23.4517 3.91131 23.062 4.20941 22.3876 4.20941C22.1465 4.20941 21.726 4.16461 21.3852 3.92338L21.6227 3.5598C21.7912 3.68214 22.0124 3.78725 22.3931 3.78725C22.7411 3.78725 22.9242 3.68214 22.9242 3.51672C22.9242 3.39093 22.7973 3.30822 22.52 3.27032L22.2753 3.24102C21.7586 3.17382 21.4831 2.94637 21.4831 2.58969C21.4831 2.14857 21.8547 1.87804 22.4493 1.87804C22.8155 1.87804 23.1544 1.9642 23.3955 2.11239ZM25.6017 1.93318V2.3743H24.7062V3.34096C24.7062 3.64078 24.8729 3.75623 25.0778 3.75623C25.2355 3.75623 25.4095 3.68903 25.5491 3.60632L25.7521 3.99402C25.5636 4.11464 25.328 4.21458 25.0343 4.21458C24.505 4.21458 24.195 3.94405 24.195 3.3513V2.3743H23.7291V1.93318H24.195V1.26117H24.708V1.93318H25.6017ZM27.1752 1.87632C27.8296 1.87632 28.2773 2.35018 28.281 3.04287C28.281 3.1049 28.2755 3.16865 28.2719 3.22379H26.5443C26.6132 3.62355 26.9087 3.78897 27.2404 3.78897C27.4743 3.78897 27.7244 3.70109 27.9166 3.55463L28.1704 3.90097C27.8858 4.13359 27.5631 4.21458 27.2096 4.21458C26.5099 4.21458 26.0132 3.75106 26.0132 3.04631C26.0114 2.34845 26.4881 1.87632 27.1752 1.87632ZM27.1661 2.3071C26.8017 2.3071 26.6005 2.52938 26.5461 2.85505H27.7589C27.7027 2.5087 27.4906 2.3071 27.1661 2.3071ZM30.052 1.87632C30.2079 1.87632 30.3276 1.89527 30.4454 1.93835L30.3239 2.4191C30.217 2.36568 30.0611 2.33811 29.936 2.33811C29.6115 2.33811 29.3795 2.55695 29.3795 2.93431V4.156H28.8701V1.93318H29.3759V2.18303C29.5281 1.97281 29.7674 1.87632 30.052 1.87632ZM32.1639 1.87632C32.8183 1.87632 33.3331 2.36568 33.3331 3.04459C33.3331 3.72349 32.8183 4.21286 32.1639 4.21286C31.8322 4.21286 31.5929 4.08535 31.4315 3.89064V5.08303H30.9222V1.93318H31.4315V2.19682C31.5929 2.00383 31.8322 1.87632 32.1639 1.87632ZM32.1023 2.33294C31.6799 2.33294 31.3971 2.63966 31.3971 3.04459C31.3971 3.44952 31.6799 3.75623 32.1023 3.75623C32.541 3.75623 32.8074 3.43401 32.8074 3.04459C32.8074 2.65517 32.541 2.33294 32.1023 2.33294ZM36.1647 1.93318V4.156H35.6553V3.88891C35.494 4.08535 35.2529 4.21286 34.9211 4.21286C34.2667 4.21286 33.7519 3.72349 33.7519 3.04459C33.7519 2.36568 34.2667 1.87632 34.9211 1.87632C35.2529 1.87632 35.494 2.00555 35.6553 2.20371V1.93318H36.1647ZM34.9809 2.33294C34.5423 2.33294 34.2758 2.65517 34.2758 3.04459C34.2758 3.43401 34.5423 3.75623 34.9809 3.75623C35.4033 3.75623 35.6861 3.44952 35.6861 3.04459C35.6861 2.63966 35.4033 2.33294 34.9809 2.33294ZM38.7316 2.11239L38.5122 2.48975C38.3708 2.40704 38.0808 2.30021 37.7907 2.30021C37.5134 2.30021 37.3484 2.40704 37.3484 2.56384C37.3484 2.71892 37.5188 2.76372 37.7345 2.79301L37.9756 2.82748C38.485 2.8964 38.7878 3.10317 38.7878 3.48398C38.7878 3.91131 38.398 4.20941 37.7237 4.20941C37.4826 4.20941 37.062 4.16461 36.7212 3.92338L36.9587 3.5598C37.1273 3.68214 37.3484 3.78725 37.7291 3.78725C38.0772 3.78725 38.2602 3.68214 38.2602 3.51672C38.2602 3.39093 38.1334 3.30822 37.856 3.27032L37.6113 3.24102C37.0946 3.17382 36.8191 2.94637 36.8191 2.58969C36.8191 2.14857 37.1907 1.87804 37.7853 1.87804C38.1515 1.87804 38.4905 1.9642 38.7316 2.11239ZM41.1552 2.11239L40.9359 2.48975C40.7945 2.40704 40.5045 2.30021 40.2144 2.30021C39.9371 2.30021 39.7721 2.40704 39.7721 2.56384C39.7721 2.71892 39.9425 2.76372 40.1582 2.79301L40.3993 2.82748C40.9087 2.8964 41.2114 3.10317 41.2114 3.48398C41.2114 3.91131 40.8217 4.20941 40.1473 4.20941C39.9062 4.20941 39.4857 4.16461 39.1449 3.92338L39.3823 3.5598C39.5509 3.68214 39.7721 3.78725 40.1528 3.78725C40.5008 3.78725 40.6839 3.68214 40.6839 3.51672C40.6839 3.39093 40.557 3.30822 40.2797 3.27032L40.0349 3.24102C39.5183 3.17382 39.2428 2.94637 39.2428 2.58969C39.2428 2.14857 39.6144 1.87804 40.209 1.87804C40.5752 1.87804 40.9141 1.9642 41.1552 2.11239Z" fill="black"/>
</svg>
