<svg width="25" height="16" viewBox="0 0 25 16" fill="none" xmlns="http://www.w3.org/2000/svg">
<path d="M11.3733 6.09124C11.1245 6.09124 11.027 6.40108 10.9444 6.77026C10.9159 6.89813 10.8927 7.01587 10.8939 7.13114C10.8963 7.3646 11.0519 7.3646 11.0781 7.3646C11.166 7.3646 11.2455 7.30635 11.3128 7.21029C11.409 7.08011 11.4802 6.77441 11.4957 6.69218C11.5824 6.32178 11.5683 6.09124 11.3733 6.09124Z" fill="black"/>
<path d="M16.6229 4.68041C16.6241 4.6761 16.3657 5.81206 16.3657 5.81206L16.3551 5.86909H16.4953C16.712 5.86909 16.9224 5.86186 17.0941 5.77487C17.3026 5.6722 17.4649 5.45964 17.5201 5.20681C17.5806 4.93016 17.4939 4.71822 17.2836 4.63599C17.2711 4.63476 16.7382 4.5885 16.7382 4.5885L16.6349 4.57774L16.6313 4.62216L16.6229 4.68041Z" fill="black"/>
<path d="M19.2263 6.13994C18.9769 6.13994 18.8806 6.44672 18.7968 6.80928C18.7678 6.93839 18.7445 7.05596 18.7457 7.17016C18.7511 7.39947 18.905 7.39947 18.9299 7.39947C19.0178 7.39947 19.1705 7.34245 19.2347 7.25054C19.2689 7.20459 19.3001 7.13558 19.3269 7.06242C19.3335 7.03535 19.3402 7.00829 19.347 6.98123C19.3668 6.90133 19.3866 6.82137 19.4052 6.74089C19.4224 6.66635 19.4368 6.60041 19.4502 6.53786C19.4671 6.28703 19.3841 6.13994 19.2263 6.13994Z" fill="black"/>
<path d="M17.0334 9.95579C17.0334 9.95579 17.2534 9.85558 17.3715 9.82254C17.4928 9.79011 17.6739 9.77935 17.6739 9.77935L17.8154 9.30566H17.229L17.0334 9.95579Z" fill="black"/>
<path d="M17.0774 10.8023C17.1986 10.7747 17.3828 10.7513 17.3828 10.7513L17.5255 10.2776H16.9361L16.7341 10.9542C16.7341 10.9542 16.958 10.8389 17.0774 10.8023Z" fill="black"/>
<path d="M16.4661 11.8555H17.0543L17.2229 11.2845H16.6366L16.4661 11.8555Z" fill="black"/>
<path d="M14.714 10.0903H13.5751L13.505 10.3221H14.4912C14.5693 10.3128 14.6058 10.3173 14.6244 10.3196C14.6335 10.3208 14.6383 10.3214 14.6416 10.3196L14.714 10.0903Z" fill="black"/>
<path d="M14.9517 9.32121H13.8033L13.6369 9.88082C13.6369 9.88082 13.8597 9.67487 14.2412 9.60816C14.3279 9.59202 14.8692 9.5974 14.8692 9.5974L14.9517 9.32121Z" fill="black"/>
<path fill-rule="evenodd" clip-rule="evenodd" d="M10.6164 0C10.6017 0 10.587 0.000204335 10.5723 0.000610352H4.89595C4.02384 0.000610352 3.15219 0.718059 2.94899 1.60119L0.0426254 14.2054C-0.160572 15.0855 0.382403 15.8035 1.25223 15.8035H7.49158C7.5063 15.8035 7.52101 15.8033 7.53573 15.8029H20.1022C20.9743 15.8029 21.847 15.0849 22.052 14.2048L24.9567 1.60058C25.1616 0.717448 24.6198 0 23.7475 0H10.6164ZM5.63361 4.02471C5.69414 4.03916 5.88365 4.04577 6.52534 4.03916C6.52171 4.04501 6.52033 4.05134 6.51796 4.0623L6.51697 4.06683C6.43743 4.31535 5.96928 6.22578 5.96928 6.22578L5.91696 6.43158L5.91658 6.43292C5.80383 6.83373 5.67703 7.28445 5.19391 7.57292C4.91527 7.74521 4.50294 7.83958 4.06339 7.83958C3.72225 7.83958 3.11919 7.78363 2.90778 7.41031C2.84177 7.29258 2.80862 7.15333 2.80862 6.98273L2.88573 6.4076L2.92558 6.23177L3.38962 4.15858C3.38962 4.15858 3.41152 4.04454 3.41745 4.02471C3.42825 4.03916 3.58506 4.047 4.46964 4.03916C4.46857 4.04577 4.46735 4.05299 4.4631 4.06683C4.38172 4.30997 3.92727 6.14939 3.92727 6.14939C3.92727 6.15247 3.84057 6.69947 3.84057 6.69947L3.8459 6.79245C3.87373 7.06326 4.03951 7.20605 4.32408 7.20605C4.50112 7.20605 4.65382 7.15333 4.78462 7.04405C5.01504 6.85608 5.08288 6.56499 5.17611 6.15662C5.17733 6.15493 5.61034 4.13645 5.63361 4.02471ZM7.61383 5.69974C7.79908 5.60799 8.00532 5.58032 8.11817 5.58032C8.2911 5.58032 8.4794 5.62889 8.55788 5.83008C8.6321 6.00959 8.58282 6.22999 8.48472 6.66464L8.43423 6.88673C8.33384 7.3701 8.31726 7.45894 8.26068 7.79092L8.22388 7.81966C7.91087 7.81428 7.79908 7.81428 7.43253 7.83411L7.41885 7.80583C7.43399 7.73772 7.44985 7.67025 7.46572 7.60267C7.48285 7.5298 7.5 7.45679 7.51634 7.3827L7.56151 7.18936C7.62919 6.8898 7.6952 6.54092 7.70296 6.4341L7.70346 6.42958C7.71086 6.36324 7.72786 6.21078 7.55086 6.21078C7.47482 6.21078 7.39512 6.24797 7.31436 6.28578C7.27973 6.41159 7.21707 6.71662 7.17113 6.94021C7.15876 7.00043 7.1476 7.05475 7.13854 7.09806C7.07208 7.41262 7.05134 7.52393 7.02897 7.64399C7.02072 7.68824 7.01225 7.73368 7.00119 7.79092L6.97503 7.81966C6.65183 7.81428 6.53898 7.81428 6.16711 7.83411L6.15038 7.80168C6.21228 7.54654 6.27403 7.28834 6.3335 7.03259C6.4897 6.33865 6.52712 6.07322 6.56925 5.72019L6.59967 5.69974C6.62341 5.69637 6.64597 5.69316 6.66752 5.6901C6.97537 5.6464 7.07617 5.63209 7.44333 5.55696L7.47649 5.59416L7.41596 5.81502C7.43141 5.80577 7.44668 5.79652 7.46185 5.78733C7.51252 5.75663 7.56209 5.72659 7.61383 5.69974ZM9.83304 6.04795C9.85368 6.04393 9.87515 6.03975 9.89755 6.0354L9.9047 6.05215L9.91002 6.07029C9.89419 6.13701 9.878 6.20376 9.86176 6.27073C9.84148 6.35433 9.82112 6.43827 9.80128 6.52292C9.78525 6.5943 9.76866 6.66492 9.75215 6.73517C9.73326 6.81557 9.71448 6.89549 9.69679 6.97555C9.66832 7.1052 9.6467 7.20193 9.62995 7.27687C9.60544 7.38654 9.59135 7.44957 9.5815 7.50088C9.57137 7.54964 9.56587 7.58516 9.55703 7.64222C9.55127 7.67941 9.54409 7.72577 9.53329 7.7909L9.51549 7.80597L9.49891 7.81964C9.43778 7.8193 9.38362 7.81861 9.33434 7.81799C9.23085 7.81669 9.14885 7.81565 9.06879 7.81857C8.96064 7.81955 8.85516 7.82464 8.70347 7.83197C8.68919 7.83265 8.67449 7.83336 8.65935 7.83409L8.64992 7.81857L8.63867 7.80166C8.68079 7.64123 8.70609 7.57253 8.72767 7.51392C8.73072 7.50566 8.73369 7.4976 8.73662 7.48951C8.76095 7.42403 8.78301 7.35917 8.82574 7.17305C8.88095 6.9299 8.91487 6.76069 8.93693 6.61176C8.95608 6.50571 8.96855 6.41133 8.98163 6.31236C8.98631 6.27693 8.99107 6.2409 8.99624 6.20354L9.00993 6.19263L9.02484 6.17895C9.21313 6.15251 9.33252 6.13453 9.45496 6.11471C9.56426 6.10029 9.67415 6.07889 9.83304 6.04795ZM9.20481 5.49559C9.41394 5.34973 9.72467 5.31623 9.9017 5.42182C10.0763 5.52633 10.0503 5.72736 9.84223 5.87337C9.63493 6.02046 9.32299 6.05104 9.14899 5.94838C8.97256 5.8414 8.99629 5.63853 9.20481 5.49559ZM11.9741 7.47142C11.6977 7.76743 11.3306 7.86718 10.9724 7.86718C10.8321 7.86718 10.6146 7.8492 10.4638 7.78373C9.97478 7.58377 10.0527 7.04645 10.1203 6.74797C10.1874 6.45503 10.2986 6.14949 10.5392 5.92432C10.8743 5.61217 11.3032 5.59419 11.4833 5.59419C11.7827 5.59419 12.0714 5.66197 12.2347 5.8733C12.3423 6.01193 12.4279 6.23955 12.3179 6.72707C12.2842 6.87416 12.1867 7.23135 11.9741 7.47142ZM13.2413 7.79097L13.2133 7.81971C12.8907 7.81433 12.7796 7.81433 12.4071 7.83415L12.3905 7.80172C12.4522 7.54659 12.514 7.28838 12.5735 7.03263C12.7297 6.33855 12.7654 6.07327 12.8094 5.72023L12.8372 5.69979C12.8641 5.69595 12.8896 5.69234 12.9137 5.68891C13.2146 5.64616 13.3186 5.6314 13.6821 5.55685L13.7123 5.5942L13.6559 5.81506C13.7207 5.77479 13.7867 5.73468 13.8526 5.69979C14.0368 5.60788 14.2441 5.58037 14.3571 5.58037C14.5276 5.58037 14.7171 5.62894 14.7978 5.83012C14.8708 6.00964 14.821 6.22988 14.7224 6.66453L14.6731 6.88678C14.5697 7.36999 14.5548 7.45883 14.4996 7.79097L14.4616 7.81971C14.1467 7.81433 14.0392 7.81433 13.6714 7.83415L13.6577 7.80587C13.6751 7.7276 13.6938 7.65026 13.7125 7.57261C13.7277 7.5097 13.7429 7.44658 13.7575 7.3826L13.8003 7.18925C13.8692 6.8897 13.9352 6.54096 13.9417 6.43399L13.9422 6.42996C13.9497 6.36389 13.9671 6.21067 13.7908 6.21067C13.7133 6.21067 13.6359 6.24699 13.556 6.28448L13.5531 6.28583C13.5214 6.4044 13.4631 6.68219 13.4171 6.90094C13.4012 6.9768 13.3868 7.04555 13.3755 7.09811C13.3072 7.43222 13.288 7.53704 13.2642 7.66669C13.2574 7.70403 13.2502 7.74343 13.2413 7.79097ZM16.077 7.04408C16.077 7.04408 15.9385 7.72003 15.9153 7.83408C15.8131 7.8227 15.5702 7.8227 14.9778 7.82993L15.5868 5.2958L15.8299 4.15569C15.8299 4.15569 15.8477 4.06686 15.8571 4.01691C15.9689 4.03074 16.241 4.0332 16.9195 4.02474L17.1808 4.02229C17.7108 4.02474 18.17 4.03074 18.4006 4.35673C18.4915 4.47922 18.523 4.63599 18.523 4.79445C18.523 4.9151 18.5051 5.03575 18.4807 5.13719C18.3869 5.55094 18.1765 5.89137 17.8688 6.12191C17.4167 6.45804 16.8398 6.45804 16.3289 6.45804H16.2747C16.2379 6.47849 16.2011 6.53013 16.2011 6.53013C16.194 6.54811 16.077 7.04408 16.077 7.04408ZM18.3144 7.8143C17.8278 7.62279 17.9063 7.08547 17.9746 6.7913C18.0394 6.49943 18.1535 6.19512 18.391 5.97303C18.7292 5.66195 19.1225 5.57619 19.2899 5.64274C19.4209 5.69361 19.5057 5.77522 19.5643 5.87082C19.5661 5.8563 19.568 5.84179 19.5699 5.82712C19.5718 5.81213 19.5738 5.79698 19.5757 5.78153L19.6043 5.75801C19.9809 5.70406 20.0855 5.68839 20.477 5.61507L20.4883 5.64812C20.4163 5.94828 20.3464 6.24676 20.2763 6.54816C20.1379 7.15306 20.0844 7.47161 20.0312 7.78756L20.0248 7.82567L19.9905 7.8521C19.6113 7.84918 19.5027 7.84918 19.1527 7.86409L19.1307 7.83535L19.1654 7.70102C19.0373 7.80984 18.899 7.88546 18.7498 7.8936C18.6085 7.90083 18.4695 7.881 18.3144 7.8143ZM23.0603 5.57725L23.0905 5.61214C23.0905 5.61214 21.5309 8.31563 21.3259 8.76166L21.2938 8.79885H21.2987L20.9939 9.32664C20.8976 9.50738 20.7188 9.64187 20.4342 9.6431L19.9495 9.63464L20.0908 9.15973H20.1858C20.2353 9.15973 20.2709 9.15727 20.2982 9.14359C20.3232 9.13513 20.341 9.11531 20.3606 9.08641L20.5322 8.81222L20.5305 8.80853C20.6723 8.59286 20.7519 8.44863 20.8436 8.28244C20.9094 8.16322 20.9814 8.0327 21.0871 7.85639C21.0492 7.45961 21.0286 7.28848 21.001 7.06052C20.9958 7.01695 20.9903 6.97131 20.9843 6.92162C20.9736 6.83117 20.9612 6.73992 20.9487 6.64838C20.9356 6.55263 20.9225 6.45657 20.9113 6.36079C20.9014 6.28004 20.894 6.21879 20.8882 6.17011C20.8665 5.98859 20.8657 5.98179 20.8287 5.79104L20.8263 5.78566C20.8272 5.78036 20.8277 5.77521 20.8283 5.77022C20.8292 5.76102 20.8302 5.75233 20.8328 5.74416L20.862 5.71773C21.1346 5.68241 21.214 5.66611 21.3931 5.62934C21.4603 5.61555 21.5415 5.59888 21.6522 5.57725L21.6861 5.61214L21.7401 6.66633C21.7407 6.6778 21.741 6.68696 21.7413 6.69591C21.7416 6.70531 21.7419 6.71447 21.7425 6.72581C21.8407 6.50444 21.8926 6.41145 21.945 6.31757C22.0076 6.20522 22.071 6.09158 22.2154 5.75507L22.2166 5.76107C22.2184 5.75507 22.2195 5.74847 22.2207 5.74416L22.2469 5.71773C22.6028 5.66916 22.6729 5.65656 23.0603 5.57725ZM17.769 11.8495H17.9746L17.8154 12.3746H17.6122L17.5641 12.5368H16.8398L16.8891 12.3746H15.4193L15.566 11.8884H15.7157L16.487 9.30566L16.6407 8.78509H17.3787L17.3014 9.04745C17.3014 9.04745 17.4981 8.90452 17.6847 8.85595C17.8389 8.81445 18.6006 8.79508 18.8557 8.78971V8.78817H19.6446L19.6523 9.08465C19.647 9.13506 19.6898 9.15857 19.7819 9.15857H19.9422L19.7956 9.6484H19.3696C19.0012 9.67484 18.861 9.51515 18.8704 9.33502L18.8627 9.04361L18.7825 9.30566H18.53L17.769 11.8495ZM19.3184 10.2776H18.4707L18.615 9.78596H20.9743L20.8275 10.2776H20.0362L19.9125 10.6763H20.7063L20.5744 11.1122H19.7171L19.5644 11.2959H19.9125L19.9975 11.8452C20 11.8594 20.0019 11.8724 20.0036 11.8843C20.0083 11.9178 20.0118 11.9419 20.0249 11.9592C20.0427 11.9784 20.1472 11.9887 20.2079 11.9887H20.3136L20.1527 12.523H19.8847C19.8484 12.523 19.7959 12.5207 19.7252 12.5176C19.7159 12.5172 19.7063 12.5168 19.6964 12.5163C19.6372 12.5111 19.5908 12.4835 19.5484 12.4583C19.5338 12.4496 19.5197 12.4412 19.5057 12.4341C19.4562 12.4108 19.3832 12.3507 19.3654 12.248L19.2816 11.6999L18.8914 12.2397C18.7677 12.4108 18.6003 12.5411 18.3167 12.5411H17.7713L17.9146 12.0637H18.1231C18.1837 12.0637 18.236 12.0397 18.2758 12.0193C18.3155 12.0025 18.3513 11.9815 18.3911 11.922L18.9603 11.1122H18.2086L18.3376 10.6763H19.1966L19.3184 10.2776ZM11.5082 11.3013L11.3104 11.9665C11.2866 12.0398 11.504 12.0493 11.5824 12.0493L11.9888 11.9929L11.8255 12.541H10.9087C10.8345 12.541 10.7799 12.5302 10.7002 12.5122C10.6229 12.4924 10.5885 12.4575 10.5546 12.4048C10.5494 12.3963 10.5436 12.3879 10.5379 12.3796C10.5071 12.3349 10.4747 12.2879 10.5047 12.1898L10.7684 11.3097H10.3164L10.4667 10.8065H10.9201L11.0407 10.3971H10.5885L10.7329 9.91803H12.7232L12.5758 10.3971H11.7803L11.6561 10.8065H12.4701L12.3215 11.3013H11.5082ZM11.1975 9.1585L11.4036 8.7821H12.214L12.0715 9.05583H12.8878L12.7398 9.55718H11.6246L11.504 9.66277C11.4733 9.69276 11.4544 9.6979 11.4304 9.70447C11.4136 9.70908 11.3941 9.71439 11.3662 9.72947C11.3033 9.76129 11.1714 9.82492 10.9997 9.82492H10.6426L10.7863 9.34339H10.8938C10.9842 9.34339 11.0465 9.33509 11.078 9.31527C11.1137 9.29175 11.1534 9.24072 11.1975 9.1585ZM13.0737 11.7983C13.0446 11.8998 13.0309 11.9485 13.05 11.9761C13.0653 11.9995 13.1023 12.0272 13.1534 12.0272L13.6316 11.9815L13.4676 12.541H12.9335C12.763 12.541 12.6395 12.5368 12.5526 12.5302C12.5348 12.5287 12.5167 12.5278 12.4989 12.5269C12.4341 12.5237 12.3713 12.5206 12.3257 12.4858C12.32 12.4806 12.3139 12.4753 12.3076 12.4697C12.2598 12.4277 12.2006 12.3756 12.2022 12.323C12.2075 12.2679 12.2306 12.1759 12.2652 12.0493L13.2383 8.78805H13.9333L13.8317 9.1417C13.8317 9.1417 14.0517 8.96403 14.2056 8.9004C14.3581 8.84338 14.7046 8.79173 14.7046 8.79173L15.8298 8.78513L15.4467 10.0752C15.3819 10.2956 15.3064 10.4386 15.2594 10.5039C15.2173 10.5694 15.1674 10.6264 15.0699 10.6805C14.9755 10.7321 14.8888 10.7609 14.8091 10.7693C14.7349 10.7747 14.6208 10.7766 14.4628 10.7789H13.3785L13.0737 11.7983ZM14.6219 11.1584C14.6428 11.1427 14.6577 11.1218 14.6671 11.0875L14.7348 10.869H15.2655L15.2007 11.1788C15.1733 11.2761 15.1496 11.348 15.077 11.4106C15.001 11.4759 14.9118 11.5445 14.7033 11.5445L14.3171 11.5606L14.3143 11.9106C14.3108 11.9894 14.3269 11.9991 14.3415 12.0077C14.3451 12.0099 14.3486 12.012 14.3517 12.0151C14.369 12.0326 14.3846 12.0393 14.4008 12.0463L14.4022 12.0469L14.5246 12.0397L14.8928 12.0192L14.7401 12.5303H14.3171C14.0213 12.5303 13.8015 12.523 13.7302 12.466C13.6589 12.4204 13.6495 12.3633 13.6505 12.2648L13.6779 10.8996H14.3529L14.3433 11.1788H14.5056C14.5614 11.1788 14.5988 11.1734 14.6219 11.1584Z" fill="black"/>
</svg>
