<svg width="28" height="19" viewBox="0 0 28 19" fill="none" xmlns="http://www.w3.org/2000/svg">
<g clip-path="url(#clip0)">
<path d="M21.1433 1.64813C22.1116 1.37683 23.0745 1.10553 24.043 0.834227C25.0113 0.562926 25.9742 0.291625 26.9425 0.0203239C27.5213 -0.140309 28 0.72341 28 1.94702C28 3.05982 28 4.17277 28 5.28556C28 6.39851 28 7.5113 28 8.6241C28 9.84771 27.527 10.717 26.9425 10.5508C25.9742 10.2795 25.0113 10.0082 24.043 9.73138C23.0745 9.46008 22.1117 9.18878 21.1433 8.91748C20.5645 8.75147 20.0858 8.0205 20.0858 7.28415C20.0858 6.61418 20.0858 5.94987 20.0858 5.27989C20.0858 4.61544 20.0858 3.94561 20.0858 3.27564C20.0859 2.54511 20.5645 1.81428 21.1433 1.64813Z" fill="#040404"/>
<path d="M6.85657 1.64728C5.88827 1.37598 4.92534 1.10468 3.95703 0.833378C2.98873 0.562077 2.02028 0.290776 1.0575 0.0194751C0.473021 -0.146527 0 0.72271 0 1.94632C0 3.05912 0 4.17207 0 5.28486C0 6.39781 0 7.5106 0 8.6234C0 9.84701 0.473021 10.7163 1.0575 10.5501C2.02595 10.2788 2.98873 10.0075 3.95718 9.73068C4.92549 9.45938 5.88841 9.18808 6.85672 8.91678C7.43552 8.75077 7.90854 8.0198 7.90854 7.28345C7.90854 6.61348 7.90854 5.94917 7.90854 5.27919C7.90854 4.61474 7.90854 3.94491 7.90854 3.27494C7.90854 2.54426 7.43552 1.81343 6.85657 1.64728Z" fill="#040404"/>
<path d="M16.0454 1.64813C16.5296 1.37683 17.0138 1.10553 17.4924 0.834227C17.9766 0.562926 18.4607 0.291625 18.9449 0.0203239C19.2343 -0.140309 19.4737 0.72341 19.4737 1.94702C19.4737 3.05982 19.4737 4.17277 19.4737 5.28556C19.4737 6.39851 19.4737 7.5113 19.4737 8.6241C19.4737 9.84771 19.2343 10.717 18.9449 10.5508C18.4607 10.2795 17.9766 10.0082 17.4924 9.73138C17.0082 9.46008 16.5241 9.18878 16.0454 8.91748C15.756 8.75147 15.5166 8.0205 15.5166 7.28415C15.5166 6.61418 15.5166 5.94987 15.5166 5.27989C15.5166 4.61544 15.5166 3.94561 15.5166 3.27564C15.5168 2.54511 15.756 1.81428 16.0454 1.64813Z" fill="#040404"/>
<path d="M11.9548 1.6481C11.4705 1.3768 10.9863 1.1055 10.5022 0.834195C10.018 0.562894 9.53379 0.291592 9.05524 0.0202908C8.76569 -0.140193 8.52634 0.723527 8.52634 1.94714C8.52634 3.05994 8.52634 4.17289 8.52634 5.28569C8.52634 6.39863 8.52634 7.51143 8.52634 8.62423C8.52634 9.84784 8.76569 10.7171 9.05509 10.5509C9.53931 10.2796 10.0235 10.0083 10.5021 9.73151C10.9863 9.46021 11.4704 9.18891 11.9546 8.9176C12.244 8.7516 12.4834 8.02062 12.4834 7.28428C12.4834 6.6143 12.4834 5.94999 12.4834 5.28002C12.4834 4.61556 12.4834 3.94573 12.4834 3.27576C12.4834 2.54508 12.2442 1.81425 11.9548 1.6481Z" fill="#040404"/>
<path d="M14.3867 1.64813C14.459 1.37683 14.5314 1.10553 14.6038 0.834227C14.6761 0.562926 14.7484 0.291625 14.8208 0.0203239C14.8654 -0.140309 14.8987 0.72341 14.8987 1.94702C14.8987 3.05982 14.8987 4.17277 14.8987 5.28556C14.8987 6.39851 14.8987 7.5113 14.8987 8.6241C14.8987 9.84771 14.8654 10.717 14.8208 10.5508C14.7485 10.2795 14.6762 10.0082 14.6038 9.73138C14.5314 9.46008 14.459 9.18878 14.3867 8.91748C14.3422 8.75147 14.3088 8.0205 14.3088 7.28415C14.3088 6.61418 14.3088 5.94987 14.3088 5.27989C14.3088 4.61544 14.3088 3.94561 14.3088 3.27564C14.3088 2.54511 14.3422 1.81428 14.3867 1.64813Z" fill="#040404"/>
<path d="M13.6133 1.64813C13.541 1.37683 13.4686 1.10553 13.3962 0.834227C13.3239 0.562926 13.2516 0.291625 13.1792 0.0203239C13.1346 -0.140309 13.1012 0.72341 13.1012 1.94702C13.1012 3.05982 13.1012 4.17277 13.1012 5.28556C13.1012 6.39851 13.1012 7.5113 13.1012 8.6241C13.1012 9.84771 13.1346 10.717 13.1792 10.5508C13.2515 10.2795 13.3238 10.0082 13.3962 9.73138C13.4686 9.46008 13.541 9.18878 13.6133 8.91748C13.6579 8.75147 13.6912 8.0205 13.6912 7.28415C13.6912 6.61418 13.6912 5.94987 13.6912 5.27989C13.6912 4.61544 13.6912 3.94561 13.6912 3.27564C13.6912 2.54511 13.6523 1.81428 13.6133 1.64813Z" fill="#040404"/>
<path d="M24.4936 14.5761C24.438 14.5651 24.3712 14.5596 24.2932 14.5541C24.2209 14.5486 24.1374 14.543 24.0483 14.543C23.7701 14.543 23.5141 14.5708 23.2747 14.6151C23.0409 14.6594 22.8295 14.7202 22.6514 14.7923V18.0201H23.5141V15.3128C23.5698 15.2906 23.6364 15.274 23.7089 15.263C23.7869 15.2519 23.8647 15.2464 23.9427 15.2464C24.015 15.2464 24.0818 15.2519 24.1486 15.2575C24.2154 15.2685 24.2766 15.2797 24.3322 15.2962L24.4936 14.5761ZM21.4827 15.9437L20.0525 16.1374C20.058 15.927 20.0915 15.7498 20.1582 15.6059C20.225 15.4619 20.3141 15.3568 20.4309 15.2848C20.5477 15.2127 20.6813 15.1741 20.8316 15.1741C20.9652 15.1741 21.082 15.2018 21.1767 15.2627C21.2768 15.318 21.3493 15.4066 21.4049 15.5174C21.4549 15.6281 21.4827 15.772 21.4827 15.9437ZM22.3175 16.0931C22.3175 15.8606 22.2841 15.6502 22.2229 15.4619C22.1561 15.2737 22.0615 15.1131 21.939 14.9747C21.8165 14.8418 21.6607 14.7366 21.4771 14.6646C21.2934 14.5926 21.0874 14.5539 20.8482 14.5539C20.5978 14.5539 20.3752 14.5982 20.1803 14.6813C19.9855 14.7699 19.8186 14.8917 19.6851 15.0467C19.546 15.2017 19.4457 15.39 19.3734 15.6059C19.3011 15.8218 19.2676 16.0599 19.2676 16.3201C19.2676 16.5804 19.3066 16.824 19.3789 17.0399C19.4512 17.2559 19.5626 17.4441 19.7073 17.5991C19.852 17.7597 20.03 17.8814 20.2471 17.9645C20.4642 18.0476 20.7091 18.0919 20.993 18.0919C21.16 18.0919 21.3214 18.0808 21.4772 18.0586C21.633 18.0365 21.7777 18.0088 21.9112 17.97C22.0448 17.9312 22.1561 17.8925 22.2507 17.8427L22.0058 17.2004C21.9223 17.2447 21.8332 17.2835 21.7276 17.3111C21.6218 17.3443 21.516 17.3664 21.3992 17.3886C21.2824 17.4052 21.1711 17.4164 21.0541 17.4164C20.887 17.4164 20.7369 17.3886 20.6033 17.3333C20.4698 17.278 20.364 17.1949 20.2749 17.0842C20.1914 16.9736 20.1358 16.8351 20.1079 16.669L22.3063 16.37C22.3118 16.3201 22.3175 16.2703 22.3175 16.226C22.3175 16.1872 22.3175 16.1374 22.3175 16.0931ZM18.9114 18.0198V13.0702H18.0488V18.02H18.9114V18.0198ZM17.5145 18.0198V13.0702H16.6518V18.02H17.5145V18.0198ZM15.4664 15.9437L14.0361 16.1374C14.0417 15.927 14.0751 15.7498 14.1419 15.6059C14.2087 15.4619 14.2978 15.3568 14.4146 15.2848C14.5314 15.2127 14.665 15.1741 14.8153 15.1741C14.9489 15.1741 15.0657 15.2018 15.1604 15.2627C15.2605 15.318 15.333 15.4066 15.3886 15.5174C15.4386 15.6281 15.4664 15.772 15.4664 15.9437ZM16.3013 16.0931C16.3013 15.8606 16.2678 15.6502 16.2067 15.4619C16.1399 15.2737 16.0509 15.1131 15.9229 14.9747C15.8005 14.8418 15.6445 14.7366 15.4609 14.6646C15.2773 14.5926 15.0712 14.5539 14.832 14.5539C14.5816 14.5539 14.359 14.5982 14.1642 14.6813C13.9694 14.7699 13.8025 14.8917 13.6689 15.0467C13.5298 15.2017 13.4296 15.39 13.3572 15.6059C13.2849 15.8218 13.2515 16.0599 13.2515 16.3201C13.2515 16.5804 13.2905 16.824 13.3628 17.0399C13.4351 17.2559 13.5464 17.4441 13.6912 17.5991C13.8358 17.7597 14.0139 17.8814 14.231 17.9645C14.4481 18.0476 14.6929 18.0919 14.9767 18.0919C15.1435 18.0919 15.3051 18.0808 15.4609 18.0586C15.6167 18.0365 15.7613 18.0088 15.8951 17.97C16.0286 17.9312 16.1399 17.8925 16.24 17.8427L15.9952 17.2004C15.9116 17.2447 15.8226 17.2835 15.717 17.3111C15.6112 17.3443 15.5054 17.3664 15.3886 17.3886C15.2717 17.4052 15.1604 17.4164 15.0434 17.4164C14.8764 17.4164 14.7263 17.3886 14.5927 17.3333C14.4591 17.278 14.3478 17.1949 14.2643 17.0842C14.1808 16.9736 14.1252 16.8351 14.0974 16.669L16.2958 16.37C16.3013 16.3201 16.307 16.2703 16.307 16.226C16.3013 16.1872 16.3013 16.1374 16.3013 16.0931ZM13.1289 17.9755V17.2613C13.1012 17.2778 13.0622 17.289 13.0176 17.2945C12.9731 17.3056 12.9286 17.3111 12.8841 17.3111C12.8118 17.3111 12.745 17.3 12.6837 17.2778C12.6225 17.2556 12.5779 17.217 12.5446 17.1615C12.5112 17.1062 12.4946 17.0341 12.4946 16.94V15.2624H13.1346V14.6201H12.4946V13.618L11.6431 13.8671V14.6257H11.2034V15.2679H11.6431V17.0009C11.6431 17.3552 11.7211 17.6265 11.8824 17.8037C12.0438 17.9809 12.2887 18.075 12.6171 18.075C12.6894 18.075 12.7562 18.0695 12.823 18.0585C12.8897 18.0529 12.951 18.0419 13.0066 18.0252C13.051 18.0088 13.0955 17.9922 13.1289 17.9755ZM10.9416 18.0198V14.6204H10.079V18.0198H10.9416ZM11.0086 13.6128C11.0086 13.5242 10.9863 13.4468 10.9418 13.3803C10.8973 13.3082 10.8417 13.2584 10.7637 13.2141C10.6914 13.1698 10.6079 13.1533 10.5133 13.1533C10.4242 13.1533 10.3407 13.1755 10.2629 13.2141C10.1906 13.2529 10.1293 13.3082 10.0848 13.3803C10.0403 13.4522 10.018 13.5242 10.018 13.6128C10.018 13.7014 10.0403 13.7789 10.0848 13.8508C10.1293 13.9227 10.1849 13.9782 10.2629 14.0168C10.3352 14.0556 10.4187 14.0777 10.5133 14.0834C10.6079 14.0834 10.6914 14.0613 10.7637 14.0168C10.836 13.9725 10.8973 13.9172 10.9418 13.8508C10.9806 13.7788 11.0029 13.7014 11.0086 13.6128ZM9.61162 18.0198V15.6945C9.61162 15.4508 9.55604 15.2405 9.45026 15.0688C9.34448 14.9026 9.18312 14.7697 8.9605 14.6811C8.74341 14.5926 8.46522 14.5483 8.12562 14.5483C7.84742 14.5483 7.59134 14.5705 7.36872 14.6148C7.14611 14.6591 6.94575 14.7199 6.76213 14.792V18.0198H7.62481V15.318C7.68053 15.2958 7.75837 15.2737 7.84742 15.2627C7.93647 15.2461 8.03672 15.2405 8.13682 15.2405C8.33165 15.2405 8.48195 15.2903 8.58758 15.3844C8.68783 15.4785 8.74341 15.6169 8.74341 15.7886V18.0254H9.61162V18.0198ZM6.30569 17.8483V14.6204H5.44302V17.3112C5.39297 17.3278 5.32618 17.35 5.24266 17.361C5.15362 17.3776 5.05904 17.3831 4.94221 17.3831C4.75291 17.3831 4.60828 17.3388 4.51371 17.2557C4.41346 17.1672 4.36908 17.0343 4.36908 16.8516V14.6203H3.50641V16.8349C3.50641 17.1282 3.56214 17.3664 3.66777 17.5546C3.77355 17.7429 3.93491 17.8758 4.152 17.9644C4.36355 18.0529 4.63069 18.0972 4.94236 18.0917C5.12045 18.0917 5.29854 18.0807 5.46558 18.0585C5.63814 18.0364 5.79398 18.0087 5.9386 17.9699C6.08308 17.9424 6.20544 17.8981 6.30569 17.8483Z" fill="#040404"/>
</g>
<defs>
<clipPath id="clip0">
<rect width="28" height="18.0923" fill="white"/>
</clipPath>
</defs>
</svg>
