<svg width="40" height="11" viewBox="0 0 40 11" fill="none" xmlns="http://www.w3.org/2000/svg">
<path d="M4.51302 0.127563L0 10.1147H5.40271L6.07249 8.52235H7.60346L8.27324 10.1147H14.2201V8.89937L14.75 10.1147H17.8262L18.3561 8.87369V10.1147H30.724L32.2278 8.5637L33.636 10.1147L39.9884 10.1276L35.4611 5.14902L39.9884 0.127563H33.7345L32.2706 1.64991L30.9068 0.127563H17.4521L16.2968 2.70533L15.1143 0.127563H9.72291V1.30155L9.12315 0.127563C9.12315 0.127563 4.51302 0.127563 4.51302 0.127563ZM5.55841 1.54575H8.19194L11.1854 8.3181V1.54575H14.0704L16.3825 6.40149L18.5134 1.54575H21.3839V8.7122H19.6372L19.623 3.09661L17.0765 8.7122H15.5141L12.9534 3.09661V8.7122H9.36014L8.67893 7.10557H4.99859L4.31879 8.71079H2.39357C2.39357 8.71079 5.55841 1.54575 5.55841 1.54575ZM22.9819 1.54575H30.0841L32.2564 3.89217L34.4986 1.54575H36.6708L33.3704 5.14761L36.6708 8.70796H34.4001L32.2278 6.33429L29.9742 8.70796H22.9819V1.54575ZM6.83954 2.75828L5.62702 5.62034H8.05066L6.83954 2.75828ZM24.7358 3.02957V4.3378H28.6103V5.79593H24.7358V7.22415H29.0816L31.101 5.12051L29.1673 3.02832H24.7358V3.02957Z" fill="#26A6D1"/>
</svg>
