<svg width="31" height="15" viewBox="0 0 31 15" fill="none" xmlns="http://www.w3.org/2000/svg">
<path d="M9.02215 3.8484C8.90746 3.95528 8.79082 4.06118 8.67709 4.17003C8.27492 4.5554 7.97292 5.00402 7.86645 5.56247C7.71884 6.33665 7.87613 7.0466 8.33928 7.683C8.5711 8.0012 8.84744 8.26547 9.21526 8.41747C9.25833 8.43512 9.30188 8.45081 9.35464 8.4714C9.30672 8.60329 9.26414 8.73322 9.21284 8.85971C8.91326 9.59516 8.52319 10.2757 7.9918 10.866C7.89307 10.9758 7.78128 11.0754 7.66658 11.1695C7.27795 11.4877 6.84287 11.6108 6.35262 11.4656C6.10773 11.3936 5.86575 11.3122 5.62232 11.2357C5.37114 11.1572 5.11706 11.094 4.85234 11.0876C4.52469 11.0798 4.22125 11.1793 3.91877 11.2921C3.68889 11.3779 3.45756 11.4671 3.21993 11.524C2.84583 11.6142 2.50754 11.497 2.19732 11.2847C1.8842 11.07 1.63689 10.7885 1.42201 10.4782C0.884815 9.70057 0.475383 8.85971 0.224206 7.94286C0.00109969 7.1275 -0.0618154 6.29988 0.0640148 5.46196C0.174842 4.72308 0.446829 4.05628 0.960313 3.50519C1.49219 2.93448 2.14699 2.69963 2.91455 2.7771C3.29688 2.81534 3.66179 2.92762 4.02815 3.03548C4.18108 3.08059 4.33692 3.11442 4.49082 3.15414C4.7115 3.21101 4.92929 3.18503 5.14271 3.12178C5.44325 3.03254 5.74089 2.93105 6.04143 2.84035C6.48813 2.70601 6.9416 2.66727 7.40233 2.75798C7.99857 2.87516 8.46995 3.20022 8.86438 3.65424C8.91375 3.71111 8.96214 3.76897 9.01102 3.82682C9.01538 3.83222 9.0178 3.83908 9.02215 3.8484Z" fill="black"/>
<path d="M6.78042 0.127563C6.78671 0.260434 6.8051 0.385459 6.79639 0.508523C6.74993 1.18072 6.48956 1.75878 6.03125 2.24515C5.82459 2.4648 5.59616 2.65798 5.31401 2.77075C5.07397 2.86685 4.81844 2.88744 4.56387 2.90656C4.56 2.90705 4.55564 2.90264 4.55177 2.90019C4.58759 1.39988 5.33531 0.429096 6.78042 0.127563Z" fill="black"/>
<path d="M12.2066 1.91177C12.798 1.81175 13.5724 1.72644 14.5577 1.72644C15.7686 1.72644 16.6552 2.01179 17.2185 2.52513C17.7393 2.9816 18.049 3.68027 18.049 4.53584C18.049 5.40562 17.7954 6.09057 17.3168 6.58969C16.6692 7.28836 15.6132 7.64481 14.4169 7.64481C14.051 7.64481 13.7132 7.63059 13.4315 7.559V11.4098H12.2066V1.91177V1.91177ZM13.431 6.54654C13.6987 6.61813 14.0365 6.64656 14.4445 6.64656C15.9225 6.64656 16.8236 5.91945 16.8236 4.59271C16.8236 3.32334 15.9365 2.70997 14.5853 2.70997C14.0505 2.70997 13.6421 2.75263 13.431 2.80999V6.54654Z" fill="black"/>
<path d="M22.4681 11.4103L22.3693 10.5405H22.3272C21.9473 11.0823 21.2151 11.5672 20.2438 11.5672C18.864 11.5672 18.1603 10.5832 18.1603 9.58492C18.1603 7.91645 19.6243 7.00352 22.2571 7.01773V6.87506C22.2571 6.30435 22.1022 5.27767 20.7084 5.27767C20.0749 5.27767 19.4133 5.47723 18.9347 5.79101L18.653 4.96389C19.2163 4.59322 20.0328 4.35052 20.8913 4.35052C22.9748 4.35052 23.4815 5.79101 23.4815 7.17463V9.75604C23.4815 10.3552 23.5096 10.9396 23.5943 11.4103H22.4681V11.4103ZM22.2851 7.88752C20.9334 7.85908 19.3993 8.10129 19.3993 9.44225C19.3993 10.2552 19.934 10.6405 20.5676 10.6405C21.4547 10.6405 22.0175 10.0698 22.2145 9.48539C22.2566 9.35694 22.2851 9.21426 22.2851 9.08629V7.88752V7.88752Z" fill="black"/>
<path d="M25.127 4.50726L26.619 8.58604C26.7739 9.0425 26.9428 9.58428 27.0555 9.99809H27.0836C27.2104 9.58428 27.3513 9.05672 27.5202 8.5576L28.8719 4.50726H30.181L28.3226 9.42787C27.4355 11.7955 26.8305 13.0075 25.9855 13.7493C25.3801 14.2911 24.7751 14.5054 24.4654 14.5623L24.1556 13.5066C24.4654 13.4066 24.8738 13.2071 25.2397 12.8933C25.5775 12.6222 26 12.1372 26.2817 11.4955C26.3378 11.367 26.3799 11.2675 26.3799 11.1959C26.3799 11.1243 26.3519 11.0248 26.2957 10.8679L23.7757 4.50726H25.127Z" fill="black"/>
</svg>
