<svg width="22" height="18" viewBox="0 0 22 18" fill="none" xmlns="http://www.w3.org/2000/svg">
<path d="M12.8883 17.3742C17.652 17.3968 22 13.53 22 8.82583C22 3.68161 17.652 0.125853 12.8883 0.127564H8.78866C3.96793 0.125853 0 3.68267 0 8.82583C0 13.531 3.96793 17.3968 8.78866 17.3742H12.8883Z" fill="#0079BE"/>
<path d="M8.80806 0.840332C4.40301 0.841701 0.833465 4.37487 0.832428 8.7355C0.833465 13.0954 4.40298 16.6282 8.80806 16.6296C13.2142 16.6282 16.7844 13.0954 16.785 8.7355C16.7844 4.37487 13.2142 0.841701 8.80806 0.840332ZM3.75253 8.7355C3.75668 6.60465 5.10157 4.78759 6.99804 4.06552V13.4044C5.10157 12.6827 3.75664 10.8667 3.75253 8.7355ZM10.6174 13.4064V4.06521C12.5146 4.78554 13.8615 6.60362 13.865 8.7355C13.8615 10.868 12.5146 12.6847 10.6174 13.4064Z" fill="white"/>
</svg>
