<svg width="33" height="14" viewBox="0 0 33 14" fill="none" xmlns="http://www.w3.org/2000/svg">
<path d="M15.4921 2.06295V5.39314H17.5176C18.0001 5.39314 18.3989 5.2291 18.7141 4.90009C19.0385 4.57201 19.2003 4.18055 19.2003 3.72758C19.2003 3.28392 19.0385 2.89713 18.7141 2.56812C18.398 2.23072 17.9991 2.06202 17.5176 2.06202L15.4921 2.06295ZM15.4921 6.56564V10.429H14.2827V0.890442H17.4909C18.3061 0.890442 18.9972 1.16633 19.5679 1.71623C20.1478 2.26614 20.4364 2.93721 20.4364 3.72758C20.4364 4.53566 20.1478 5.21139 19.5679 5.75197C19.0073 6.29442 18.3144 6.56471 17.4909 6.56471L15.4921 6.56564Z" fill="#5F6368"/>
<path d="M21.6586 8.42977C21.6586 8.75039 21.7919 9.01603 22.0602 9.22946C22.3277 9.44197 22.641 9.54915 23.0004 9.54915C23.5095 9.54915 23.9617 9.35808 24.3605 8.97688C24.7594 8.59474 24.9588 8.14643 24.9588 7.63194C24.582 7.32903 24.0554 7.17897 23.3808 7.17897C22.8901 7.17897 22.4802 7.29921 22.1521 7.53874C21.8241 7.77827 21.6586 8.07466 21.6586 8.42977ZM23.2237 3.68848C24.1179 3.68848 24.8237 3.92988 25.3411 4.41454C25.8585 4.8992 26.1158 5.56188 26.1158 6.40538V10.429H24.9588V9.52306H24.9064C24.4065 10.2687 23.7411 10.6415 22.9085 10.6415C22.1981 10.6415 21.6035 10.429 21.1265 10.0031C20.6486 9.57618 20.4097 9.04399 20.4097 8.40367C20.4097 7.72888 20.6606 7.19202 21.1651 6.79311C21.6697 6.39326 22.3424 6.1938 23.1833 6.1938C23.9019 6.1938 24.4938 6.32709 24.9579 6.59365V6.31404C24.9579 5.88809 24.7915 5.52646 24.4588 5.22914C24.1252 4.93089 23.7365 4.78269 23.2889 4.78269C22.6135 4.78269 22.0795 5.07069 21.6853 5.64856L20.6192 4.9691C21.2083 4.11442 22.0749 3.68848 23.2237 3.68848Z" fill="#5F6368"/>
<path d="M32.7571 3.90094L28.719 13.3052H27.471L28.9699 10.0151L26.3139 3.90094H27.629L29.5488 8.59004H29.5746L31.4411 3.90094H32.7571Z" fill="#5F6368"/>
<path d="M10.6044 5.73289C10.6044 5.34702 10.5722 4.9742 10.5116 4.61816H5.40926V6.72924H8.3317C8.20671 7.41708 7.82716 8.00241 7.25187 8.3948V9.76583H8.99614C10.0162 8.81142 10.6044 7.40031 10.6044 5.73289Z" fill="#4285F4"/>
<path d="M5.40926 11.0893C6.86956 11.0893 8.09828 10.6037 8.99523 9.76577L7.25095 8.39474C6.76571 8.72561 6.14079 8.91947 5.40926 8.91947C3.99858 8.91947 2.80112 7.95574 2.37194 6.65741H0.576202V8.06945C1.4658 9.85897 3.29646 11.0893 5.40926 11.0893Z" fill="#34A853"/>
<path d="M2.37288 6.65647C2.26351 6.3256 2.20286 5.97236 2.20286 5.60793C2.20286 5.2435 2.2626 4.89026 2.37288 4.55938V3.14734H0.576217C0.208615 3.88738 0 4.72249 0 5.60793C0 6.49337 0.207696 7.32941 0.576217 8.06852L2.37288 6.65647Z" fill="#FABB05"/>
<path d="M5.40922 2.29642C6.206 2.29642 6.92098 2.57417 7.48434 3.11849V3.11942L9.02827 1.55545C8.09088 0.670944 6.8686 0.127563 5.40922 0.127563C3.2955 0.127563 1.46576 1.35693 0.575241 3.14738L2.3719 4.55942C2.80108 3.26016 3.99854 2.29642 5.40922 2.29642Z" fill="#E94235"/>
</svg>
