<svg width="26" height="19" viewBox="0 0 26 19" fill="none" xmlns="http://www.w3.org/2000/svg">
<path d="M25.18 14.8623C25.18 16.9306 23.4254 18.6148 21.2706 18.6148H0V3.75251C0 1.6842 1.7546 0 3.90936 0H25.18V14.8623V14.8623Z" fill="white"/>
<path d="M18.254 11.0507H19.87C19.9162 11.0507 20.024 11.0359 20.0701 11.0359C20.378 10.9768 20.6396 10.7109 20.6396 10.3415C20.6396 9.98695 20.378 9.72103 20.0701 9.64716C20.024 9.63239 19.9316 9.63239 19.87 9.63239H18.254V11.0507Z" fill="url(#paint0_linear)"/>
<path d="M19.6853 1.25574C18.1462 1.25574 16.8842 2.4524 16.8842 3.94455V6.73677H20.8397C20.932 6.73677 21.0398 6.73677 21.1167 6.75154C22.0094 6.79586 22.6712 7.23907 22.6712 8.0073C22.6712 8.61302 22.2249 9.1301 21.3938 9.23352V9.26307C22.3018 9.32216 22.9944 9.80969 22.9944 10.5631C22.9944 11.3757 22.2249 11.9076 21.2091 11.9076H16.8688V17.3738H20.9782C22.5173 17.3738 23.7794 16.1771 23.7794 14.685V1.25574H19.6853V1.25574Z" fill="url(#paint1_linear)"/>
<path d="M20.4395 8.18459C20.4395 7.83002 20.1779 7.59364 19.87 7.54932C19.8393 7.54932 19.7623 7.53455 19.7161 7.53455H18.254V8.83463H19.7161C19.7623 8.83463 19.8546 8.83463 19.87 8.81985C20.1779 8.77553 20.4395 8.53915 20.4395 8.18459V8.18459Z" fill="url(#paint2_linear)"/>
<path d="M4.2018 1.25574C2.66268 1.25574 1.4006 2.4524 1.4006 3.94455V10.5779C2.18555 10.9473 3.00128 11.1836 3.81702 11.1836C4.78666 11.1836 5.30996 10.6222 5.30996 9.85401V6.72199H7.71099V9.83924C7.71099 11.0507 6.92604 12.0405 4.26336 12.0405C2.64729 12.0405 1.38521 11.7007 1.38521 11.7007V17.359H5.49466C7.03378 17.359 8.29586 16.1624 8.29586 14.6702V1.25574H4.2018V1.25574Z" fill="url(#paint3_linear)"/>
<path d="M11.9436 1.25574C10.4044 1.25574 9.14237 2.4524 9.14237 3.94455V7.46068C9.85037 6.8845 11.0817 6.51516 13.0671 6.60381C14.1291 6.64813 15.2681 6.92883 15.2681 6.92883V8.0664C14.6986 7.7857 14.0214 7.53455 13.1441 7.47545C11.6357 7.37204 10.7277 8.08117 10.7277 9.32216C10.7277 10.5779 11.6357 11.2871 13.1441 11.1689C14.0214 11.1098 14.6986 10.8438 15.2681 10.5779V11.7155C15.2681 11.7155 14.1445 11.9962 13.0671 12.0405C11.0817 12.1292 9.85037 11.7598 9.14237 11.1836V17.3886H13.2518C14.7909 17.3886 16.053 16.1919 16.053 14.6998V1.25574H11.9436V1.25574Z" fill="url(#paint4_linear)"/>
<defs>
<linearGradient id="paint0_linear" x1="16.8816" y1="10.3433" x2="23.798" y2="10.3433" gradientUnits="userSpaceOnUse">
<stop stop-color="#007940"/>
<stop offset="0.2285" stop-color="#00873F"/>
<stop offset="0.7433" stop-color="#40A737"/>
<stop offset="1" stop-color="#5CB531"/>
</linearGradient>
<linearGradient id="paint1_linear" x1="16.8814" y1="9.30832" x2="23.7983" y2="9.30832" gradientUnits="userSpaceOnUse">
<stop stop-color="#007940"/>
<stop offset="0.2285" stop-color="#00873F"/>
<stop offset="0.7433" stop-color="#40A737"/>
<stop offset="1" stop-color="#5CB531"/>
</linearGradient>
<linearGradient id="paint2_linear" x1="16.8814" y1="8.18274" x2="23.7981" y2="8.18274" gradientUnits="userSpaceOnUse">
<stop stop-color="#007940"/>
<stop offset="0.2285" stop-color="#00873F"/>
<stop offset="0.7433" stop-color="#40A737"/>
<stop offset="1" stop-color="#5CB531"/>
</linearGradient>
<linearGradient id="paint3_linear" x1="1.39734" y1="9.30832" x2="8.42081" y2="9.30832" gradientUnits="userSpaceOnUse">
<stop stop-color="#1F286F"/>
<stop offset="0.4751" stop-color="#004E94"/>
<stop offset="0.8261" stop-color="#0066B1"/>
<stop offset="1" stop-color="#006FBC"/>
</linearGradient>
<linearGradient id="paint4_linear" x1="9.10258" y1="9.30832" x2="15.924" y2="9.30832" gradientUnits="userSpaceOnUse">
<stop stop-color="#6C2C2F"/>
<stop offset="0.1735" stop-color="#882730"/>
<stop offset="0.5731" stop-color="#BE1833"/>
<stop offset="0.8585" stop-color="#DC0436"/>
<stop offset="1" stop-color="#E60039"/>
</linearGradient>
</defs>
</svg>
