<svg width="22" height="14" viewBox="0 0 22 14" fill="none" xmlns="http://www.w3.org/2000/svg">
<path d="M13.9743 1.58246H8.02576V12.2769H13.9743V1.58246Z" fill="#FF5F00"/>
<path d="M8.40341 6.92967C8.40341 4.75681 9.42313 2.82951 10.9906 1.58251C9.83871 0.675492 8.38458 0.127563 6.79831 0.127563C3.04031 0.127563 0 3.16957 0 6.92967C0 10.6898 3.04031 13.7318 6.79831 13.7318C8.38458 13.7318 9.83871 13.1839 10.9906 12.2769C9.42322 11.0487 8.40341 9.10253 8.40341 6.92967Z" fill="#EB001B"/>
<path d="M22 6.92967C22 10.6898 18.9596 13.7318 15.2017 13.7318C13.6155 13.7318 12.1614 13.1839 11.0094 12.2769C12.5957 11.0299 13.5966 9.10262 13.5966 6.92976C13.5966 4.75689 12.5769 2.82959 11.0094 1.58259C12.1614 0.675492 13.6154 0.127563 15.2017 0.127563C18.9596 0.127563 22 3.18851 22 6.92967Z" fill="#F79E1B"/>
</svg>
