<svg width="43" height="8" viewBox="0 0 43 8" fill="none" xmlns="http://www.w3.org/2000/svg">
<path d="M3.72299 7.20528C5.77915 7.20528 7.44599 5.62088 7.44599 3.66642C7.44599 1.71196 5.77915 0.127563 3.72299 0.127563C1.66684 0.127563 0 1.71196 0 3.66642C0 5.62088 1.66684 7.20528 3.72299 7.20528Z" fill="#EB001B"/>
<path d="M8.21991 7.20528C10.2761 7.20528 11.9429 5.62088 11.9429 3.66642C11.9429 1.71196 10.2761 0.127563 8.21991 0.127563C6.16376 0.127563 4.49692 1.71196 4.49692 3.66642C4.49692 5.62088 6.16376 7.20528 8.21991 7.20528Z" fill="#F79E1B"/>
<path d="M5.97052 0.840149C6.86694 1.48582 7.44413 2.50902 7.44413 3.65924C7.44413 4.80946 6.86694 5.83442 5.97052 6.48009C5.07411 5.83442 4.49692 4.81122 4.49692 3.65924C4.49692 2.50726 5.07597 1.48582 5.97052 0.840149Z" fill="#FF5F00"/>
<path d="M11.7109 6.0163V6.04629H11.6423V6.21564H11.6089V6.04629H11.5402V6.0163H11.7109ZM11.9726 6.0163V6.21564H11.9392V6.05158L11.878 6.19624H11.8409L11.7796 6.05334V6.21564H11.7462V6.0163H11.7982L11.8594 6.15919L11.9207 6.0163H11.9726V6.0163Z" fill="#F79E1B"/>
<path d="M42.7402 4.99605V5.02604H42.6715V5.1954H42.6381V5.02604H42.5694V4.99605H42.7402ZM43 4.99605V5.1954H42.9666V5.03133L42.9054 5.17599H42.8701L42.8088 5.0331V5.1954H42.7754V4.99605H42.8274L42.8886 5.13894L42.9499 4.99605H43ZM17.3047 2.75736C17.8744 2.75736 18.2772 3.12959 18.2772 3.66236V5.09131H17.7519V3.82643C17.7519 3.44361 17.5441 3.23015 17.1952 3.23015C16.8574 3.23015 16.5753 3.44184 16.5753 3.83172V5.09308H16.0501V3.82819C16.0501 3.44537 15.8422 3.23191 15.4933 3.23191C15.1555 3.23191 14.8734 3.44361 14.8734 3.83348V5.09484H14.3482V2.8191H14.8678V3.09607C15.0609 2.82793 15.3578 2.75912 15.6028 2.75912C15.9684 2.75912 16.2653 2.9126 16.4305 3.16488C16.6384 2.83675 17.0077 2.75736 17.3047 2.75736ZM21.3246 2.81558V5.09131H20.8031V4.81787C20.6379 5.01898 20.3911 5.14953 20.0514 5.14953C19.3815 5.14953 18.8544 4.64851 18.8544 3.95344C18.8544 3.25837 19.3815 2.75736 20.0514 2.75736C20.3911 2.75736 20.6379 2.88967 20.8031 3.09255V2.81558H21.3246ZM20.1127 3.22486C19.6636 3.22486 19.3907 3.55475 19.3907 3.95344C19.3907 4.35214 19.6636 4.68203 20.1127 4.68203C20.5451 4.68203 20.8346 4.36802 20.8346 3.95344C20.8346 3.53887 20.5451 3.22486 20.1127 3.22486ZM23.9526 2.99905L23.728 3.38539C23.5833 3.30071 23.2863 3.19134 22.9894 3.19134C22.7054 3.19134 22.5365 3.30071 22.5365 3.46125C22.5365 3.62002 22.711 3.66589 22.9318 3.69588L23.1787 3.73116C23.7002 3.80173 24.0101 4.01342 24.0101 4.4033C24.0101 4.8408 23.6111 5.146 22.9207 5.146C22.6739 5.146 22.2433 5.10013 21.8944 4.85315L22.1375 4.48092C22.3101 4.60617 22.5365 4.71379 22.9263 4.71379C23.2826 4.71379 23.4701 4.60617 23.4701 4.43682C23.4701 4.30804 23.3402 4.22336 23.0562 4.18455L22.8056 4.15456C22.2767 4.08575 21.9946 3.85289 21.9946 3.48771C21.9946 3.03609 22.3751 2.75912 22.9838 2.75912C23.3587 2.75912 23.7058 2.84733 23.9526 2.99905ZM26.2113 2.81558V3.2672H25.2944V4.25688C25.2944 4.56384 25.4652 4.68203 25.6749 4.68203C25.8364 4.68203 26.0145 4.61323 26.1575 4.52855L26.3653 4.92548C26.1723 5.04897 25.931 5.15129 25.6304 5.15129C25.0884 5.15129 24.7711 4.87432 24.7711 4.26746V3.2672H24.2941V2.81558H24.7711V2.12756H25.2963V2.81558H26.2113ZM27.8222 2.75736C28.4922 2.75736 28.9506 3.2425 28.9543 3.95168C28.9543 4.01519 28.9488 4.08046 28.9451 4.13691H27.1764C27.2469 4.54619 27.5494 4.71555 27.889 4.71555C28.1284 4.71555 28.3846 4.62558 28.5813 4.47563L28.8411 4.83022C28.5497 5.06838 28.2194 5.15129 27.8575 5.15129C27.1411 5.15129 26.6326 4.67674 26.6326 3.95521C26.6307 3.24073 27.1188 2.75736 27.8222 2.75736ZM27.8129 3.19839C27.4399 3.19839 27.2339 3.42597 27.1782 3.75939H28.4198C28.3623 3.4048 28.1451 3.19839 27.8129 3.19839ZM30.7676 2.75736C30.9272 2.75736 31.0497 2.77677 31.1703 2.82087L31.046 3.31306C30.9365 3.25837 30.7769 3.23015 30.6488 3.23015C30.3166 3.23015 30.079 3.45419 30.079 3.84054V5.09131H29.5575V2.81558H30.0753V3.07138C30.2312 2.85615 30.4762 2.75736 30.7676 2.75736ZM32.9297 2.75736C33.5997 2.75736 34.1268 3.25837 34.1268 3.95344C34.1268 4.64851 33.5997 5.14953 32.9297 5.14953C32.5901 5.14953 32.3451 5.01898 32.1799 4.81964V6.04042H31.6584V2.81558H32.1799V3.08549C32.3451 2.88791 32.5901 2.75736 32.9297 2.75736ZM32.8666 3.22486C32.4342 3.22486 32.1447 3.53887 32.1447 3.95344C32.1447 4.36802 32.4342 4.68203 32.8666 4.68203C33.3158 4.68203 33.5886 4.35214 33.5886 3.95344C33.5886 3.55475 33.3158 3.22486 32.8666 3.22486ZM37.0258 2.81558V5.09131H36.5043V4.81787C36.3391 5.01898 36.0922 5.14953 35.7526 5.14953C35.0826 5.14953 34.5555 4.64851 34.5555 3.95344C34.5555 3.25837 35.0826 2.75736 35.7526 2.75736C36.0922 2.75736 36.3391 2.88967 36.5043 3.09255V2.81558H37.0258ZM35.8138 3.22486C35.3647 3.22486 35.0919 3.55475 35.0919 3.95344C35.0919 4.35214 35.3647 4.68203 35.8138 4.68203C36.2463 4.68203 36.5358 4.36802 36.5358 3.95344C36.5358 3.53887 36.2463 3.22486 35.8138 3.22486ZM39.6538 2.99905L39.4292 3.38539C39.2844 3.30071 38.9875 3.19134 38.6905 3.19134C38.4066 3.19134 38.2377 3.30071 38.2377 3.46125C38.2377 3.62002 38.4121 3.66589 38.633 3.69588L38.8798 3.73116C39.4014 3.80173 39.7113 4.01342 39.7113 4.4033C39.7113 4.8408 39.3123 5.146 38.6219 5.146C38.375 5.146 37.9445 5.10013 37.5955 4.85315L37.8387 4.48092C38.0113 4.60617 38.2377 4.71379 38.6274 4.71379C38.9838 4.71379 39.1712 4.60617 39.1712 4.43682C39.1712 4.30804 39.0413 4.22336 38.7574 4.18455L38.5068 4.15456C37.9779 4.08575 37.6958 3.85289 37.6958 3.48771C37.6958 3.03609 38.0762 2.75912 38.685 2.75912C39.0599 2.75912 39.4069 2.84733 39.6538 2.99905ZM42.1351 2.99905L41.9106 3.38539C41.7658 3.30071 41.4689 3.19134 41.1719 3.19134C40.888 3.19134 40.7191 3.30071 40.7191 3.46125C40.7191 3.62002 40.8935 3.66589 41.1144 3.69588L41.3612 3.73116C41.8827 3.80173 42.1927 4.01342 42.1927 4.4033C42.1927 4.8408 41.7937 5.146 41.1032 5.146C40.8564 5.146 40.4258 5.10013 40.0769 4.85315L40.32 4.48092C40.4926 4.60617 40.7191 4.71379 41.1088 4.71379C41.4652 4.71379 41.6526 4.60617 41.6526 4.43682C41.6526 4.30804 41.5227 4.22336 41.2387 4.18455L40.9882 4.15456C40.4592 4.08575 40.1771 3.85289 40.1771 3.48771C40.1771 3.03609 40.5576 2.75912 41.1663 2.75912C41.5412 2.75912 41.8883 2.84733 42.1351 2.99905Z" fill="black"/>
</svg>
