<svg width="33" height="16" viewBox="0 0 33 16" fill="none" xmlns="http://www.w3.org/2000/svg">
<g clip-path="url(#clip0)">
<path d="M26.841 3.75518L26.7798 0.268921H27.9278V4.66726H26.2759L25.1333 1.05686H25.1045L25.1692 4.66726H24.0302V0.268921H25.7487L26.8158 3.75518H26.841Z" fill="#204CAC"/>
<path d="M5.98686 0.679272L5.35345 4.70692H4.10281L4.95936 0.268921H7.02336L7.87991 4.70692H6.63287L6.01385 0.679272H5.98686Z" fill="#204CAC"/>
<path d="M11.3906 3.66552L11.9647 0.268921H13.8523L13.9567 4.70692H12.796L12.7636 0.717203H12.7403L11.9665 4.70692H10.7932L10.0159 0.717203H9.98886L9.96007 4.70692H8.80121L8.90738 0.268921H10.7968L11.3673 3.66552H11.3906Z" fill="#204CAC"/>
<path d="M21.1078 4.04139C21.4335 4.04139 21.5307 3.82932 21.5541 3.72242C21.5631 3.67414 21.5631 3.61035 21.5631 3.55173V0.268921H22.7399V3.45173C22.7399 3.53449 22.7309 3.7 22.7273 3.74483C22.6482 4.57416 21.9608 4.83968 21.1078 4.83968C20.2567 4.83968 19.5729 4.57416 19.4937 3.74483C19.4883 3.7 19.4793 3.53449 19.4829 3.45173V0.268921H20.6561V3.55345C20.6525 3.61035 20.6579 3.67587 20.6651 3.72414C20.6867 3.83104 20.7875 4.04139 21.1078 4.04139Z" fill="#204CAC"/>
<path d="M2.15037 3.4552C2.19356 3.56382 2.18096 3.70175 2.15937 3.78451C2.12158 3.93279 2.01721 4.08452 1.7059 4.08452C1.41798 4.08452 1.24344 3.92417 1.24344 3.68106L1.23984 3.25002H0V3.59313C0 4.58452 0.811562 4.8828 1.68071 4.8828C2.52286 4.8828 3.21206 4.61039 3.32003 3.87072C3.37761 3.48623 3.33622 3.2345 3.31643 3.1414C3.12208 2.20863 1.3604 1.93621 1.22904 1.41551C1.20565 1.32413 1.21105 1.23275 1.22364 1.18275C1.25963 1.03447 1.3604 0.881022 1.64832 0.881022C1.92184 0.881022 2.08199 1.04482 2.08199 1.28103V1.55862H3.23905V1.24654C3.23905 0.277566 2.33032 0.127563 1.67351 0.127563C0.851151 0.127563 0.176348 0.389636 0.0539842 1.11551C0.0215937 1.31206 0.0179947 1.48793 0.0629815 1.71207C0.264522 2.6207 1.91284 2.88105 2.15037 3.4552Z" fill="#204CAC"/>
<path d="M17.2191 3.45C17.2659 3.55517 17.2461 3.69138 17.2281 3.77414C17.1921 3.91897 17.086 4.06725 16.7819 4.06725C16.494 4.06725 16.3212 3.90862 16.3212 3.66896V3.24137H15.0886V3.58276C15.0886 4.56553 15.8947 4.85691 16.7585 4.85691C17.5844 4.85691 18.2682 4.58794 18.378 3.85345C18.4338 3.47413 18.3924 3.22585 18.3726 3.1293C18.1801 2.21032 16.4382 1.9379 16.3104 1.42066C16.287 1.33445 16.2942 1.24134 16.3032 1.19307C16.3338 1.05169 16.4346 0.898235 16.7225 0.898235C16.9942 0.898235 17.1508 1.05686 17.1508 1.29134V1.56549H18.2934V1.25858C18.2934 0.301674 17.3955 0.151672 16.7495 0.151672C15.9325 0.151672 15.2631 0.406849 15.1461 1.12755C15.1084 1.32065 15.1048 1.49479 15.1551 1.71894C15.3531 2.62067 16.9834 2.8793 17.2191 3.45Z" fill="#204CAC"/>
<path d="M30.7764 3.99665C31.1093 3.99665 31.228 3.79664 31.2496 3.67595C31.2568 3.62595 31.2604 3.56216 31.2604 3.50698V2.86387H30.7872V2.21386H32.4283V3.40698C32.4283 3.48974 32.4247 3.55181 32.4121 3.70009C32.3347 4.50355 31.6023 4.79666 30.78 4.79666C29.9612 4.79666 29.2306 4.50355 29.1569 3.70009C29.1389 3.55181 29.1389 3.48974 29.1389 3.40698V1.53799C29.1389 1.45868 29.1479 1.3173 29.1605 1.24661C29.2612 0.412112 29.9612 0.148315 30.7818 0.148315C31.6041 0.148315 32.3275 0.408664 32.4103 1.24661C32.4283 1.38282 32.4193 1.53799 32.4193 1.53799L32.4211 1.68282H31.2532V1.43454C31.2532 1.43454 31.2532 1.32764 31.237 1.26385C31.2172 1.16902 31.1273 0.943154 30.7728 0.943154C30.4399 0.943154 30.3391 1.15695 30.3139 1.26385C30.2995 1.32247 30.2959 1.40351 30.2959 1.47592V3.50698C30.2959 3.56388 30.2995 3.62595 30.3049 3.67595C30.3229 3.79664 30.4381 3.99665 30.7764 3.99665Z" fill="#204CAC"/>
</g>
<path d="M7.15335 15.1276V7.96887H8.3572V8.49474C8.52275 8.23784 8.84665 8.05507 9.10038 7.97404C9.3559 7.893 9.61863 7.85162 9.88855 7.85162C10.5544 7.85162 11.2651 8.06714 11.8428 8.64129C12.3754 9.17233 12.6579 9.81889 12.6579 10.5844C12.6579 10.9362 12.5878 11.281 12.4474 11.6137C12.3124 11.9465 12.1181 12.2396 11.8698 12.4844C11.607 12.7482 11.3083 12.9465 10.979 13.081C10.6515 13.2138 10.3438 13.2827 9.94253 13.2827C9.64922 13.2827 9.3667 13.2396 9.10038 13.15C8.83766 13.0689 8.47056 12.8672 8.3374 12.6448V15.1259H7.15335V15.1276ZM9.84896 8.86888C9.40989 8.86888 9.0266 8.99992 8.71349 9.30854C8.39319 9.62924 8.26722 10.0879 8.26722 10.5448C8.26722 11.031 8.38779 11.5051 8.7009 11.8258C9.0158 12.1482 9.40449 12.2603 9.85796 12.2603C10.3168 12.2603 10.6893 12.081 10.9718 11.8069C11.2975 11.4896 11.4505 11.0603 11.4505 10.5965C11.4505 10.0896 11.2939 9.63958 10.979 9.32061C10.7109 9.04474 10.3186 8.86888 9.84896 8.86888Z" fill="#204CAC"/>
<path d="M20.9103 15.1276L21.927 12.8707L19.5967 7.96887H20.8653L22.5208 11.6482L24.0486 7.96887H25.3244L22.1573 15.1276H20.9103Z" fill="#204CAC"/>
<path d="M17.6857 13.1895V12.6482C17.5525 12.8688 17.1854 13.0723 16.9227 13.1533C16.6546 13.243 16.3703 13.2861 16.0805 13.2861C15.6775 13.2861 15.3716 13.2188 15.0423 13.0844C14.7147 12.9499 14.416 12.7499 14.1533 12.4861C13.9032 12.243 13.7088 11.9481 13.5757 11.6171C13.4353 11.2826 13.3633 10.9395 13.3633 10.5878C13.3633 9.82225 13.6459 9.17569 14.1803 8.64465C14.7597 8.06878 15.4705 7.85498 16.1363 7.85498C16.4045 7.85498 16.6672 7.89636 16.9227 7.9774C17.1782 8.05843 17.5021 8.24119 17.6677 8.49809V7.97222H18.8697V13.193H17.6857V13.1895ZM15.0423 9.32052C14.7273 9.64121 14.5726 10.0912 14.5726 10.5964C14.5726 11.0585 14.7273 11.4895 15.0512 11.8068C15.3338 12.0809 15.7063 12.2602 16.1651 12.2602C16.6186 12.2602 17.0055 12.1481 17.3204 11.8257C17.6353 11.505 17.7541 11.0309 17.7541 10.5447C17.7541 10.0878 17.6299 9.63087 17.3114 9.30845C16.9947 8.9981 16.6132 8.86879 16.1759 8.86879C15.7027 8.86879 15.314 9.04465 15.0423 9.32052Z" fill="#204CAC"/>
<defs>
<clipPath id="clip0">
<rect width="32.4265" height="14.0985" fill="white" transform="translate(0 0.127563)"/>
</clipPath>
</defs>
</svg>
