<svg width="25" height="16" viewBox="0 0 25 16" fill="none" xmlns="http://www.w3.org/2000/svg">
<path d="M4.89595 0.128113H11.1359C12.007 0.128113 12.5487 0.845561 12.3455 1.72869L9.44036 14.3329C9.23534 15.213 8.36323 15.931 7.49158 15.931H1.25223C0.382403 15.931 -0.160572 15.213 0.0426254 14.3329L2.94899 1.72869C3.15219 0.845561 4.02384 0.128113 4.89595 0.128113Z" fill="#E21836"/>
<path d="M10.6164 0.127502H17.7922C18.6631 0.127502 18.2704 0.844951 18.0655 1.72808L15.1608 14.3323C14.957 15.2124 15.0206 15.9304 14.1479 15.9304H6.9721C6.09938 15.9304 5.5593 15.2124 5.76432 14.3323L8.66886 1.72808C8.8751 0.844951 9.74493 0.127502 10.6164 0.127502Z" fill="#00447C"/>
<path d="M17.5076 0.127502H23.7475C24.6198 0.127502 25.1616 0.844951 24.9567 1.72808L22.052 14.3323C21.847 15.2124 20.9743 15.9304 20.1022 15.9304H13.8651C12.9924 15.9304 12.4511 15.2124 12.6555 14.3323L15.5606 1.72808C15.7638 0.844951 16.6349 0.127502 17.5076 0.127502Z" fill="#007B84"/>
<path d="M6.52533 4.16673C5.88365 4.17333 5.69414 4.16672 5.6336 4.15228C5.61033 4.26401 5.17732 6.28249 5.1761 6.28418C5.08287 6.69255 5.01504 6.98365 4.78461 7.17162C4.65381 7.28089 4.50111 7.33361 4.32407 7.33361C4.03951 7.33361 3.87372 7.19083 3.84589 6.92002L3.84057 6.82703C3.84057 6.82703 3.92726 6.28003 3.92726 6.27696C3.92726 6.27696 4.38172 4.43754 4.46309 4.19439C4.46735 4.18056 4.46856 4.17333 4.46963 4.16673C3.58505 4.17456 3.42824 4.16672 3.41744 4.15228C3.41151 4.1721 3.38961 4.28615 3.38961 4.28615L2.92557 6.35934L2.88572 6.53517L2.80861 7.11029C2.80861 7.28089 2.84177 7.42014 2.90777 7.53787C3.11918 7.9112 3.72224 7.96714 4.06338 7.96714C4.50294 7.96714 4.91526 7.87277 5.1939 7.70048C5.67756 7.41169 5.8041 6.96029 5.91695 6.55914L5.96927 6.35334C5.96927 6.35334 6.43742 4.44292 6.51697 4.19439C6.52001 4.18056 6.52122 4.17333 6.52533 4.16673ZM8.11817 5.70789C8.00531 5.70789 7.79907 5.73555 7.61382 5.82731C7.5466 5.8622 7.48302 5.90246 7.41595 5.94258L7.47648 5.72172L7.44332 5.68452C7.05047 5.76491 6.96256 5.77567 6.59966 5.82731L6.56924 5.84775C6.52711 6.20079 6.48969 6.46622 6.33349 7.16015C6.27403 7.4159 6.21228 7.67411 6.15037 7.92924L6.1671 7.96167C6.53897 7.94184 6.65183 7.94184 6.97503 7.94722L7.00119 7.91848C7.04225 7.70592 7.04758 7.65612 7.13853 7.22563C7.18127 7.02152 7.27039 6.57304 7.31435 6.41335C7.39511 6.37554 7.47481 6.33834 7.55086 6.33834C7.732 6.33834 7.70995 6.49803 7.70295 6.56166C7.69519 6.66848 7.62918 7.01737 7.5615 7.31692L7.51633 7.51027C7.48485 7.65305 7.45032 7.79184 7.41884 7.93339L7.43253 7.96167C7.79907 7.94184 7.91086 7.94184 8.22387 7.94722L8.26068 7.91848C8.31726 7.5865 8.33383 7.49766 8.43422 7.01429L8.48471 6.79221C8.58281 6.35756 8.63209 6.13716 8.55787 5.95764C8.47939 5.75645 8.2911 5.70789 8.11817 5.70789ZM9.89754 6.16296C9.70271 6.20077 9.57845 6.22598 9.45495 6.24227C9.33252 6.2621 9.21312 6.28008 9.02483 6.30651L9.00992 6.32019L8.99623 6.3311C8.97661 6.47281 8.96293 6.59531 8.93692 6.73932C8.91486 6.88825 8.88095 7.05747 8.82574 7.30061C8.783 7.48674 8.76095 7.5516 8.73661 7.61707C8.71288 7.68254 8.68672 7.74617 8.63866 7.92923L8.64992 7.94613L8.65935 7.96165C8.83532 7.9532 8.95045 7.94721 9.06878 7.94613C9.18696 7.94183 9.3094 7.94613 9.49891 7.94721L9.51548 7.93353L9.53328 7.91847C9.56066 7.7534 9.56476 7.70898 9.58149 7.62844C9.59807 7.54207 9.62666 7.42249 9.69678 7.10311C9.72994 6.95311 9.76689 6.80356 9.80127 6.65048C9.83701 6.49802 9.87443 6.34786 9.91002 6.19785L9.90469 6.17971L9.89754 6.16296ZM9.9017 5.54938C9.72466 5.44379 9.41393 5.4773 9.2048 5.62315C8.99628 5.76609 8.97255 5.96897 9.14898 6.07594C9.32298 6.17861 9.63492 6.14802 9.84223 6.00094C10.0503 5.85493 10.0763 5.65389 9.9017 5.54938ZM10.9724 7.99475C11.3305 7.99475 11.6977 7.895 11.9741 7.59898C12.1867 7.35891 12.2842 7.00172 12.3179 6.85464C12.4279 6.36711 12.3423 6.13949 12.2347 6.00086C12.0714 5.78953 11.7827 5.72175 11.4832 5.72175C11.3032 5.72175 10.8743 5.73973 10.5392 6.05189C10.2986 6.27705 10.1874 6.5826 10.1203 6.87554C10.0526 7.17401 9.97478 7.71133 10.4638 7.91129C10.6146 7.97676 10.8321 7.99475 10.9724 7.99475ZM10.9444 6.89782C11.027 6.52865 11.1245 6.2188 11.3733 6.2188C11.5683 6.2188 11.5824 6.44934 11.4957 6.81975C11.4802 6.90197 11.409 7.20767 11.3127 7.33785C11.2455 7.43391 11.166 7.49216 11.0781 7.49216C11.0519 7.49216 10.8963 7.49216 10.8939 7.2587C10.8927 7.14343 10.9159 7.0257 10.9444 6.89782ZM13.2133 7.94727L13.2413 7.91853C13.281 7.70597 13.2875 7.65602 13.3754 7.22567C13.4194 7.02156 13.5104 6.57308 13.5531 6.41339C13.634 6.37543 13.7123 6.33824 13.7908 6.33824C13.9707 6.33824 13.9488 6.49793 13.9417 6.56155C13.9352 6.66853 13.8691 7.01726 13.8002 7.31681L13.7575 7.51016C13.7248 7.6531 13.6892 7.79173 13.6577 7.93344L13.6714 7.96172C14.0392 7.94189 14.1467 7.94189 14.4616 7.94727L14.4996 7.91853C14.5548 7.58639 14.5697 7.49756 14.6731 7.01434L14.7224 6.7921C14.821 6.35745 14.8708 6.1372 14.7978 5.95769C14.7171 5.7565 14.5276 5.70793 14.3571 5.70793C14.2441 5.70793 14.0368 5.73544 13.8526 5.82735C13.7867 5.86224 13.7207 5.90236 13.6559 5.94263L13.7123 5.72177L13.6821 5.68442C13.2894 5.76495 13.1996 5.77571 12.8372 5.82735L12.8094 5.8478C12.7654 6.20083 12.7297 6.46611 12.5735 7.1602C12.514 7.41595 12.4522 7.67415 12.3905 7.92929L12.4071 7.96172C12.7795 7.94189 12.8907 7.94189 13.2133 7.94727ZM15.9153 7.96164C15.9385 7.8476 16.0758 7.17165 16.077 7.17165C16.077 7.17165 16.194 6.67567 16.2011 6.65769C16.2011 6.65769 16.2379 6.60605 16.2747 6.58561H16.3289C16.8398 6.58561 17.4167 6.58561 17.8688 6.24948C18.1765 6.01893 18.3869 5.6785 18.4807 5.26475C18.505 5.16331 18.523 5.04266 18.523 4.92201C18.523 4.76355 18.4915 4.60678 18.4006 4.48429C18.17 4.1583 17.7108 4.15231 17.1808 4.14985C17.1791 4.14985 16.9195 4.15231 16.9195 4.15231C16.241 4.16076 15.9689 4.1583 15.8571 4.14447C15.8477 4.19442 15.8299 4.28326 15.8299 4.28326C15.8299 4.28326 15.5868 5.42152 15.5868 5.42337C15.5868 5.42337 15.0052 7.84345 14.9778 7.95749C15.5702 7.95027 15.8131 7.95027 15.9153 7.96164ZM16.3657 5.93963C16.3657 5.93963 16.6241 4.80367 16.6229 4.80797L16.6312 4.74972L16.6349 4.7053L16.7382 4.71606C16.7382 4.71606 17.2711 4.76232 17.2836 4.76355C17.4939 4.84578 17.5806 5.05773 17.5201 5.33438C17.4649 5.58721 17.3026 5.79977 17.0941 5.90243C16.9224 5.98943 16.712 5.99665 16.4953 5.99665H16.355L16.3657 5.93963ZM17.9746 6.91887C17.9063 7.21304 17.8278 7.75035 18.3144 7.94186C18.4695 8.00856 18.6085 8.02839 18.7498 8.02117C18.899 8.01302 19.0373 7.9374 19.1653 7.82859C19.1538 7.87331 19.1422 7.91804 19.1307 7.96292L19.1527 7.99166C19.5027 7.97675 19.6113 7.97675 19.9905 7.97967L20.0248 7.95323C20.0802 7.62432 20.1324 7.30495 20.2762 6.67572C20.3464 6.37432 20.4163 6.07585 20.4883 5.77568L20.477 5.74264C20.0855 5.81595 19.9809 5.83163 19.6043 5.88557L19.5757 5.90909C19.5719 5.93967 19.5679 5.96903 19.5643 5.99839C19.5057 5.90279 19.4209 5.82118 19.2899 5.7703C19.1225 5.70375 18.7291 5.78951 18.391 6.10059C18.1535 6.32268 18.0394 6.627 17.9746 6.91887ZM18.7968 6.93685C18.8806 6.57428 18.9769 6.26751 19.2263 6.26751C19.3841 6.26751 19.4671 6.41459 19.4502 6.66542C19.4368 6.72798 19.4224 6.79391 19.4052 6.86845C19.3803 6.97619 19.3532 7.08301 19.3269 7.18998C19.3001 7.26314 19.2689 7.33215 19.2347 7.37811C19.1705 7.47002 19.0178 7.52704 18.9299 7.52704C18.905 7.52704 18.751 7.52704 18.7457 7.29772C18.7445 7.18353 18.7678 7.06595 18.7968 6.93685ZM23.0905 5.7397L23.0602 5.70481C22.6729 5.78412 22.6027 5.79672 22.2468 5.84529L22.2207 5.87173C22.2195 5.87603 22.2184 5.88264 22.2166 5.88863L22.2154 5.88264C21.9504 6.50034 21.9582 6.36708 21.7425 6.85338C21.7413 6.83124 21.7413 6.81741 21.7401 6.7939L21.6861 5.7397L21.6522 5.70481C21.2464 5.78412 21.2368 5.79672 20.862 5.84529L20.8328 5.87173C20.8287 5.88433 20.8287 5.89816 20.8263 5.91322L20.8287 5.9186C20.8756 6.16052 20.8643 6.10657 20.9113 6.48835C20.9332 6.6757 20.9624 6.86413 20.9843 7.04918C21.0213 7.35888 21.042 7.51134 21.0871 7.98396C20.834 8.406 20.7741 8.56569 20.5305 8.9361L20.5321 8.93979L20.3606 9.21398C20.341 9.24287 20.3232 9.2627 20.2982 9.27115C20.2708 9.28483 20.2353 9.28729 20.1858 9.28729H20.0908L19.9495 9.76221L20.4342 9.77066C20.7188 9.76943 20.8976 9.63495 20.9939 9.4542L21.2987 8.92641H21.2938L21.3259 8.88922C21.5309 8.4432 23.0905 5.7397 23.0905 5.7397ZM17.9746 11.977H17.769L18.53 9.43322H18.7825L18.8627 9.17117L18.8704 9.46258C18.861 9.64271 19.0012 9.8024 19.3696 9.77596H19.7956L19.9422 9.28614H19.7819C19.6898 9.28614 19.647 9.26262 19.6523 9.21221L19.6446 8.91573H18.8557V8.91727C18.6006 8.92265 17.8389 8.94201 17.6847 8.98351C17.4981 9.03208 17.3014 9.17502 17.3014 9.17502L17.3787 8.91266H16.6407L16.487 9.43322L15.7157 12.0159H15.566L15.4193 12.5022H16.8891L16.8398 12.6644H17.5641L17.6121 12.5022H17.8153L17.9746 11.977ZM17.3715 9.9501C17.2534 9.98314 17.0334 10.0834 17.0334 10.0834L17.229 9.43322H17.8153L17.6739 9.90691C17.6739 9.90691 17.4928 9.91767 17.3715 9.9501ZM17.3828 10.8789C17.3828 10.8789 17.1986 10.9022 17.0774 10.9299C16.958 10.9665 16.7341 11.0818 16.7341 11.0818L16.9361 10.4052H17.5255L17.3828 10.8789ZM17.0543 11.983H16.4661L16.6366 11.412H17.2229L17.0543 11.983ZM18.4707 10.4052H19.3184L19.1966 10.8039H18.3376L18.2086 11.2398H18.9602L18.3911 12.0496C18.3513 12.1091 18.3155 12.1301 18.2758 12.1469C18.236 12.1673 18.1837 12.1913 18.1231 12.1913H17.9146L17.7713 12.6687H18.3167C18.6002 12.6687 18.7677 12.5383 18.8914 12.3673L19.2816 11.8275L19.3654 12.3756C19.3832 12.4782 19.4562 12.5383 19.5057 12.5617C19.5603 12.5894 19.6167 12.6368 19.6964 12.6439C19.7819 12.6476 19.8436 12.6505 19.8847 12.6505H20.1527L20.3136 12.1163H20.2079C20.1472 12.1163 20.0427 12.106 20.0249 12.0868C20.0071 12.0634 20.0071 12.0274 19.9975 11.9727L19.9125 11.4234H19.5644L19.7171 11.2398H20.5744L20.7063 10.8039H19.9125L20.0362 10.4052H20.8275L20.9743 9.91352H18.615L18.4707 10.4052ZM11.3103 12.094L11.5082 11.4288H12.3215L12.4701 10.9341H11.6561L11.7803 10.5247H12.5758L12.7231 10.0456H10.7328L10.5885 10.5247H11.0407L10.9201 10.9341H10.4667L10.3164 11.4373H10.7684L10.5047 12.3174C10.4691 12.4339 10.5214 12.4783 10.5546 12.5324C10.5885 12.5851 10.6229 12.62 10.7001 12.6398C10.7798 12.6578 10.8344 12.6685 10.9087 12.6685H11.8255L11.9888 12.1205L11.5824 12.1769C11.504 12.1769 11.2866 12.1674 11.3103 12.094ZM11.4036 8.90966L11.1975 9.28606C11.1534 9.36829 11.1137 9.41931 11.078 9.44283C11.0465 9.46266 10.9841 9.47096 10.8938 9.47096H10.7863L10.6425 9.95248H10.9997C11.1714 9.95248 11.3032 9.88885 11.3662 9.85704C11.4339 9.82046 11.4517 9.84136 11.504 9.79033L11.6246 9.68475H12.7398L12.8878 9.18339H12.0715L12.214 8.90966H11.4036ZM13.05 12.1037C13.0309 12.076 13.0446 12.0273 13.0737 11.9259L13.3785 10.9064H14.4628C14.6208 10.9041 14.7348 10.9023 14.8091 10.8969C14.8888 10.8884 14.9755 10.8597 15.0699 10.8081C15.1674 10.754 15.2173 10.6969 15.2594 10.6315C15.3064 10.5661 15.3819 10.4232 15.4466 10.2028L15.8298 8.91269L14.7046 8.9193C14.7046 8.9193 14.3581 8.97094 14.2056 9.02796C14.0516 9.09159 13.8317 9.26926 13.8317 9.26926L13.9333 8.91561H13.2382L12.2651 12.1769C12.2306 12.3035 12.2075 12.3954 12.2022 12.4506C12.2004 12.5101 12.2764 12.5689 12.3257 12.6134C12.3839 12.6578 12.47 12.6506 12.5526 12.6578C12.6395 12.6644 12.763 12.6685 12.9334 12.6685H13.4676L13.6316 12.1091L13.1534 12.1547C13.1023 12.1547 13.0653 12.1271 13.05 12.1037ZM13.5751 10.2179H14.714L14.6416 10.4472C14.6314 10.4526 14.6071 10.4358 14.4912 10.4496H13.505L13.5751 10.2179ZM13.8033 9.44878H14.9517L14.8691 9.72497C14.8691 9.72497 14.3278 9.71959 14.2412 9.73573C13.8597 9.80243 13.6369 10.0084 13.6369 10.0084L13.8033 9.44878ZM14.6671 11.2151C14.6577 11.2494 14.6428 11.2703 14.6219 11.2859C14.5988 11.301 14.5614 11.3064 14.5056 11.3064H14.3433L14.3529 11.0271H13.6779L13.6505 12.3924C13.6494 12.4909 13.6589 12.5479 13.7302 12.5936C13.8015 12.6506 14.0213 12.6578 14.3171 12.6578H14.7401L14.8928 12.1468L14.5246 12.1672L14.4022 12.1745C14.3854 12.1672 14.3695 12.1606 14.3517 12.1426C14.3361 12.1271 14.31 12.1366 14.3142 12.0381L14.3171 11.6882L14.7033 11.672C14.9118 11.672 15.001 11.6035 15.077 11.5382C15.1495 11.4756 15.1733 11.4037 15.2007 11.3064L15.2654 10.9965H14.7348L14.6671 11.2151Z" fill="#FEFEFE"/>
</svg>
