<svg width="28" height="19" viewBox="0 0 28 19" fill="none" xmlns="http://www.w3.org/2000/svg">
<g clip-path="url(#clip0)">
<path d="M21.1433 1.77569C22.1116 1.50439 23.0745 1.23309 24.043 0.96179C25.0113 0.690489 25.9742 0.419188 26.9425 0.147887C27.5213 -0.0127455 28 0.850973 28 2.07459C28 3.18738 28 4.30033 28 5.41313C28 6.52607 28 7.63887 28 8.75166C28 9.97528 27.527 10.8445 26.9425 10.6784C25.9742 10.4071 25.0113 10.1358 24.043 9.85894C23.0745 9.58764 22.1117 9.31634 21.1433 9.04504C20.5645 8.87904 20.0858 8.14806 20.0858 7.41172C20.0858 6.74174 20.0858 6.07743 20.0858 5.40746C20.0858 4.743 20.0858 4.07318 20.0858 3.4032C20.0859 2.67267 20.5645 1.94184 21.1433 1.77569Z" fill="#005048"/>
<path d="M6.85657 1.77484C5.88827 1.50354 4.92534 1.23224 3.95703 0.960942C2.98873 0.689641 2.02028 0.41834 1.0575 0.147039C0.473021 -0.0189636 0 0.850274 0 2.07389C0 3.18668 0 4.29963 0 5.41243C0 6.52537 0 7.63817 0 8.75096C0 9.97458 0.473021 10.8438 1.0575 10.6777C2.02595 10.4064 2.98873 10.1351 3.95718 9.85824C4.92549 9.58694 5.88841 9.31564 6.85672 9.04434C7.43552 8.87834 7.90854 8.14736 7.90854 7.41102C7.90854 6.74104 7.90854 6.07673 7.90854 5.40676C7.90854 4.7423 7.90854 4.07248 7.90854 3.4025C7.90854 2.67182 7.43552 1.941 6.85657 1.77484Z" fill="#00E77D"/>
<path d="M16.0454 1.77569C16.5296 1.50439 17.0138 1.23309 17.4924 0.96179C17.9766 0.690489 18.4607 0.419188 18.9449 0.147887C19.2343 -0.0127455 19.4737 0.850973 19.4737 2.07459C19.4737 3.18738 19.4737 4.30033 19.4737 5.41313C19.4737 6.52607 19.4737 7.63887 19.4737 8.75166C19.4737 9.97528 19.2343 10.8445 18.9449 10.6784C18.4607 10.4071 17.9766 10.1358 17.4924 9.85894C17.0082 9.58764 16.5241 9.31634 16.0454 9.04504C15.756 8.87904 15.5166 8.14806 15.5166 7.41172C15.5166 6.74174 15.5166 6.07743 15.5166 5.40746C15.5166 4.743 15.5166 4.07318 15.5166 3.4032C15.5168 2.67267 15.756 1.94184 16.0454 1.77569Z" fill="#007147"/>
<path d="M11.9548 1.77566C11.4705 1.50436 10.9863 1.23306 10.5022 0.961758C10.018 0.690457 9.53379 0.419156 9.05524 0.147854C8.76569 -0.0126297 8.52634 0.85109 8.52634 2.07471C8.52634 3.1875 8.52634 4.30045 8.52634 5.41325C8.52634 6.5262 8.52634 7.63899 8.52634 8.75179C8.52634 9.97541 8.76569 10.8446 9.05509 10.6785C9.53931 10.4072 10.0235 10.1359 10.5021 9.85907C10.9863 9.58777 11.4704 9.31647 11.9546 9.04517C12.244 8.87916 12.4834 8.14819 12.4834 7.41184C12.4834 6.74187 12.4834 6.07756 12.4834 5.40758C12.4834 4.74312 12.4834 4.0733 12.4834 3.40332C12.4834 2.67264 12.2442 1.94181 11.9548 1.77566Z" fill="#00CD62"/>
<path d="M14.3867 1.77569C14.459 1.50439 14.5314 1.23309 14.6038 0.96179C14.6761 0.690489 14.7484 0.419188 14.8208 0.147887C14.8654 -0.0127455 14.8987 0.850973 14.8987 2.07459C14.8987 3.18738 14.8987 4.30033 14.8987 5.41313C14.8987 6.52607 14.8987 7.63887 14.8987 8.75166C14.8987 9.97528 14.8654 10.8445 14.8208 10.6784C14.7485 10.4071 14.6762 10.1358 14.6038 9.85894C14.5314 9.58764 14.459 9.31634 14.3867 9.04504C14.3422 8.87904 14.3088 8.14806 14.3088 7.41172C14.3088 6.74174 14.3088 6.07743 14.3088 5.40746C14.3088 4.743 14.3088 4.07318 14.3088 3.4032C14.3088 2.67267 14.3422 1.94184 14.3867 1.77569Z" fill="#00905E"/>
<path d="M13.6133 1.77569C13.541 1.50439 13.4686 1.23309 13.3962 0.96179C13.3239 0.690489 13.2516 0.419188 13.1792 0.147887C13.1346 -0.0127455 13.1012 0.850973 13.1012 2.07459C13.1012 3.18738 13.1012 4.30033 13.1012 5.41313C13.1012 6.52607 13.1012 7.63887 13.1012 8.75166C13.1012 9.97528 13.1346 10.8445 13.1792 10.6784C13.2515 10.4071 13.3238 10.1358 13.3962 9.85894C13.4686 9.58764 13.541 9.31634 13.6133 9.04504C13.6579 8.87904 13.6912 8.14806 13.6912 7.41172C13.6912 6.74174 13.6912 6.07743 13.6912 5.40746C13.6912 4.743 13.6912 4.07318 13.6912 3.4032C13.6912 2.67267 13.6523 1.94184 13.6133 1.77569Z" fill="#00BB5D"/>
<path d="M24.4936 14.7037C24.438 14.6927 24.3712 14.6872 24.2932 14.6816C24.2209 14.6761 24.1374 14.6706 24.0483 14.6706C23.7701 14.6706 23.5141 14.6983 23.2747 14.7426C23.0409 14.7869 22.8295 14.8478 22.6514 14.9198V18.1477H23.5141V15.4404C23.5698 15.4181 23.6364 15.4016 23.7089 15.3905C23.7869 15.3795 23.8647 15.374 23.9427 15.374C24.015 15.374 24.0818 15.3795 24.1486 15.385C24.2154 15.3961 24.2766 15.4072 24.3322 15.4238L24.4936 14.7037ZM21.4827 16.0713L20.0525 16.265C20.058 16.0545 20.0915 15.8774 20.1582 15.7334C20.225 15.5895 20.3141 15.4844 20.4309 15.4123C20.5477 15.3403 20.6813 15.3016 20.8316 15.3016C20.9652 15.3016 21.082 15.3294 21.1767 15.3902C21.2768 15.4456 21.3493 15.5342 21.4049 15.645C21.4549 15.7557 21.4827 15.8996 21.4827 16.0713ZM22.3175 16.2207C22.3175 15.9882 22.2841 15.7777 22.2229 15.5895C22.1561 15.4013 22.0615 15.2406 21.939 15.1022C21.8165 14.9693 21.6607 14.8642 21.4771 14.7922C21.2934 14.7201 21.0874 14.6815 20.8482 14.6815C20.5978 14.6815 20.3752 14.7258 20.1803 14.8089C19.9855 14.8975 19.8186 15.0193 19.6851 15.1743C19.546 15.3292 19.4457 15.5176 19.3734 15.7334C19.3011 15.9494 19.2676 16.1874 19.2676 16.4477C19.2676 16.708 19.3066 16.9515 19.3789 17.1675C19.4512 17.3835 19.5626 17.5717 19.7073 17.7267C19.852 17.8873 20.03 18.009 20.2471 18.0921C20.4642 18.1751 20.7091 18.2194 20.993 18.2194C21.16 18.2194 21.3214 18.2084 21.4772 18.1862C21.633 18.1641 21.7777 18.1364 21.9112 18.0976C22.0448 18.0588 22.1561 18.02 22.2507 17.9702L22.0058 17.328C21.9223 17.3723 21.8332 17.4111 21.7276 17.4386C21.6218 17.4719 21.516 17.494 21.3992 17.5162C21.2824 17.5328 21.1711 17.5439 21.0541 17.5439C20.887 17.5439 20.7369 17.5162 20.6033 17.4609C20.4698 17.4055 20.364 17.3225 20.2749 17.2118C20.1914 17.1011 20.1358 16.9627 20.1079 16.7966L22.3063 16.4975C22.3118 16.4477 22.3175 16.3979 22.3175 16.3536C22.3175 16.3148 22.3175 16.265 22.3175 16.2207ZM18.9114 18.1474V13.1978H18.0488V18.1475H18.9114V18.1474ZM17.5145 18.1474V13.1978H16.6518V18.1475H17.5145V18.1474ZM15.4664 16.0713L14.0361 16.265C14.0417 16.0545 14.0751 15.8774 14.1419 15.7334C14.2087 15.5895 14.2978 15.4844 14.4146 15.4123C14.5314 15.3403 14.665 15.3016 14.8153 15.3016C14.9489 15.3016 15.0657 15.3294 15.1604 15.3902C15.2605 15.4456 15.333 15.5342 15.3886 15.645C15.4386 15.7557 15.4664 15.8996 15.4664 16.0713ZM16.3013 16.2207C16.3013 15.9882 16.2678 15.7777 16.2067 15.5895C16.1399 15.4013 16.0509 15.2406 15.9229 15.1022C15.8005 14.9693 15.6445 14.8642 15.4609 14.7922C15.2773 14.7201 15.0712 14.6815 14.832 14.6815C14.5816 14.6815 14.359 14.7258 14.1642 14.8089C13.9694 14.8975 13.8025 15.0193 13.6689 15.1743C13.5298 15.3292 13.4296 15.5176 13.3572 15.7334C13.2849 15.9494 13.2515 16.1874 13.2515 16.4477C13.2515 16.708 13.2905 16.9515 13.3628 17.1675C13.4351 17.3835 13.5464 17.5717 13.6912 17.7267C13.8358 17.8873 14.0139 18.009 14.231 18.0921C14.4481 18.1751 14.6929 18.2194 14.9767 18.2194C15.1435 18.2194 15.3051 18.2084 15.4609 18.1862C15.6167 18.1641 15.7613 18.1364 15.8951 18.0976C16.0286 18.0588 16.1399 18.02 16.24 17.9702L15.9952 17.328C15.9116 17.3723 15.8226 17.4111 15.717 17.4386C15.6112 17.4719 15.5054 17.494 15.3886 17.5162C15.2717 17.5328 15.1604 17.5439 15.0434 17.5439C14.8764 17.5439 14.7263 17.5162 14.5927 17.4609C14.4591 17.4055 14.3478 17.3225 14.2643 17.2118C14.1808 17.1011 14.1252 16.9627 14.0974 16.7966L16.2958 16.4975C16.3013 16.4477 16.307 16.3979 16.307 16.3536C16.3013 16.3148 16.3013 16.265 16.3013 16.2207ZM13.1289 18.1031V17.3888C13.1012 17.4054 13.0622 17.4166 13.0176 17.4221C12.9731 17.4331 12.9286 17.4386 12.8841 17.4386C12.8118 17.4386 12.745 17.4276 12.6837 17.4054C12.6225 17.3832 12.5779 17.3445 12.5446 17.2891C12.5112 17.2337 12.4946 17.1617 12.4946 17.0676V15.3899H13.1346V14.7477H12.4946V13.7456L11.6431 13.9947V14.7532H11.2034V15.3955H11.6431V17.1284C11.6431 17.4828 11.7211 17.7541 11.8824 17.9313C12.0438 18.1085 12.2887 18.2026 12.6171 18.2026C12.6894 18.2026 12.7562 18.1971 12.823 18.186C12.8897 18.1805 12.951 18.1695 13.0066 18.1528C13.051 18.1364 13.0955 18.1198 13.1289 18.1031ZM10.9416 18.1474V14.748H10.079V18.1474H10.9416ZM11.0086 13.7404C11.0086 13.6518 10.9863 13.5744 10.9418 13.5078C10.8973 13.4358 10.8417 13.386 10.7637 13.3417C10.6914 13.2974 10.6079 13.2808 10.5133 13.2808C10.4242 13.2808 10.3407 13.3031 10.2629 13.3417C10.1906 13.3805 10.1293 13.4358 10.0848 13.5078C10.0403 13.5797 10.018 13.6518 10.018 13.7404C10.018 13.829 10.0403 13.9065 10.0848 13.9784C10.1293 14.0503 10.1849 14.1058 10.2629 14.1444C10.3352 14.1832 10.4187 14.2053 10.5133 14.2109C10.6079 14.2109 10.6914 14.1888 10.7637 14.1444C10.836 14.1001 10.8973 14.0448 10.9418 13.9784C10.9806 13.9064 11.0029 13.829 11.0086 13.7404ZM9.61162 18.1474V15.822C9.61162 15.5783 9.55604 15.368 9.45026 15.1963C9.34448 15.0302 9.18312 14.8973 8.9605 14.8087C8.74341 14.7201 8.46522 14.6758 8.12562 14.6758C7.84742 14.6758 7.59134 14.698 7.36872 14.7423C7.14611 14.7866 6.94575 14.8475 6.76213 14.9195V18.1474H7.62481V15.4456C7.68053 15.4234 7.75837 15.4013 7.84742 15.3902C7.93647 15.3737 8.03672 15.368 8.13682 15.368C8.33165 15.368 8.48195 15.4178 8.58758 15.5119C8.68783 15.6061 8.74341 15.7445 8.74341 15.9161V18.1529H9.61162V18.1474ZM6.30569 17.9759V14.748H5.44302V17.4388C5.39297 17.4554 5.32618 17.4776 5.24266 17.4886C5.15362 17.5052 5.05904 17.5107 4.94221 17.5107C4.75291 17.5107 4.60828 17.4664 4.51371 17.3833C4.41346 17.2947 4.36908 17.1618 4.36908 16.9791V14.7479H3.50641V16.9624C3.50641 17.2558 3.56214 17.494 3.66777 17.6822C3.77355 17.8704 3.93491 18.0033 4.152 18.0919C4.36355 18.1805 4.63069 18.2248 4.94236 18.2193C5.12045 18.2193 5.29854 18.2083 5.46558 18.186C5.63814 18.164 5.79398 18.1362 5.9386 18.0974C6.08308 18.07 6.20544 18.0257 6.30569 17.9759Z" fill="#4A4A49"/>
</g>
<defs>
<clipPath id="clip0">
<rect width="28" height="18.0923" fill="white" transform="translate(0 0.127563)"/>
</clipPath>
</defs>
</svg>
