<svg width="32" height="11" viewBox="0 0 32 11" fill="none" xmlns="http://www.w3.org/2000/svg">
<g clip-path="url(#clip0)">
<path d="M32 10.2027C31.1986 10.2027 30.3972 10.2027 29.5833 10.2027C29.495 9.7834 29.4003 9.37291 29.325 8.95891C29.2942 8.787 29.2386 8.72034 29.0443 8.72326C28.0752 8.73554 27.1062 8.73262 26.1371 8.72501C25.9902 8.72385 25.9322 8.77179 25.8878 8.90336C25.7545 9.29748 25.6082 9.68808 25.4589 10.0769C25.4388 10.1296 25.3712 10.2021 25.3256 10.2027C24.452 10.2103 23.5789 10.2079 22.6797 10.2079C22.8432 9.81848 22.9984 9.44659 23.1559 9.07586C24.282 6.42347 25.4086 3.77108 26.5352 1.11811C26.7792 0.543892 27.1447 0.302979 27.7743 0.302979C28.4756 0.302979 29.177 0.302979 29.896 0.302979C29.9659 0.626341 30.037 0.945025 30.1045 1.26429C30.659 3.88569 31.2116 6.50709 31.7672 9.12849C31.8383 9.46413 31.9224 9.79743 32.0006 10.1319C32 10.1559 32 10.1793 32 10.2027ZM28.8376 6.68544C28.5799 5.46625 28.3258 4.26402 28.0717 3.06121C28.061 3.05945 28.0509 3.05711 28.0403 3.05536C27.5978 4.2611 27.1547 5.46625 26.7069 6.68544C27.4302 6.68544 28.1226 6.68544 28.8376 6.68544Z" fill="url(#paint0_linear)"/>
<path d="M21.4726 0.127563C21.7912 0.186038 22.1129 0.233986 22.4286 0.30591C22.7164 0.371401 22.999 0.463205 23.3052 0.549162C23.1506 1.26196 23.0002 1.95722 22.8527 2.63786C22.4487 2.52091 22.0625 2.38642 21.6657 2.29988C21.1225 2.18176 20.5663 2.13674 20.0231 2.28585C19.8022 2.34666 19.5789 2.46302 19.4047 2.61038C19.1068 2.8624 19.1026 3.22553 19.3876 3.49041C19.5842 3.67285 19.8164 3.82313 20.0492 3.96113C20.5781 4.27514 21.1332 4.54821 21.6467 4.88327C22.2521 5.27797 22.6933 5.8212 22.7857 6.55505C22.9498 7.85317 22.4635 8.87589 21.3588 9.59921C20.664 10.0541 19.878 10.257 19.0588 10.3325C17.915 10.4377 16.7943 10.3108 15.7015 9.95649C15.628 9.93252 15.557 9.90328 15.4853 9.87404C15.464 9.86527 15.4456 9.85007 15.413 9.83019C15.5676 9.1168 15.7222 8.40166 15.881 7.66723C16.067 7.74734 16.2423 7.82803 16.4206 7.89878C17.2741 8.23852 18.1561 8.39348 19.0695 8.22448C19.307 8.18063 19.5499 8.07713 19.7512 7.94381C20.1884 7.65436 20.2304 7.11055 19.8324 6.77082C19.5706 6.54744 19.2561 6.38255 18.9581 6.20303C18.4925 5.92294 17.9974 5.68437 17.5567 5.37094C16.9916 4.96923 16.5829 4.4336 16.5053 3.72139C16.3892 2.6554 16.7896 1.7894 17.6189 1.11695C18.3409 0.53162 19.1974 0.271995 20.1096 0.162648C20.1605 0.156801 20.2097 0.139258 20.2595 0.127563C20.664 0.127563 21.0686 0.127563 21.4726 0.127563Z" fill="url(#paint1_linear)"/>
<path d="M0.190138 0.303582C1.56375 0.303582 2.93736 0.302997 4.31157 0.303582C4.96313 0.303582 5.43344 0.677232 5.55664 1.31402C5.90552 3.11619 6.24671 4.92012 6.59144 6.72346C6.60625 6.8024 6.62343 6.88076 6.64653 6.99186C6.68207 6.92579 6.70695 6.88836 6.72294 6.84801C7.57589 4.7178 8.42944 2.58758 9.27825 0.45503C9.32445 0.338667 9.3819 0.298904 9.50926 0.300074C10.3059 0.306506 11.1032 0.302997 11.8999 0.303582C11.9514 0.303582 12.003 0.30826 12.0758 0.311184C11.9402 0.633377 11.8116 0.940951 11.6813 1.24794C10.4374 4.17691 9.19236 7.10472 7.9538 10.036C7.89457 10.1758 7.8223 10.2126 7.67896 10.2115C6.89412 10.205 6.10869 10.2027 5.32386 10.2132C5.15741 10.2155 5.10351 10.1577 5.06501 10.0103C4.39982 7.45088 3.72279 4.89322 3.0653 2.33147C2.94447 1.86133 2.7028 1.54031 2.24967 1.34325C1.52347 1.02749 0.769436 0.805876 0 0.625775" fill="url(#paint2_linear)"/>
<path d="M11.0351 10.2085C11.753 6.8977 12.4656 3.60969 13.1799 0.314087C14.0489 0.314087 14.9078 0.314087 15.7826 0.314087C15.6742 0.815795 15.5682 1.30815 15.4616 1.8005C14.8716 4.52247 14.2799 7.24445 13.697 9.96818C13.6568 10.1576 13.5886 10.2173 13.3896 10.2138C12.6765 10.2003 11.9627 10.2085 11.2489 10.2085C11.185 10.2085 11.121 10.2085 11.0351 10.2085Z" fill="url(#paint3_linear)"/>
</g>
<defs>
<linearGradient id="paint0_linear" x1="1.69704" y1="5.43644" x2="31.8316" y2="5.23561" gradientUnits="userSpaceOnUse">
<stop stop-color="#262860"/>
<stop offset="1" stop-color="#3D429B"/>
</linearGradient>
<linearGradient id="paint1_linear" x1="1.69655" y1="5.36181" x2="31.831" y2="5.16098" gradientUnits="userSpaceOnUse">
<stop stop-color="#262860"/>
<stop offset="1" stop-color="#3D429B"/>
</linearGradient>
<linearGradient id="paint2_linear" x1="1.78117" y1="5.27181" x2="31.6689" y2="5.07263" gradientUnits="userSpaceOnUse">
<stop stop-color="#262860"/>
<stop offset="1" stop-color="#3D429B"/>
</linearGradient>
<linearGradient id="paint3_linear" x1="1.69641" y1="5.33959" x2="31.8308" y2="5.13877" gradientUnits="userSpaceOnUse">
<stop stop-color="#262860"/>
<stop offset="1" stop-color="#3D429B"/>
</linearGradient>
<clipPath id="clip0">
<rect width="32" height="10.24" fill="white" transform="translate(0 0.127563)"/>
</clipPath>
</defs>
</svg>
