<svg width="50" height="28" viewBox="0 0 50 28" fill="none" xmlns="http://www.w3.org/2000/svg">
<rect width="50" height="28" rx="3" fill="white"/>
<path d="M9.51302 9L5 18.9872H10.4027L11.0725 17.3948H12.6035L13.2732 18.9872H19.2201V17.7718L19.75 18.9872H22.8262L23.3561 17.7461V18.9872H35.724L37.2278 17.4361L38.636 18.9872L44.9884 19L40.4611 14.0215L44.9884 9H38.7345L37.2706 10.5224L35.9068 9H22.4521L21.2968 11.5778L20.1143 9H14.7229V10.174L14.1231 9C14.1231 9 9.51302 9 9.51302 9ZM10.5584 10.4182H13.1919L16.1854 17.1905V10.4182H19.0704L21.3825 15.2739L23.5134 10.4182H26.3839V17.5846H24.6372L24.623 11.969L22.0765 17.5846H20.5141L17.9534 11.969V17.5846H14.3601L13.6789 15.978H9.99859L9.31879 17.5832H7.39357C7.39357 17.5832 10.5584 10.4182 10.5584 10.4182ZM27.9819 10.4182H35.0841L37.2564 12.7646L39.4986 10.4182H41.6708L38.3704 14.02L41.6708 17.5804H39.4001L37.2278 15.2067L34.9742 17.5804H27.9819V10.4182ZM11.8395 11.6307L10.627 14.4928H13.0507L11.8395 11.6307ZM29.7358 11.902V13.2102H33.6103V14.6684H29.7358V16.0966H34.0816L36.101 13.993L34.1673 11.9008H29.7358V11.902Z" fill="#26A6D1"/>
</svg>
