<svg width="50" height="28" viewBox="0 0 50 28" fill="none" xmlns="http://www.w3.org/2000/svg">
<rect width="50" height="28" rx="3" fill="white"/>
<path d="M19.0222 10.7208C18.9075 10.8277 18.7908 10.9336 18.6771 11.0425C18.2749 11.4278 17.9729 11.8765 17.8665 12.4349C17.7188 13.2091 17.8761 13.919 18.3393 14.5554C18.5711 14.8736 18.8474 15.1379 19.2153 15.2899C19.2583 15.3076 19.3019 15.3232 19.3546 15.3438C19.3067 15.4757 19.2641 15.6057 19.2128 15.7321C18.9133 16.4676 18.5232 17.1481 17.9918 17.7384C17.8931 17.8483 17.7813 17.9478 17.6666 18.0419C17.278 18.3601 16.8429 18.4832 16.3526 18.3381C16.1077 18.266 15.8658 18.1846 15.6223 18.1081C15.3711 18.0297 15.1171 17.9664 14.8523 17.9601C14.5247 17.9522 14.2213 18.0517 13.9188 18.1645C13.6889 18.2503 13.4576 18.3395 13.2199 18.3964C12.8458 18.4866 12.5075 18.3695 12.1973 18.1572C11.8842 17.9424 11.6369 17.661 11.422 17.3506C10.8848 16.573 10.4754 15.7321 10.2242 14.8153C10.0011 13.9999 9.93818 13.1723 10.064 12.3344C10.1748 11.5955 10.4468 10.9287 10.9603 10.3776C11.4922 9.80692 12.147 9.57207 12.9146 9.64954C13.2969 9.68778 13.6618 9.80006 14.0281 9.90792C14.1811 9.95303 14.3369 9.98686 14.4908 10.0266C14.7115 10.0834 14.9293 10.0575 15.1427 9.99421C15.4433 9.90498 15.7409 9.80349 16.0414 9.71278C16.4881 9.57844 16.9416 9.53971 17.4023 9.63041C17.9986 9.74759 18.47 10.0727 18.8644 10.5267C18.9137 10.5835 18.9621 10.6414 19.011 10.6993C19.0154 10.7047 19.0178 10.7115 19.0222 10.7208Z" fill="black"/>
<path d="M16.7804 7C16.7867 7.13287 16.8051 7.2579 16.7964 7.38096C16.7499 8.05316 16.4896 8.63121 16.0312 9.11759C15.8246 9.33724 15.5962 9.53042 15.314 9.64319C15.074 9.73928 14.8184 9.75988 14.5639 9.779C14.56 9.77949 14.5556 9.77508 14.5518 9.77262C14.5876 8.27232 15.3353 7.30153 16.7804 7Z" fill="black"/>
<path d="M22.2066 8.78421C22.798 8.68419 23.5724 8.59888 24.5577 8.59888C25.7686 8.59888 26.6552 8.88423 27.2185 9.39757C27.7393 9.85404 28.049 10.5527 28.049 11.4083C28.049 12.2781 27.7954 12.963 27.3168 13.4621C26.6692 14.1608 25.6132 14.5172 24.4169 14.5172C24.051 14.5172 23.7132 14.503 23.4315 14.4314V18.2822H22.2066V8.78421V8.78421ZM23.431 13.419C23.6987 13.4906 24.0365 13.519 24.4445 13.519C25.9225 13.519 26.8236 12.7919 26.8236 11.4651C26.8236 10.1958 25.9365 9.58241 24.5853 9.58241C24.0505 9.58241 23.6421 9.62507 23.431 9.68243V13.419Z" fill="black"/>
<path d="M32.4681 18.2827L32.3693 17.4129H32.3272C31.9473 17.9547 31.2151 18.4396 30.2438 18.4396C28.864 18.4396 28.1603 17.4556 28.1603 16.4574C28.1603 14.7889 29.6243 13.876 32.2571 13.8902V13.7475C32.2571 13.1768 32.1022 12.1501 30.7084 12.1501C30.0749 12.1501 29.4133 12.3497 28.9347 12.6635L28.653 11.8363C29.2163 11.4657 30.0328 11.223 30.8913 11.223C32.9748 11.223 33.4815 12.6635 33.4815 14.0471V16.6285C33.4815 17.2276 33.5096 17.812 33.5943 18.2827H32.4681V18.2827ZM32.2851 14.76C30.9334 14.7315 29.3993 14.9737 29.3993 16.3147C29.3993 17.1276 29.934 17.513 30.5676 17.513C31.4547 17.513 32.0175 16.9423 32.2145 16.3578C32.2566 16.2294 32.2851 16.0867 32.2851 15.9587V14.76V14.76Z" fill="black"/>
<path d="M35.127 11.3797L36.619 15.4585C36.7739 15.9149 36.9428 16.4567 37.0555 16.8705H37.0836C37.2104 16.4567 37.3513 15.9292 37.5202 15.43L38.8719 11.3797H40.181L38.3226 16.3003C37.4355 18.6679 36.8305 19.88 35.9855 20.6218C35.3801 21.1636 34.7751 21.3778 34.4654 21.4347L34.1556 20.3791C34.4654 20.2791 34.8738 20.0795 35.2397 19.7657C35.5775 19.4946 36 19.0097 36.2817 18.3679C36.3378 18.2394 36.3799 18.1399 36.3799 18.0683C36.3799 17.9967 36.3519 17.8972 36.2957 17.7403L33.7757 11.3797H35.127Z" fill="black"/>
</svg>
