<svg width="50" height="28" viewBox="0 0 50 28" fill="none" xmlns="http://www.w3.org/2000/svg">
<path d="M0 3C0 1.34315 1.34315 0 3 0H47C48.6569 0 50 1.34315 50 3V25C50 26.6569 48.6569 28 47 28H3C1.34315 28 0 26.6569 0 25V3Z" fill="white"/>
<path d="M26.8883 22.2467C31.652 22.2692 36 18.4024 36 13.6983C36 8.55404 31.652 4.99829 26.8883 5H22.7887C17.9679 4.99829 14 8.5551 14 13.6983C14 18.4034 17.9679 22.2692 22.7887 22.2467H26.8883Z" fill="#0079BE"/>
<path d="M22.8081 5.71277C18.403 5.71414 14.8335 9.2473 14.8324 13.6079C14.8335 17.9678 18.403 21.5006 22.8081 21.502C27.2142 21.5006 30.7844 17.9678 30.785 13.6079C30.7844 9.2473 27.2142 5.71414 22.8081 5.71277ZM17.7525 13.6079C17.7567 11.4771 19.1016 9.66003 20.998 8.93796V18.2768C19.1016 17.5552 17.7566 15.7391 17.7525 13.6079ZM24.6174 18.2789V8.93765C26.5146 9.65797 27.8615 11.4761 27.865 13.6079C27.8615 15.7405 26.5146 17.5572 24.6174 18.2789Z" fill="white"/>
</svg>
