<svg width="50" height="28" viewBox="0 0 50 28" fill="none" xmlns="http://www.w3.org/2000/svg">
<path d="M0 3C0 1.34315 1.34315 0 3 0H47C48.6569 0 50 1.34315 50 3V25C50 26.6569 48.6569 28 47 28H3C1.34315 28 0 26.6569 0 25V3Z" fill="white"/>
<path d="M24.4921 9.93539V13.2656H26.5176C27.0001 13.2656 27.3989 13.1015 27.7141 12.7725C28.0385 12.4444 28.2003 12.053 28.2003 11.6C28.2003 11.1564 28.0385 10.7696 27.7141 10.4406C27.398 10.1032 26.9991 9.93445 26.5176 9.93445L24.4921 9.93539ZM24.4921 14.4381V18.3014H23.2827V8.76288H26.4909C27.3061 8.76288 27.9972 9.03876 28.5679 9.58867C29.1478 10.1386 29.4364 10.8096 29.4364 11.6C29.4364 12.4081 29.1478 13.0838 28.5679 13.6244C28.0073 14.1669 27.3144 14.4371 26.4909 14.4371L24.4921 14.4381Z" fill="#5F6368"/>
<path d="M30.6586 16.3022C30.6586 16.6228 30.7919 16.8885 31.0602 17.1019C31.3277 17.3144 31.641 17.4216 32.0004 17.4216C32.5095 17.4216 32.9617 17.2305 33.3605 16.8493C33.7594 16.4672 33.9588 16.0189 33.9588 15.5044C33.582 15.2015 33.0554 15.0514 32.3808 15.0514C31.8901 15.0514 31.4802 15.1716 31.1521 15.4112C30.8241 15.6507 30.6586 15.9471 30.6586 16.3022ZM32.2237 11.5609C33.1179 11.5609 33.8237 11.8023 34.3411 12.287C34.8585 12.7716 35.1158 13.4343 35.1158 14.2778V18.3014H33.9588V17.3955H33.9064C33.4065 18.1411 32.7411 18.5139 31.9085 18.5139C31.1981 18.5139 30.6035 18.3014 30.1265 17.8755C29.6486 17.4486 29.4097 16.9164 29.4097 16.2761C29.4097 15.6013 29.6606 15.0645 30.1651 14.6655C30.6697 14.2657 31.3424 14.0662 32.1833 14.0662C32.9019 14.0662 33.4938 14.1995 33.9579 14.4661V14.1865C33.9579 13.7605 33.7915 13.3989 33.4588 13.1016C33.1252 12.8033 32.7365 12.6551 32.2889 12.6551C31.6135 12.6551 31.0795 12.9431 30.6853 13.521L29.6192 12.8415C30.2083 11.9869 31.0749 11.5609 32.2237 11.5609Z" fill="#5F6368"/>
<path d="M41.7571 11.7734L37.719 21.1777H36.471L37.9699 17.8876L35.3139 11.7734H36.629L38.5488 16.4625H38.5746L40.4411 11.7734H41.7571Z" fill="#5F6368"/>
<path d="M19.6044 13.6053C19.6044 13.2195 19.5722 12.8466 19.5116 12.4906H14.4093V14.6017H17.3317C17.2067 15.2895 16.8272 15.8748 16.2519 16.2672V17.6383H17.9961C19.0162 16.6839 19.6044 15.2727 19.6044 13.6053Z" fill="#4285F4"/>
<path d="M14.4093 18.9617C15.8696 18.9617 17.0983 18.4761 17.9952 17.6382L16.251 16.2672C15.7657 16.598 15.1408 16.7919 14.4093 16.7919C12.9986 16.7919 11.8011 15.8282 11.3719 14.5298H9.5762V15.9419C10.4658 17.7314 12.2965 18.9617 14.4093 18.9617Z" fill="#34A853"/>
<path d="M11.3729 14.5289C11.2635 14.198 11.2029 13.8448 11.2029 13.4804C11.2029 13.1159 11.2626 12.7627 11.3729 12.4318V11.0198H9.57622C9.20861 11.7598 9 12.5949 9 13.4804C9 14.3658 9.2077 15.2018 9.57622 15.941L11.3729 14.5289Z" fill="#FABB05"/>
<path d="M14.4092 10.1689C15.206 10.1689 15.921 10.4466 16.4843 10.9909V10.9919L18.0283 9.42789C17.0909 8.54338 15.8686 8 14.4092 8C12.2955 8 10.4658 9.22936 9.57524 11.0198L11.3719 12.4319C11.8011 11.1326 12.9985 10.1689 14.4092 10.1689Z" fill="#E94235"/>
</svg>
