<svg width="50" height="28" viewBox="0 0 50 28" fill="none" xmlns="http://www.w3.org/2000/svg">
<rect width="50" height="28" rx="3" fill="white"/>
<path d="M38 19.8623C38 21.9306 36.2454 23.6148 34.0906 23.6148H12.82V8.75251C12.82 6.6842 14.5746 5 16.7294 5H38V19.8623V19.8623Z" fill="white"/>
<path d="M31.074 16.0507H32.69C32.7362 16.0507 32.844 16.0359 32.8901 16.0359C33.198 15.9768 33.4596 15.7109 33.4596 15.3415C33.4596 14.987 33.198 14.721 32.8901 14.6472C32.844 14.6324 32.7516 14.6324 32.69 14.6324H31.074V16.0507Z" fill="url(#paint0_linear)"/>
<path d="M32.5053 6.25574C30.9662 6.25574 29.7041 7.4524 29.7041 8.94455V11.7368H33.6597C33.752 11.7368 33.8598 11.7368 33.9367 11.7515C34.8294 11.7959 35.4912 12.2391 35.4912 13.0073C35.4912 13.613 35.0449 14.1301 34.2138 14.2335V14.2631C35.1218 14.3222 35.8144 14.8097 35.8144 15.5631C35.8144 16.3757 35.0449 16.9076 34.0291 16.9076H29.6888V22.3738H33.7982C35.3373 22.3738 36.5994 21.1771 36.5994 19.685V6.25574H32.5053V6.25574Z" fill="url(#paint1_linear)"/>
<path d="M33.2595 13.1846C33.2595 12.83 32.9979 12.5936 32.69 12.5493C32.6593 12.5493 32.5823 12.5345 32.5361 12.5345H31.074V13.8346H32.5361C32.5823 13.8346 32.6746 13.8346 32.69 13.8199C32.9979 13.7755 33.2595 13.5392 33.2595 13.1846V13.1846Z" fill="url(#paint2_linear)"/>
<path d="M17.0218 6.25574C15.4827 6.25574 14.2206 7.4524 14.2206 8.94455V15.5779C15.0056 15.9473 15.8213 16.1836 16.637 16.1836C17.6067 16.1836 18.13 15.6222 18.13 14.854V11.722H20.531V14.8392C20.531 16.0507 19.746 17.0405 17.0834 17.0405C15.4673 17.0405 14.2052 16.7007 14.2052 16.7007V22.359H18.3147C19.8538 22.359 21.1159 21.1624 21.1159 19.6702V6.25574H17.0218V6.25574Z" fill="url(#paint3_linear)"/>
<path d="M24.7636 6.25574C23.2244 6.25574 21.9624 7.4524 21.9624 8.94455V12.4607C22.6704 11.8845 23.9017 11.5152 25.8871 11.6038C26.9491 11.6481 28.0881 11.9288 28.0881 11.9288V13.0664C27.5186 12.7857 26.8414 12.5345 25.9641 12.4755C24.4557 12.372 23.5477 13.0812 23.5477 14.3222C23.5477 15.5779 24.4557 16.2871 25.9641 16.1689C26.8414 16.1098 27.5186 15.8438 28.0881 15.5779V16.7155C28.0881 16.7155 26.9645 16.9962 25.8871 17.0405C23.9017 17.1292 22.6704 16.7598 21.9624 16.1836V22.3886H26.0718C27.6109 22.3886 28.873 21.1919 28.873 19.6998V6.25574H24.7636V6.25574Z" fill="url(#paint4_linear)"/>
<defs>
<linearGradient id="paint0_linear" x1="29.7016" y1="15.3433" x2="36.618" y2="15.3433" gradientUnits="userSpaceOnUse">
<stop stop-color="#007940"/>
<stop offset="0.2285" stop-color="#00873F"/>
<stop offset="0.7433" stop-color="#40A737"/>
<stop offset="1" stop-color="#5CB531"/>
</linearGradient>
<linearGradient id="paint1_linear" x1="29.7014" y1="14.3083" x2="36.6183" y2="14.3083" gradientUnits="userSpaceOnUse">
<stop stop-color="#007940"/>
<stop offset="0.2285" stop-color="#00873F"/>
<stop offset="0.7433" stop-color="#40A737"/>
<stop offset="1" stop-color="#5CB531"/>
</linearGradient>
<linearGradient id="paint2_linear" x1="29.7014" y1="13.1827" x2="36.6181" y2="13.1827" gradientUnits="userSpaceOnUse">
<stop stop-color="#007940"/>
<stop offset="0.2285" stop-color="#00873F"/>
<stop offset="0.7433" stop-color="#40A737"/>
<stop offset="1" stop-color="#5CB531"/>
</linearGradient>
<linearGradient id="paint3_linear" x1="14.2173" y1="14.3083" x2="21.2408" y2="14.3083" gradientUnits="userSpaceOnUse">
<stop stop-color="#1F286F"/>
<stop offset="0.4751" stop-color="#004E94"/>
<stop offset="0.8261" stop-color="#0066B1"/>
<stop offset="1" stop-color="#006FBC"/>
</linearGradient>
<linearGradient id="paint4_linear" x1="21.9226" y1="14.3083" x2="28.744" y2="14.3083" gradientUnits="userSpaceOnUse">
<stop stop-color="#6C2C2F"/>
<stop offset="0.1735" stop-color="#882730"/>
<stop offset="0.5731" stop-color="#BE1833"/>
<stop offset="0.8585" stop-color="#DC0436"/>
<stop offset="1" stop-color="#E60039"/>
</linearGradient>
</defs>
</svg>
