<svg width="50" height="28" viewBox="0 0 50 28" fill="none" xmlns="http://www.w3.org/2000/svg">
<rect width="50" height="28" rx="3" fill="white"/>
<path d="M27.9743 8.4549H22.0258V19.1493H27.9743V8.4549Z" fill="#FF5F00"/>
<path d="M22.4034 13.8021C22.4034 11.6292 23.4231 9.70194 24.9906 8.45494C23.8387 7.54793 22.3846 7 20.7983 7C17.0403 7 14 10.042 14 13.8021C14 17.5622 17.0403 20.6042 20.7983 20.6042C22.3846 20.6042 23.8387 20.0563 24.9906 19.1494C23.4232 17.9211 22.4034 15.975 22.4034 13.8021Z" fill="#EB001B"/>
<path d="M36 13.8021C36 17.5622 32.9596 20.6042 29.2017 20.6042C27.6155 20.6042 26.1614 20.0563 25.0094 19.1494C26.5957 17.9024 27.5966 15.9751 27.5966 13.8022C27.5966 11.6293 26.5769 9.70203 25.0094 8.45503C26.1614 7.54793 27.6154 7 29.2017 7C32.9596 7 36 10.0609 36 13.8021Z" fill="#F79E1B"/>
</svg>
