<svg width="50" height="28" viewBox="0 0 50 28" fill="none" xmlns="http://www.w3.org/2000/svg">
<path d="M0 3C0 1.34315 1.34315 0 3 0H47C48.6569 0 50 1.34315 50 3V25C50 26.6569 48.6569 28 47 28H3C1.34315 28 0 26.6569 0 25V3Z" fill="white"/>
<path d="M7.72299 17.0777C9.77915 17.0777 11.446 15.4933 11.446 13.5389C11.446 11.5844 9.77915 10 7.72299 10C5.66684 10 4 11.5844 4 13.5389C4 15.4933 5.66684 17.0777 7.72299 17.0777Z" fill="#EB001B"/>
<path d="M12.2199 17.0777C14.2761 17.0777 15.9429 15.4933 15.9429 13.5389C15.9429 11.5844 14.2761 10 12.2199 10C10.1638 10 8.49692 11.5844 8.49692 13.5389C8.49692 15.4933 10.1638 17.0777 12.2199 17.0777Z" fill="#F79E1B"/>
<path d="M9.97052 10.7126C10.8669 11.3583 11.4441 12.3815 11.4441 13.5317C11.4441 14.6819 10.8669 15.7069 9.97052 16.3525C9.07411 15.7069 8.49692 14.6837 8.49692 13.5317C8.49692 12.3797 9.07597 11.3583 9.97052 10.7126Z" fill="#FF5F00"/>
<path d="M15.7109 15.8887V15.9187H15.6423V16.0881H15.6089V15.9187H15.5402V15.8887H15.7109ZM15.9726 15.8887V16.0881H15.9392V15.924L15.878 16.0687H15.8409L15.7796 15.9258V16.0881H15.7462V15.8887H15.7982L15.8594 16.0316L15.9207 15.8887H15.9726V15.8887Z" fill="#F79E1B"/>
<path d="M46.7402 14.8685V14.8985H46.6715V15.0678H46.6381V14.8985H46.5694V14.8685H46.7402ZM47 14.8685V15.0678H46.9666V14.9038L46.9054 15.0484H46.8701L46.8088 14.9055V15.0678H46.7754V14.8685H46.8274L46.8886 15.0114L46.9499 14.8685H47ZM21.3047 12.6298C21.8744 12.6298 22.2772 13.002 22.2772 13.5348V14.9637H21.7519V13.6989C21.7519 13.316 21.5441 13.1026 21.1952 13.1026C20.8574 13.1026 20.5753 13.3143 20.5753 13.7042V14.9655H20.0501V13.7006C20.0501 13.3178 19.8422 13.1043 19.4933 13.1043C19.1555 13.1043 18.8734 13.316 18.8734 13.7059V14.9673H18.3482V12.6915H18.8678V12.9685C19.0609 12.7004 19.3578 12.6316 19.6028 12.6316C19.9684 12.6316 20.2653 12.785 20.4305 13.0373C20.6384 12.7092 21.0077 12.6298 21.3047 12.6298ZM25.3246 12.688V14.9637H24.8031V14.6903C24.6379 14.8914 24.3911 15.022 24.0514 15.022C23.3815 15.022 22.8544 14.521 22.8544 13.8259C22.8544 13.1308 23.3815 12.6298 24.0514 12.6298C24.3911 12.6298 24.6379 12.7621 24.8031 12.965V12.688H25.3246ZM24.1127 13.0973C23.6636 13.0973 23.3907 13.4272 23.3907 13.8259C23.3907 14.2246 23.6636 14.5545 24.1127 14.5545C24.5451 14.5545 24.8346 14.2405 24.8346 13.8259C24.8346 13.4113 24.5451 13.0973 24.1127 13.0973ZM27.9526 12.8715L27.728 13.2578C27.5833 13.1732 27.2863 13.0638 26.9894 13.0638C26.7054 13.0638 26.5365 13.1732 26.5365 13.3337C26.5365 13.4925 26.711 13.5383 26.9318 13.5683L27.1787 13.6036C27.7002 13.6742 28.0101 13.8859 28.0101 14.2757C28.0101 14.7132 27.6111 15.0184 26.9207 15.0184C26.6739 15.0184 26.2433 14.9726 25.8944 14.7256L26.1375 14.3534C26.3101 14.4786 26.5365 14.5862 26.9263 14.5862C27.2826 14.5862 27.4701 14.4786 27.4701 14.3093C27.4701 14.1805 27.3402 14.0958 27.0562 14.057L26.8056 14.027C26.2767 13.9582 25.9946 13.7253 25.9946 13.3601C25.9946 12.9085 26.3751 12.6316 26.9838 12.6316C27.3587 12.6316 27.7058 12.7198 27.9526 12.8715ZM30.2113 12.688V13.1396H29.2944V14.1293C29.2944 14.4363 29.4652 14.5545 29.6749 14.5545C29.8364 14.5545 30.0145 14.4857 30.1575 14.401L30.3653 14.7979C30.1723 14.9214 29.931 15.0237 29.6304 15.0237C29.0884 15.0237 28.7711 14.7468 28.7711 14.1399V13.1396H28.2941V12.688H28.7711V12H29.2963V12.688H30.2113ZM31.8222 12.6298C32.4922 12.6298 32.9506 13.1149 32.9543 13.8241C32.9543 13.8876 32.9488 13.9529 32.9451 14.0094H31.1764C31.2469 14.4186 31.5494 14.588 31.889 14.588C32.1284 14.588 32.3846 14.498 32.5813 14.3481L32.8411 14.7027C32.5497 14.9408 32.2194 15.0237 31.8575 15.0237C31.1411 15.0237 30.6326 14.5492 30.6326 13.8276C30.6307 13.1132 31.1188 12.6298 31.8222 12.6298ZM31.8129 13.0708C31.4399 13.0708 31.2339 13.2984 31.1782 13.6318H32.4198C32.3623 13.2772 32.1451 13.0708 31.8129 13.0708ZM34.7676 12.6298C34.9272 12.6298 35.0497 12.6492 35.1703 12.6933L35.046 13.1855C34.9365 13.1308 34.7769 13.1026 34.6488 13.1026C34.3166 13.1026 34.079 13.3266 34.079 13.713V14.9637H33.5575V12.688H34.0753V12.9438C34.2312 12.7286 34.4762 12.6298 34.7676 12.6298ZM36.9297 12.6298C37.5997 12.6298 38.1268 13.1308 38.1268 13.8259C38.1268 14.521 37.5997 15.022 36.9297 15.022C36.5901 15.022 36.3451 14.8914 36.1799 14.6921V15.9129H35.6584V12.688H36.1799V12.9579C36.3451 12.7603 36.5901 12.6298 36.9297 12.6298ZM36.8666 13.0973C36.4342 13.0973 36.1447 13.4113 36.1447 13.8259C36.1447 14.2405 36.4342 14.5545 36.8666 14.5545C37.3158 14.5545 37.5886 14.2246 37.5886 13.8259C37.5886 13.4272 37.3158 13.0973 36.8666 13.0973ZM41.0258 12.688V14.9637H40.5043V14.6903C40.3391 14.8914 40.0922 15.022 39.7526 15.022C39.0826 15.022 38.5555 14.521 38.5555 13.8259C38.5555 13.1308 39.0826 12.6298 39.7526 12.6298C40.0922 12.6298 40.3391 12.7621 40.5043 12.965V12.688H41.0258ZM39.8138 13.0973C39.3647 13.0973 39.0919 13.4272 39.0919 13.8259C39.0919 14.2246 39.3647 14.5545 39.8138 14.5545C40.2463 14.5545 40.5358 14.2405 40.5358 13.8259C40.5358 13.4113 40.2463 13.0973 39.8138 13.0973ZM43.6538 12.8715L43.4292 13.2578C43.2844 13.1732 42.9875 13.0638 42.6905 13.0638C42.4066 13.0638 42.2377 13.1732 42.2377 13.3337C42.2377 13.4925 42.4121 13.5383 42.633 13.5683L42.8798 13.6036C43.4014 13.6742 43.7113 13.8859 43.7113 14.2757C43.7113 14.7132 43.3123 15.0184 42.6219 15.0184C42.375 15.0184 41.9445 14.9726 41.5955 14.7256L41.8387 14.3534C42.0113 14.4786 42.2377 14.5862 42.6274 14.5862C42.9838 14.5862 43.1712 14.4786 43.1712 14.3093C43.1712 14.1805 43.0413 14.0958 42.7574 14.057L42.5068 14.027C41.9779 13.9582 41.6958 13.7253 41.6958 13.3601C41.6958 12.9085 42.0762 12.6316 42.685 12.6316C43.0599 12.6316 43.4069 12.7198 43.6538 12.8715ZM46.1351 12.8715L45.9106 13.2578C45.7658 13.1732 45.4689 13.0638 45.1719 13.0638C44.888 13.0638 44.7191 13.1732 44.7191 13.3337C44.7191 13.4925 44.8935 13.5383 45.1144 13.5683L45.3612 13.6036C45.8827 13.6742 46.1927 13.8859 46.1927 14.2757C46.1927 14.7132 45.7937 15.0184 45.1032 15.0184C44.8564 15.0184 44.4258 14.9726 44.0769 14.7256L44.32 14.3534C44.4926 14.4786 44.7191 14.5862 45.1088 14.5862C45.4652 14.5862 45.6526 14.4786 45.6526 14.3093C45.6526 14.1805 45.5227 14.0958 45.2387 14.057L44.9882 14.027C44.4592 13.9582 44.1771 13.7253 44.1771 13.3601C44.1771 12.9085 44.5576 12.6316 45.1663 12.6316C45.5412 12.6316 45.8883 12.7198 46.1351 12.8715Z" fill="black"/>
</svg>
