<svg width="50" height="28" viewBox="0 0 50 28" fill="none" xmlns="http://www.w3.org/2000/svg">
<path d="M0 3C0 1.34315 1.34315 0 3 0H47C48.6569 0 50 1.34315 50 3V25C50 26.6569 48.6569 28 47 28H3C1.34315 28 0 26.6569 0 25V3Z" fill="white"/>
<path d="M16.4401 22V14.8413H17.6439V15.3672C17.8095 15.1103 18.1334 14.9275 18.3871 14.8465C18.6426 14.7654 18.9054 14.7241 19.1753 14.7241C19.8411 14.7241 20.5519 14.9396 21.1295 15.5137C21.6622 16.0448 21.9447 16.6913 21.9447 17.4569C21.9447 17.8086 21.8745 18.1534 21.7341 18.4862C21.5992 18.8189 21.4048 19.1121 21.1565 19.3569C20.8938 19.6207 20.5951 19.819 20.2658 19.9534C19.9383 20.0862 19.6306 20.1552 19.2293 20.1552C18.936 20.1552 18.6534 20.1121 18.3871 20.0224C18.1244 19.9414 17.7573 19.7397 17.6241 19.5172V21.9983H16.4401V22ZM19.1357 15.7413C18.6966 15.7413 18.3133 15.8724 18.0002 16.181C17.6799 16.5017 17.554 16.9603 17.554 17.4172C17.554 17.9034 17.6745 18.3776 17.9876 18.6983C18.3025 19.0207 18.6912 19.1327 19.1447 19.1327C19.6036 19.1327 19.9761 18.9534 20.2586 18.6793C20.5843 18.362 20.7372 17.9327 20.7372 17.4689C20.7372 16.962 20.5807 16.512 20.2658 16.193C19.9976 15.9172 19.6054 15.7413 19.1357 15.7413Z" fill="#204CAC"/>
<path d="M30.197 22L31.2137 19.7431L28.8834 14.8413H30.1521L31.8076 18.5207L33.3353 14.8413H34.6111L31.4441 22H30.197Z" fill="#204CAC"/>
<path d="M26.9724 20.062V19.5206C26.8393 19.7413 26.4722 19.9447 26.2094 20.0258C25.9413 20.1154 25.657 20.1585 25.3673 20.1585C24.9642 20.1585 24.6583 20.0913 24.329 19.9568C24.0015 19.8223 23.7028 19.6223 23.4401 19.3585C23.1899 19.1154 22.9956 18.8206 22.8624 18.4895C22.7221 18.1551 22.6501 17.8119 22.6501 17.4602C22.6501 16.6947 22.9326 16.0481 23.467 15.5171C24.0465 14.9412 24.7573 14.7274 25.4231 14.7274C25.6912 14.7274 25.9539 14.7688 26.2094 14.8498C26.465 14.9309 26.7889 15.1136 26.9544 15.3705V14.8447H28.1565V20.0654H26.9724V20.062ZM24.329 16.193C24.0141 16.5136 23.8593 16.9637 23.8593 17.4688C23.8593 17.9309 24.0141 18.362 24.338 18.6792C24.6205 18.9533 24.993 19.1327 25.4519 19.1327C25.9053 19.1327 26.2922 19.0206 26.6071 18.6982C26.922 18.3775 27.0408 17.9033 27.0408 17.4171C27.0408 16.9602 26.9166 16.5033 26.5981 16.1809C26.2814 15.8705 25.8999 15.7412 25.4627 15.7412C24.9894 15.7412 24.6007 15.9171 24.329 16.193Z" fill="#204CAC"/>
<g clip-path="url(#clip0)">
<path d="M36.1277 10.6276L36.0665 7.14136H37.2146V11.5397H35.5627L34.42 7.9293H34.3912L34.456 11.5397H33.3169V7.14136H35.0354L36.1025 10.6276H36.1277Z" fill="#204CAC"/>
<path d="M15.2736 7.55171L14.6402 11.5794H13.3896L14.2461 7.14136H16.3101L17.1667 11.5794H15.9196L15.3006 7.55171H15.2736Z" fill="#204CAC"/>
<path d="M20.6774 10.538L21.2514 7.14136H23.1391L23.2434 11.5794H22.0828L22.0504 7.58964H22.027L21.2532 11.5794H20.08L19.3026 7.58964H19.2756L19.2468 11.5794H18.088L18.1941 7.14136H20.0836L20.654 10.538H20.6774Z" fill="#204CAC"/>
<path d="M30.3945 10.9138C30.7203 10.9138 30.8174 10.7018 30.8408 10.5949C30.8498 10.5466 30.8498 10.4828 30.8498 10.4242V7.14136H32.0267V10.3242C32.0267 10.4069 32.0177 10.5724 32.0141 10.6173C31.9349 11.4466 31.2475 11.7121 30.3945 11.7121C29.5434 11.7121 28.8596 11.4466 28.7804 10.6173C28.775 10.5724 28.766 10.4069 28.7696 10.3242V7.14136H29.9429V10.4259C29.9393 10.4828 29.9447 10.5483 29.9519 10.5966C29.9735 10.7035 30.0742 10.9138 30.3945 10.9138Z" fill="#204CAC"/>
<path d="M11.4371 10.3276C11.4803 10.4363 11.4677 10.5742 11.4461 10.6569C11.4083 10.8052 11.304 10.957 10.9926 10.957C10.7047 10.957 10.5302 10.7966 10.5302 10.5535L10.5266 10.1225H9.28674V10.4656C9.28674 11.457 10.0983 11.7552 10.9675 11.7552C11.8096 11.7552 12.4988 11.4828 12.6068 10.7432C12.6644 10.3587 12.623 10.1069 12.6032 10.0138C12.4088 9.08106 10.6471 8.80865 10.5158 8.28795C10.4924 8.19657 10.4978 8.10519 10.5104 8.05519C10.5464 7.90691 10.6471 7.75346 10.9351 7.75346C11.2086 7.75346 11.3687 7.91725 11.3687 8.15346V8.43105H12.5258V8.11898C12.5258 7.15 11.6171 7 10.9603 7C10.1379 7 9.46309 7.26207 9.34073 7.98795C9.30834 8.1845 9.30474 8.36036 9.34972 8.58451C9.55127 9.49314 11.1996 9.75349 11.4371 10.3276Z" fill="#204CAC"/>
<path d="M26.5059 10.3224C26.5527 10.4276 26.5329 10.5638 26.5149 10.6466C26.4789 10.7914 26.3727 10.9397 26.0686 10.9397C25.7807 10.9397 25.6079 10.7811 25.6079 10.5414V10.1138H24.3753V10.4552C24.3753 11.438 25.1815 11.7293 26.0452 11.7293C26.8712 11.7293 27.555 11.4604 27.6647 10.7259C27.7205 10.3466 27.6791 10.0983 27.6593 10.0017C27.4668 9.08276 25.7249 8.81034 25.5971 8.29309C25.5738 8.20688 25.581 8.11378 25.5899 8.0655C25.6205 7.92412 25.7213 7.77067 26.0092 7.77067C26.2809 7.77067 26.4375 7.92929 26.4375 8.16378V8.43792H27.5802V8.13102C27.5802 7.17411 26.6822 7.02411 26.0362 7.02411C25.2193 7.02411 24.5499 7.27929 24.4329 7.99999C24.3951 8.19309 24.3915 8.36723 24.4419 8.59137C24.6398 9.49311 26.2702 9.75173 26.5059 10.3224Z" fill="#204CAC"/>
<path d="M40.0631 10.8691C40.396 10.8691 40.5148 10.6691 40.5364 10.5484C40.5436 10.4984 40.5472 10.4346 40.5472 10.3794V9.73631H40.0739V9.0863H41.715V10.2794C41.715 10.3622 41.7114 10.4242 41.6988 10.5725C41.6215 11.376 40.8891 11.6691 40.0667 11.6691C39.248 11.6691 38.5174 11.376 38.4436 10.5725C38.4256 10.4242 38.4256 10.3622 38.4256 10.2794V8.41043C38.4256 8.33112 38.4346 8.18973 38.4472 8.11904C38.548 7.28455 39.248 7.02075 40.0685 7.02075C40.8909 7.02075 41.6143 7.2811 41.697 8.11904C41.715 8.25525 41.706 8.41043 41.706 8.41043L41.7078 8.55526H40.54V8.30698C40.54 8.30698 40.54 8.20008 40.5238 8.13629C40.504 8.04146 40.414 7.81559 40.0595 7.81559C39.7266 7.81559 39.6258 8.02939 39.6007 8.13629C39.5863 8.19491 39.5827 8.27594 39.5827 8.34836V10.3794C39.5827 10.4363 39.5863 10.4984 39.5917 10.5484C39.6097 10.6691 39.7248 10.8691 40.0631 10.8691Z" fill="#204CAC"/>
</g>
<defs>
<clipPath id="clip0">
<rect width="32.4265" height="14.0985" fill="white" transform="translate(9.28674 7)"/>
</clipPath>
</defs>
</svg>
