<svg width="50" height="28" viewBox="0 0 50 28" fill="none" xmlns="http://www.w3.org/2000/svg">
<rect width="50" height="28" rx="3" fill="white"/>
<path d="M17.8959 6.00055H24.1359C25.007 6.00055 25.5487 6.718 25.3455 7.60113L22.4404 20.2054C22.2353 21.0854 21.3632 21.8035 20.4916 21.8035H14.2522C13.3824 21.8035 12.8394 21.0854 13.0426 20.2054L15.949 7.60113C16.1522 6.718 17.0238 6.00055 17.8959 6.00055Z" fill="#E21836"/>
<path d="M23.6164 5.99994H30.7922C31.6631 5.99994 31.2704 6.71739 31.0655 7.60052L28.1608 20.2047C27.957 21.0848 28.0206 21.8029 27.1479 21.8029H19.9721C19.0994 21.8029 18.5593 21.0848 18.7643 20.2047L21.6689 7.60052C21.8751 6.71739 22.7449 5.99994 23.6164 5.99994Z" fill="#00447C"/>
<path d="M30.5076 5.99994H36.7475C37.6198 5.99994 38.1616 6.71739 37.9567 7.60052L35.052 20.2047C34.847 21.0848 33.9743 21.8029 33.1022 21.8029H26.8651C25.9924 21.8029 25.4511 21.0848 25.6555 20.2047L28.5606 7.60052C28.7638 6.71739 29.6349 5.99994 30.5076 5.99994Z" fill="#007B84"/>
<path d="M19.5253 10.0392C18.8836 10.0458 18.6941 10.0392 18.6336 10.0247C18.6103 10.1365 18.1773 12.1549 18.1761 12.1566C18.0829 12.565 18.015 12.8561 17.7846 13.0441C17.6538 13.1533 17.5011 13.206 17.3241 13.206C17.0395 13.206 16.8737 13.0633 16.8459 12.7925L16.8406 12.6995C16.8406 12.6995 16.9273 12.1525 16.9273 12.1494C16.9273 12.1494 17.3817 10.31 17.4631 10.0668C17.4673 10.053 17.4686 10.0458 17.4696 10.0392C16.585 10.047 16.4282 10.0392 16.4174 10.0247C16.4115 10.0445 16.3896 10.1586 16.3896 10.1586L15.9256 12.2318L15.8857 12.4076L15.8086 12.9827C15.8086 13.1533 15.8418 13.2926 15.9078 13.4103C16.1192 13.7836 16.7222 13.8396 17.0634 13.8396C17.5029 13.8396 17.9153 13.7452 18.1939 13.5729C18.6776 13.2841 18.8041 12.8327 18.917 12.4316L18.9693 12.2258C18.9693 12.2258 19.4374 10.3154 19.517 10.0668C19.52 10.053 19.5212 10.0458 19.5253 10.0392ZM21.1182 11.5803C21.0053 11.5803 20.7991 11.608 20.6138 11.6997C20.5466 11.7346 20.483 11.7749 20.4159 11.815L20.4765 11.5942L20.4433 11.557C20.0505 11.6373 19.9626 11.6481 19.5997 11.6997L19.5692 11.7202C19.5271 12.0732 19.4897 12.3387 19.3335 13.0326C19.274 13.2883 19.2123 13.5465 19.1504 13.8017L19.1671 13.8341C19.539 13.8143 19.6518 13.8143 19.975 13.8197L20.0012 13.7909C20.0423 13.5784 20.0476 13.5286 20.1385 13.0981C20.1813 12.894 20.2704 12.4455 20.3143 12.2858C20.3951 12.248 20.4748 12.2108 20.5509 12.2108C20.732 12.2108 20.7099 12.3705 20.7029 12.4341C20.6952 12.5409 20.6292 12.8898 20.5615 13.1894L20.5163 13.3827C20.4848 13.5255 20.4503 13.6643 20.4188 13.8058L20.4325 13.8341C20.7991 13.8143 20.9109 13.8143 21.2239 13.8197L21.2607 13.7909C21.3173 13.4589 21.3338 13.3701 21.4342 12.8867L21.4847 12.6646C21.5828 12.23 21.6321 12.0096 21.5579 11.8301C21.4794 11.6289 21.2911 11.5803 21.1182 11.5803ZM22.8975 12.0354C22.7027 12.0732 22.5785 12.0984 22.455 12.1147C22.3325 12.1345 22.2131 12.1525 22.0248 12.1789L22.0099 12.1926L21.9962 12.2035C21.9766 12.3452 21.9629 12.4677 21.9369 12.6118C21.9149 12.7607 21.8809 12.9299 21.8257 13.173C21.783 13.3592 21.7609 13.424 21.7366 13.4895C21.7129 13.555 21.6867 13.6186 21.6387 13.8017L21.6499 13.8186L21.6593 13.8341C21.8353 13.8256 21.9505 13.8196 22.0688 13.8186C22.187 13.8143 22.3094 13.8186 22.4989 13.8196L22.5155 13.806L22.5333 13.7909C22.5607 13.6258 22.5648 13.5814 22.5815 13.5009C22.5981 13.4145 22.6267 13.2949 22.6968 12.9756C22.7299 12.8255 22.7669 12.676 22.8013 12.5229C22.837 12.3705 22.8744 12.2203 22.91 12.0703L22.9047 12.0522L22.8975 12.0354ZM22.9017 11.4218C22.7247 11.3162 22.4139 11.3497 22.2048 11.4956C21.9963 11.6385 21.9726 11.8414 22.149 11.9484C22.323 12.051 22.6349 12.0205 22.8422 11.8734C23.0503 11.7274 23.0763 11.5263 22.9017 11.4218ZM23.9724 13.8672C24.3305 13.8672 24.6977 13.7674 24.9741 13.4714C25.1867 13.2313 25.2842 12.8742 25.3179 12.7271C25.4279 12.2396 25.3423 12.0119 25.2347 11.8733C25.0714 11.662 24.7827 11.5942 24.4832 11.5942C24.3032 11.5942 23.8743 11.6122 23.5392 11.9243C23.2986 12.1495 23.1874 12.455 23.1203 12.748C23.0526 13.0465 22.9748 13.5838 23.4638 13.7837C23.6146 13.8492 23.8321 13.8672 23.9724 13.8672ZM23.9444 12.7703C24.027 12.4011 24.1245 12.0912 24.3733 12.0912C24.5683 12.0912 24.5824 12.3218 24.4957 12.6922C24.4802 12.7744 24.409 13.0801 24.3127 13.2103C24.2455 13.3063 24.166 13.3646 24.0781 13.3646C24.0519 13.3646 23.8963 13.3646 23.8939 13.1311C23.8927 13.0159 23.9159 12.8981 23.9444 12.7703ZM26.2133 13.8197L26.2413 13.791C26.281 13.5784 26.2875 13.5285 26.3754 13.0981C26.4194 12.894 26.5104 12.4455 26.5531 12.2858C26.634 12.2479 26.7123 12.2107 26.7908 12.2107C26.9707 12.2107 26.9488 12.3704 26.9417 12.434C26.9352 12.541 26.8691 12.8897 26.8002 13.1892L26.7575 13.3826C26.7248 13.5255 26.6892 13.6642 26.6577 13.8059L26.6714 13.8342C27.0392 13.8143 27.1467 13.8143 27.4616 13.8197L27.4996 13.791C27.5548 13.4588 27.5697 13.37 27.6731 12.8868L27.7224 12.6645C27.821 12.2299 27.8708 12.0096 27.7978 11.8301C27.7171 11.6289 27.5276 11.5804 27.3571 11.5804C27.2441 11.5804 27.0368 11.6079 26.8526 11.6998C26.7867 11.7347 26.7207 11.7748 26.6559 11.8151L26.7123 11.5942L26.6821 11.5569C26.2894 11.6374 26.1996 11.6481 25.8372 11.6998L25.8094 11.7202C25.7654 12.0733 25.7297 12.3385 25.5735 13.0326C25.514 13.2884 25.4522 13.5466 25.3905 13.8017L25.4071 13.8342C25.7795 13.8143 25.8907 13.8143 26.2133 13.8197ZM28.9153 13.8341C28.9385 13.72 29.0758 13.0441 29.077 13.0441C29.077 13.0441 29.194 12.5481 29.2011 12.5301C29.2011 12.5301 29.2379 12.4785 29.2747 12.458H29.3289C29.8398 12.458 30.4167 12.458 30.8688 12.1219C31.1765 11.8914 31.3869 11.5509 31.4807 11.1372C31.505 11.0358 31.523 10.9151 31.523 10.7944C31.523 10.636 31.4915 10.4792 31.4006 10.3567C31.17 10.0307 30.7108 10.0247 30.1808 10.0223C30.1791 10.0223 29.9195 10.0247 29.9195 10.0247C29.241 10.0332 28.9689 10.0307 28.8571 10.0169C28.8477 10.0669 28.8299 10.1557 28.8299 10.1557C28.8299 10.1557 28.5868 11.294 28.5868 11.2958C28.5868 11.2958 28.0052 13.7159 27.9778 13.8299C28.5702 13.8227 28.8131 13.8227 28.9153 13.8341ZM29.3657 11.8121C29.3657 11.8121 29.6241 10.6761 29.6229 10.6804L29.6312 10.6222L29.6349 10.5777L29.7382 10.5885C29.7382 10.5885 30.2711 10.6348 30.2836 10.636C30.4939 10.7182 30.5806 10.9302 30.5201 11.2068C30.4649 11.4596 30.3026 11.6722 30.0941 11.7749C29.9224 11.8619 29.712 11.8691 29.4953 11.8691H29.355L29.3657 11.8121ZM30.9746 12.7913C30.9063 13.0855 30.8278 13.6228 31.3144 13.8143C31.4695 13.881 31.6085 13.9008 31.7498 13.8936C31.899 13.8855 32.0373 13.8098 32.1653 13.701C32.1538 13.7457 32.1422 13.7905 32.1307 13.8354L32.1527 13.8641C32.5027 13.8492 32.6113 13.8492 32.9905 13.8521L33.0248 13.8257C33.0802 13.4968 33.1324 13.1774 33.2762 12.5482C33.3464 12.2468 33.4163 11.9483 33.4883 11.6481L33.477 11.6151C33.0855 11.6884 32.9809 11.7041 32.6043 11.758L32.5757 11.7815C32.5719 11.8121 32.5679 11.8415 32.5643 11.8708C32.5057 11.7752 32.4209 11.6936 32.2899 11.6427C32.1225 11.5762 31.7291 11.662 31.391 11.973C31.1535 12.1951 31.0394 12.4994 30.9746 12.7913ZM31.7968 12.8093C31.8806 12.4467 31.9769 12.1399 32.2263 12.1399C32.3841 12.1399 32.4671 12.287 32.4502 12.5379C32.4368 12.6004 32.4224 12.6663 32.4052 12.7409C32.3803 12.8486 32.3532 12.9554 32.3269 13.0624C32.3001 13.1356 32.2689 13.2046 32.2347 13.2505C32.1705 13.3425 32.0178 13.3995 31.9299 13.3995C31.905 13.3995 31.751 13.3995 31.7457 13.1702C31.7445 13.056 31.7678 12.9384 31.7968 12.8093ZM36.0905 11.6121L36.0602 11.5772C35.6729 11.6566 35.6027 11.6692 35.2468 11.7177L35.2207 11.7442C35.2195 11.7485 35.2184 11.7551 35.2166 11.7611L35.2154 11.7551C34.9504 12.3728 34.9582 12.2395 34.7425 12.7258C34.7413 12.7037 34.7413 12.6898 34.7401 12.6663L34.6861 11.6121L34.6522 11.5772C34.2464 11.6566 34.2368 11.6692 33.862 11.7177L33.8328 11.7442C33.8287 11.7568 33.8287 11.7706 33.8263 11.7857L33.8287 11.791C33.8756 12.033 33.8643 11.979 33.9113 12.3608C33.9332 12.5481 33.9624 12.7366 33.9843 12.9216C34.0213 13.2313 34.042 13.3838 34.0871 13.8564C33.834 14.2784 33.7741 14.4381 33.5305 14.8085L33.5321 14.8122L33.3606 15.0864C33.341 15.1153 33.3232 15.1351 33.2982 15.1436C33.2708 15.1573 33.2353 15.1597 33.1858 15.1597H33.0908L32.9495 15.6346L33.4342 15.6431C33.7188 15.6419 33.8976 15.5074 33.9939 15.3266L34.2987 14.7989H34.2938L34.3259 14.7617C34.5309 14.3156 36.0905 11.6121 36.0905 11.6121ZM30.9746 17.8495H30.769L31.53 15.3057H31.7825L31.8627 15.0436L31.8704 15.335C31.861 15.5151 32.0012 15.6748 32.3696 15.6484H32.7956L32.9422 15.1586H32.7819C32.6898 15.1586 32.647 15.1351 32.6523 15.0846L32.6446 14.7882H31.8557V14.7897C31.6006 14.7951 30.8389 14.8145 30.6847 14.8559C30.4981 14.9045 30.3014 15.0475 30.3014 15.0475L30.3787 14.7851H29.6407L29.487 15.3057L28.7157 17.8884H28.566L28.4193 18.3746H29.8891L29.8398 18.5368H30.5641L30.6121 18.3746H30.8153L30.9746 17.8495ZM30.3715 15.8225C30.2534 15.8556 30.0334 15.9558 30.0334 15.9558L30.229 15.3057H30.8153L30.6739 15.7793C30.6739 15.7793 30.4928 15.7901 30.3715 15.8225ZM30.3828 16.7513C30.3828 16.7513 30.1986 16.7747 30.0774 16.8023C29.958 16.8389 29.7341 16.9542 29.7341 16.9542L29.9361 16.2776H30.5255L30.3828 16.7513ZM30.0543 17.8555H29.4661L29.6366 17.2845H30.2229L30.0543 17.8555ZM31.4707 16.2776H32.3184L32.1966 16.6763H31.3376L31.2086 17.1122H31.9602L31.3911 17.922C31.3513 17.9815 31.3155 18.0025 31.2758 18.0193C31.236 18.0397 31.1837 18.0637 31.1231 18.0637H30.9146L30.7713 18.5411H31.3167C31.6002 18.5411 31.7677 18.4108 31.8914 18.2397L32.2816 17.6999L32.3654 18.248C32.3832 18.3507 32.4562 18.4108 32.5057 18.4341C32.5603 18.4618 32.6167 18.5093 32.6964 18.5163C32.7819 18.52 32.8436 18.523 32.8847 18.523H33.1527L33.3136 17.9887H33.2079C33.1472 17.9887 33.0427 17.9784 33.0249 17.9592C33.0071 17.9358 33.0071 17.8999 32.9975 17.8452L32.9125 17.2959H32.5644L32.7171 17.1122H33.5744L33.7063 16.6763H32.9125L33.0362 16.2776H33.8275L33.9743 15.786H31.615L31.4707 16.2776ZM24.3103 17.9665L24.5082 17.3013H25.3215L25.4701 16.8065H24.6561L24.7803 16.3971H25.5758L25.7231 15.918H23.7328L23.5885 16.3971H24.0407L23.9201 16.8065H23.4667L23.3164 17.3097H23.7684L23.5047 18.1898C23.4691 18.3063 23.5214 18.3507 23.5546 18.4048C23.5885 18.4575 23.6229 18.4924 23.7001 18.5122C23.7798 18.5302 23.8344 18.541 23.9087 18.541H24.8255L24.9888 17.9929L24.5824 18.0493C24.504 18.0493 24.2866 18.0398 24.3103 17.9665ZM24.4036 14.7821L24.1975 15.1585C24.1534 15.2407 24.1137 15.2918 24.078 15.3153C24.0465 15.3351 23.9841 15.3434 23.8938 15.3434H23.7863L23.6425 15.8249H23.9997C24.1714 15.8249 24.3032 15.7613 24.3662 15.7295C24.4339 15.6929 24.4517 15.7138 24.504 15.6628L24.6246 15.5572H25.7398L25.8878 15.0558H25.0715L25.214 14.7821H24.4036ZM26.05 17.9761C26.0309 17.9485 26.0446 17.8998 26.0737 17.7983L26.3785 16.7789H27.4628C27.6208 16.7766 27.7348 16.7747 27.8091 16.7693C27.8888 16.7609 27.9755 16.7321 28.0699 16.6805C28.1674 16.6264 28.2173 16.5694 28.2594 16.5039C28.3064 16.4386 28.3819 16.2956 28.4466 16.0752L28.8298 14.7851L27.7046 14.7917C27.7046 14.7917 27.3581 14.8434 27.2056 14.9004C27.0516 14.964 26.8317 15.1417 26.8317 15.1417L26.9333 14.788H26.2382L25.2651 18.0493C25.2306 18.1759 25.2075 18.2679 25.2022 18.323C25.2004 18.3825 25.2764 18.4414 25.3257 18.4858C25.3839 18.5302 25.47 18.523 25.5526 18.5302C25.6395 18.5368 25.763 18.541 25.9334 18.541H26.4676L26.6316 17.9815L26.1534 18.0272C26.1023 18.0272 26.0653 17.9995 26.05 17.9761ZM26.5751 16.0903H27.714L27.6416 16.3196C27.6314 16.325 27.6071 16.3082 27.4912 16.3221H26.505L26.5751 16.0903ZM26.8033 15.3212H27.9517L27.8691 15.5974C27.8691 15.5974 27.3278 15.592 27.2412 15.6082C26.8597 15.6749 26.6369 15.8808 26.6369 15.8808L26.8033 15.3212ZM27.6671 17.0875C27.6577 17.1218 27.6428 17.1427 27.6219 17.1584C27.5988 17.1734 27.5614 17.1788 27.5056 17.1788H27.3433L27.3529 16.8996H26.6779L26.6505 18.2648C26.6494 18.3633 26.6589 18.4204 26.7302 18.466C26.8015 18.523 27.0213 18.5303 27.3171 18.5303H27.7401L27.8928 18.0192L27.5246 18.0397L27.4022 18.0469C27.3854 18.0397 27.3695 18.0331 27.3517 18.0151C27.3361 17.9995 27.31 18.0091 27.3142 17.9106L27.3171 17.5606L27.7033 17.5445C27.9118 17.5445 28.001 17.4759 28.077 17.4106C28.1495 17.348 28.1733 17.2761 28.2007 17.1788L28.2654 16.869H27.7348L27.6671 17.0875Z" fill="#FEFEFE"/>
</svg>
