<svg width="50" height="28" viewBox="0 0 50 28" fill="none" xmlns="http://www.w3.org/2000/svg">
<path d="M0 3C0 1.34315 1.34315 0 3 0H47C48.6569 0 50 1.34315 50 3V25C50 26.6569 48.6569 28 47 28H3C1.34315 28 0 26.6569 0 25V3Z" fill="white"/>
<g clip-path="url(#clip0)">
<path d="M32.1433 6.35583C33.1116 6.08453 34.0745 5.81323 35.043 5.54193C36.0113 5.27063 36.9742 4.99933 37.9425 4.72803C38.5213 4.56739 39 5.43111 39 6.65473C39 7.76752 39 8.88047 39 9.99327C39 11.1062 39 12.219 39 13.3318C39 14.5554 38.527 15.4247 37.9425 15.2585C36.9742 14.9872 36.0113 14.7159 35.043 14.4391C34.0745 14.1678 33.1117 13.8965 32.1433 13.6252C31.5645 13.4592 31.0858 12.7282 31.0858 11.9919C31.0858 11.3219 31.0858 10.6576 31.0858 9.9876C31.0858 9.32314 31.0858 8.65332 31.0858 7.98334C31.0859 7.25281 31.5645 6.52198 32.1433 6.35583Z" fill="#005048"/>
<path d="M17.8566 6.35498C16.8883 6.08368 15.9253 5.81238 14.957 5.54108C13.9887 5.26978 13.0203 4.99848 12.0575 4.72718C11.473 4.56118 11 5.43041 11 6.65403C11 7.76682 11 8.87977 11 9.99257C11 11.1055 11 12.2183 11 13.3311C11 14.5547 11.473 15.424 12.0575 15.2578C13.026 14.9865 13.9887 14.7152 14.9572 14.4384C15.9255 14.1671 16.8884 13.8958 17.8567 13.6245C18.4355 13.4585 18.9085 12.7275 18.9085 11.9912C18.9085 11.3212 18.9085 10.6569 18.9085 9.9869C18.9085 9.32244 18.9085 8.65262 18.9085 7.98264C18.9085 7.25196 18.4355 6.52114 17.8566 6.35498Z" fill="#00E77D"/>
<path d="M27.0454 6.35583C27.5296 6.08453 28.0138 5.81323 28.4924 5.54193C28.9766 5.27063 29.4607 4.99933 29.9449 4.72803C30.2343 4.56739 30.4737 5.43111 30.4737 6.65473C30.4737 7.76752 30.4737 8.88047 30.4737 9.99327C30.4737 11.1062 30.4737 12.219 30.4737 13.3318C30.4737 14.5554 30.2343 15.4247 29.9449 15.2585C29.4607 14.9872 28.9766 14.7159 28.4924 14.4391C28.0082 14.1678 27.5241 13.8965 27.0454 13.6252C26.756 13.4592 26.5166 12.7282 26.5166 11.9919C26.5166 11.3219 26.5166 10.6576 26.5166 9.9876C26.5166 9.32314 26.5166 8.65332 26.5166 7.98334C26.5168 7.25281 26.756 6.52198 27.0454 6.35583Z" fill="#007147"/>
<path d="M22.9548 6.3558C22.4705 6.0845 21.9863 5.8132 21.5022 5.5419C21.018 5.2706 20.5338 4.99929 20.0552 4.72799C19.7657 4.56751 19.5263 5.43123 19.5263 6.65484C19.5263 7.76764 19.5263 8.88059 19.5263 9.99339C19.5263 11.1063 19.5263 12.2191 19.5263 13.3319C19.5263 14.5555 19.7657 15.4248 20.0551 15.2586C20.5393 14.9873 21.0235 14.716 21.5021 14.4392C21.9863 14.1679 22.4704 13.8966 22.9546 13.6253C23.244 13.4593 23.4834 12.7283 23.4834 11.992C23.4834 11.322 23.4834 10.6577 23.4834 9.98772C23.4834 9.32326 23.4834 8.65344 23.4834 7.98346C23.4834 7.25278 23.2442 6.52195 22.9548 6.3558Z" fill="#00CD62"/>
<path d="M25.3867 6.35583C25.459 6.08453 25.5314 5.81323 25.6038 5.54193C25.6761 5.27063 25.7484 4.99933 25.8208 4.72803C25.8654 4.56739 25.8987 5.43111 25.8987 6.65473C25.8987 7.76752 25.8987 8.88047 25.8987 9.99327C25.8987 11.1062 25.8987 12.219 25.8987 13.3318C25.8987 14.5554 25.8654 15.4247 25.8208 15.2585C25.7485 14.9872 25.6762 14.7159 25.6038 14.4391C25.5314 14.1678 25.459 13.8965 25.3867 13.6252C25.3422 13.4592 25.3088 12.7282 25.3088 11.9919C25.3088 11.3219 25.3088 10.6576 25.3088 9.9876C25.3088 9.32314 25.3088 8.65332 25.3088 7.98334C25.3088 7.25281 25.3422 6.52198 25.3867 6.35583Z" fill="#00905E"/>
<path d="M24.6133 6.35583C24.541 6.08453 24.4686 5.81323 24.3962 5.54193C24.3239 5.27063 24.2516 4.99933 24.1792 4.72803C24.1346 4.56739 24.1012 5.43111 24.1012 6.65473C24.1012 7.76752 24.1012 8.88047 24.1012 9.99327C24.1012 11.1062 24.1012 12.219 24.1012 13.3318C24.1012 14.5554 24.1346 15.4247 24.1792 15.2585C24.2515 14.9872 24.3238 14.7159 24.3962 14.4391C24.4686 14.1678 24.541 13.8965 24.6133 13.6252C24.6579 13.4592 24.6912 12.7282 24.6912 11.9919C24.6912 11.3219 24.6912 10.6576 24.6912 9.9876C24.6912 9.32314 24.6912 8.65332 24.6912 7.98334C24.6912 7.25281 24.6523 6.52198 24.6133 6.35583Z" fill="#00BB5D"/>
<path d="M35.4936 19.2838C35.438 19.2728 35.3712 19.2673 35.2932 19.2618C35.2209 19.2563 35.1374 19.2507 35.0483 19.2507C34.7701 19.2507 34.5141 19.2785 34.2747 19.3228C34.0409 19.3671 33.8295 19.4279 33.6514 19.5V22.7278H34.5141V20.0205C34.5698 19.9983 34.6364 19.9817 34.7089 19.9707C34.7869 19.9596 34.8647 19.9541 34.9427 19.9541C35.015 19.9541 35.0818 19.9596 35.1486 19.9652C35.2154 19.9762 35.2766 19.9874 35.3322 20.0039L35.4936 19.2838ZM32.4827 20.6514L31.0525 20.8451C31.058 20.6347 31.0915 20.4575 31.1582 20.3136C31.225 20.1696 31.3141 20.0645 31.4309 19.9925C31.5477 19.9204 31.6813 19.8818 31.8316 19.8818C31.9652 19.8818 32.082 19.9095 32.1767 19.9704C32.2768 20.0257 32.3493 20.1143 32.4049 20.2251C32.4549 20.3358 32.4827 20.4797 32.4827 20.6514ZM33.3175 20.8008C33.3175 20.5683 33.2841 20.3579 33.2229 20.1696C33.1561 19.9814 33.0615 19.8208 32.939 19.6824C32.8165 19.5495 32.6607 19.4443 32.4771 19.3723C32.2934 19.3003 32.0874 19.2616 31.8482 19.2616C31.5978 19.2616 31.3752 19.3059 31.1803 19.389C30.9855 19.4776 30.8186 19.5994 30.6851 19.7544C30.546 19.9094 30.4457 20.0978 30.3734 20.3136C30.3011 20.5295 30.2676 20.7676 30.2676 21.0278C30.2676 21.2881 30.3066 21.5317 30.3789 21.7476C30.4512 21.9636 30.5626 22.1518 30.7073 22.3068C30.852 22.4674 31.03 22.5891 31.2471 22.6722C31.4642 22.7553 31.7091 22.7996 31.993 22.7996C32.16 22.7996 32.3214 22.7885 32.4772 22.7663C32.633 22.7442 32.7777 22.7165 32.9112 22.6777C33.0448 22.6389 33.1561 22.6002 33.2507 22.5504L33.0058 21.9081C32.9223 21.9524 32.8332 21.9912 32.7276 22.0188C32.6218 22.052 32.516 22.0741 32.3992 22.0963C32.2824 22.1129 32.1711 22.1241 32.0541 22.1241C31.887 22.1241 31.7369 22.0963 31.6033 22.041C31.4698 21.9857 31.364 21.9026 31.2749 21.7919C31.1914 21.6813 31.1358 21.5429 31.1079 21.3767L33.3063 21.0777C33.3118 21.0278 33.3175 20.978 33.3175 20.9337C33.3175 20.895 33.3175 20.8451 33.3175 20.8008ZM29.9114 22.7275V17.7779H29.0488V22.7277H29.9114V22.7275ZM28.5145 22.7275V17.7779H27.6518V22.7277H28.5145V22.7275ZM26.4664 20.6514L25.0361 20.8451C25.0417 20.6347 25.0751 20.4575 25.1419 20.3136C25.2087 20.1696 25.2978 20.0645 25.4146 19.9925C25.5314 19.9204 25.665 19.8818 25.8153 19.8818C25.9489 19.8818 26.0657 19.9095 26.1604 19.9704C26.2605 20.0257 26.333 20.1143 26.3886 20.2251C26.4386 20.3358 26.4664 20.4797 26.4664 20.6514ZM27.3013 20.8008C27.3013 20.5683 27.2678 20.3579 27.2067 20.1696C27.1399 19.9814 27.0509 19.8208 26.9229 19.6824C26.8005 19.5495 26.6445 19.4443 26.4609 19.3723C26.2773 19.3003 26.0712 19.2616 25.832 19.2616C25.5816 19.2616 25.359 19.3059 25.1642 19.389C24.9694 19.4776 24.8025 19.5994 24.6689 19.7544C24.5298 19.9094 24.4296 20.0978 24.3572 20.3136C24.2849 20.5295 24.2515 20.7676 24.2515 21.0278C24.2515 21.2881 24.2905 21.5317 24.3628 21.7476C24.4351 21.9636 24.5464 22.1518 24.6912 22.3068C24.8358 22.4674 25.0139 22.5891 25.231 22.6722C25.4481 22.7553 25.6929 22.7996 25.9767 22.7996C26.1435 22.7996 26.3051 22.7885 26.4609 22.7663C26.6167 22.7442 26.7613 22.7165 26.8951 22.6777C27.0286 22.6389 27.1399 22.6002 27.24 22.5504L26.9952 21.9081C26.9116 21.9524 26.8226 21.9912 26.717 22.0188C26.6112 22.052 26.5054 22.0741 26.3886 22.0963C26.2717 22.1129 26.1604 22.1241 26.0434 22.1241C25.8764 22.1241 25.7263 22.0963 25.5927 22.041C25.4591 21.9857 25.3478 21.9026 25.2643 21.7919C25.1808 21.6813 25.1252 21.5429 25.0974 21.3767L27.2958 21.0777C27.3013 21.0278 27.307 20.978 27.307 20.9337C27.3013 20.895 27.3013 20.8451 27.3013 20.8008ZM24.1289 22.6832V21.969C24.1012 21.9855 24.0622 21.9967 24.0176 22.0022C23.9731 22.0133 23.9286 22.0188 23.8841 22.0188C23.8118 22.0188 23.745 22.0077 23.6837 21.9855C23.6225 21.9633 23.5779 21.9247 23.5446 21.8692C23.5112 21.8139 23.4946 21.7418 23.4946 21.6477V19.9701H24.1346V19.3278H23.4946V18.3257L22.6431 18.5748V19.3334H22.2034V19.9756H22.6431V21.7086C22.6431 22.0629 22.7211 22.3342 22.8824 22.5114C23.0438 22.6886 23.2887 22.7827 23.6171 22.7827C23.6894 22.7827 23.7562 22.7772 23.823 22.7662C23.8897 22.7607 23.951 22.7496 24.0066 22.7329C24.051 22.7165 24.0955 22.6999 24.1289 22.6832ZM21.9416 22.7275V19.3281H21.079V22.7275H21.9416ZM22.0086 18.3205C22.0086 18.2319 21.9863 18.1545 21.9418 18.088C21.8973 18.0159 21.8417 17.9661 21.7637 17.9218C21.6914 17.8775 21.6079 17.861 21.5133 17.861C21.4242 17.861 21.3407 17.8832 21.2629 17.9218C21.1906 17.9606 21.1293 18.0159 21.0848 18.088C21.0403 18.1599 21.018 18.2319 21.018 18.3205C21.018 18.4091 21.0403 18.4866 21.0848 18.5585C21.1293 18.6304 21.1849 18.6859 21.2629 18.7245C21.3352 18.7633 21.4187 18.7854 21.5133 18.7911C21.6079 18.7911 21.6914 18.769 21.7637 18.7245C21.836 18.6802 21.8973 18.6249 21.9418 18.5585C21.9806 18.4865 22.0029 18.4091 22.0086 18.3205ZM20.6116 22.7275V20.4022C20.6116 20.1585 20.556 19.9482 20.4503 19.7765C20.3445 19.6103 20.1831 19.4774 19.9605 19.3888C19.7434 19.3003 19.4652 19.256 19.1256 19.256C18.8474 19.256 18.5913 19.2782 18.3687 19.3225C18.1461 19.3668 17.9458 19.4276 17.7621 19.4997V22.7275H18.6248V20.0257C18.6805 20.0035 18.7584 19.9814 18.8474 19.9704C18.9365 19.9538 19.0367 19.9482 19.1368 19.9482C19.3316 19.9482 19.482 19.998 19.5876 20.0921C19.6878 20.1862 19.7434 20.3246 19.7434 20.4963V22.7331H20.6116V22.7275ZM17.3057 22.556V19.3281H16.443V22.0189C16.393 22.0355 16.3262 22.0577 16.2427 22.0688C16.1536 22.0853 16.059 22.0908 15.9422 22.0908C15.7529 22.0908 15.6083 22.0465 15.5137 21.9635C15.4135 21.8749 15.3691 21.742 15.3691 21.5593V19.328H14.5064V21.5426C14.5064 21.8359 14.5621 22.0741 14.6678 22.2623C14.7735 22.4506 14.9349 22.5835 15.152 22.6721C15.3636 22.7607 15.6307 22.8049 15.9424 22.7994C16.1204 22.7994 16.2985 22.7884 16.4656 22.7662C16.6381 22.7441 16.794 22.7164 16.9386 22.6776C17.0831 22.6501 17.2054 22.6058 17.3057 22.556Z" fill="#4A4A49"/>
</g>
<defs>
<clipPath id="clip0">
<rect width="28" height="18.0923" fill="white" transform="translate(11 4.7077)"/>
</clipPath>
</defs>
</svg>
