<svg width="50" height="28" viewBox="0 0 50 28" fill="none" xmlns="http://www.w3.org/2000/svg">
<rect width="50" height="28" rx="3" fill="white"/>
<g clip-path="url(#clip0)">
<path d="M41 19.0751C40.1986 19.0751 39.3972 19.0751 38.5833 19.0751C38.495 18.6558 38.4003 18.2453 38.325 17.8313C38.2942 17.6594 38.2386 17.5928 38.0443 17.5957C37.0752 17.608 36.1062 17.6051 35.1371 17.5975C34.9902 17.5963 34.9322 17.6442 34.8878 17.7758C34.7545 18.1699 34.6082 18.5605 34.4589 18.9494C34.4388 19.002 34.3712 19.0745 34.3256 19.0751C33.452 19.0827 32.5789 19.0804 31.6797 19.0804C31.8432 18.6909 31.9984 18.319 32.1559 17.9483C33.282 15.2959 34.4086 12.6435 35.5352 9.99055C35.7792 9.41633 36.1447 9.17542 36.7743 9.17542C37.4756 9.17542 38.177 9.17542 38.896 9.17542C38.9659 9.49878 39.037 9.81746 39.1045 10.1367C39.659 12.7581 40.2116 15.3795 40.7672 18.0009C40.8383 18.3366 40.9224 18.6699 41.0006 19.0043C41 19.0283 41 19.0517 41 19.0751ZM37.8376 15.5579C37.5799 14.3387 37.3258 13.1365 37.0717 11.9336C37.061 11.9319 37.0509 11.9295 37.0403 11.9278C36.5978 13.1335 36.1547 14.3387 35.7069 15.5579C36.4302 15.5579 37.1226 15.5579 37.8376 15.5579Z" fill="url(#paint0_linear)"/>
<path d="M30.4726 9C30.7912 9.05847 31.1129 9.10642 31.4286 9.17835C31.7164 9.24384 31.999 9.33564 32.3052 9.4216C32.1506 10.1344 32.0002 10.8297 31.8527 11.5103C31.4487 11.3933 31.0625 11.2589 30.6657 11.1723C30.1225 11.0542 29.5663 11.0092 29.0231 11.1583C28.8022 11.2191 28.5789 11.3355 28.4047 11.4828C28.1068 11.7348 28.1026 12.098 28.3876 12.3629C28.5842 12.5453 28.8164 12.6956 29.0492 12.8336C29.5781 13.1476 30.1332 13.4206 30.6467 13.7557C31.2521 14.1504 31.6933 14.6936 31.7857 15.4275C31.9498 16.7256 31.4635 17.7483 30.3588 18.4716C29.664 18.9266 28.878 19.1295 28.0588 19.2049C26.915 19.3102 25.7943 19.1833 24.7015 18.8289C24.628 18.805 24.557 18.7757 24.4853 18.7465C24.464 18.7377 24.4456 18.7225 24.413 18.7026C24.5676 17.9892 24.7222 17.2741 24.881 16.5397C25.067 16.6198 25.2423 16.7005 25.4206 16.7712C26.2741 17.111 27.1561 17.2659 28.0695 17.0969C28.307 17.0531 28.5499 16.9496 28.7512 16.8162C29.1884 16.5268 29.2304 15.983 28.8324 15.6433C28.5706 15.4199 28.2561 15.255 27.9581 15.0755C27.4925 14.7954 26.9974 14.5568 26.5567 14.2434C25.9916 13.8417 25.5829 13.306 25.5053 12.5938C25.3892 11.5278 25.7896 10.6618 26.6189 9.98938C27.3409 9.40406 28.1974 9.14443 29.1096 9.03508C29.1605 9.02924 29.2097 9.01169 29.2595 9C29.664 9 30.0686 9 30.4726 9Z" fill="url(#paint1_linear)"/>
<path d="M9.19014 9.17602C10.5637 9.17602 11.9374 9.17543 13.3116 9.17602C13.9631 9.17602 14.4334 9.54967 14.5566 10.1865C14.9055 11.9886 15.2467 13.7926 15.5914 15.5959C15.6062 15.6748 15.6234 15.7532 15.6465 15.8643C15.6821 15.7982 15.7069 15.7608 15.7229 15.7205C16.5759 13.5902 17.4294 11.46 18.2782 9.32747C18.3244 9.2111 18.3819 9.17134 18.5093 9.17251C19.3059 9.17894 20.1032 9.17543 20.8999 9.17602C20.9514 9.17602 21.003 9.1807 21.0758 9.18362C20.9402 9.50581 20.8116 9.81339 20.6813 10.1204C19.4374 13.0493 18.1924 15.9772 16.9538 18.9085C16.8946 19.0482 16.8223 19.0851 16.679 19.0839C15.8941 19.0775 15.1087 19.0751 14.3239 19.0856C14.1574 19.088 14.1035 19.0301 14.065 18.8827C13.3998 16.3233 12.7228 13.7657 12.0653 11.2039C11.9445 10.7338 11.7028 10.4127 11.2497 10.2157C10.5235 9.89993 9.76944 9.67831 9 9.49821" fill="url(#paint2_linear)"/>
<path d="M20.0351 19.0809C20.753 15.7701 21.4656 12.4821 22.1799 9.18652C23.0489 9.18652 23.9078 9.18652 24.7826 9.18652C24.6742 9.68823 24.5682 10.1806 24.4616 10.6729C23.8716 13.3949 23.2799 16.1169 22.697 18.8406C22.6568 19.0301 22.5886 19.0897 22.3896 19.0862C21.6765 19.0728 20.9627 19.0809 20.2489 19.0809C20.185 19.0809 20.121 19.0809 20.0351 19.0809Z" fill="url(#paint3_linear)"/>
</g>
<defs>
<linearGradient id="paint0_linear" x1="10.697" y1="14.3089" x2="40.8316" y2="14.108" gradientUnits="userSpaceOnUse">
<stop stop-color="#262860"/>
<stop offset="1" stop-color="#3D429B"/>
</linearGradient>
<linearGradient id="paint1_linear" x1="10.6965" y1="14.2342" x2="40.831" y2="14.0334" gradientUnits="userSpaceOnUse">
<stop stop-color="#262860"/>
<stop offset="1" stop-color="#3D429B"/>
</linearGradient>
<linearGradient id="paint2_linear" x1="10.7812" y1="14.1442" x2="40.6689" y2="13.9451" gradientUnits="userSpaceOnUse">
<stop stop-color="#262860"/>
<stop offset="1" stop-color="#3D429B"/>
</linearGradient>
<linearGradient id="paint3_linear" x1="10.6964" y1="14.212" x2="40.8308" y2="14.0112" gradientUnits="userSpaceOnUse">
<stop stop-color="#262860"/>
<stop offset="1" stop-color="#3D429B"/>
</linearGradient>
<clipPath id="clip0">
<rect width="32" height="10.24" fill="white" transform="translate(9 9)"/>
</clipPath>
</defs>
</svg>
